M48
;GenerationSoftware,Autodesk,EAGLE,9.7.0*%
;CreationDate,2021-01-15T11:08:02Z*%
FMAT,2
ICI,OFF
METRIC,TZ,000.000
T5C0.350
T4C0.914
T3C0.981
T2C1.000
T1C1.016
%
G90
M71
T1
X-46990Y20320
X-44450Y20320
X-35560Y20320
X-33020Y20320
X-30480Y20320
X-26670Y67310
X-26670Y64770
X-26670Y62230
X-26670Y59690
X-26670Y57150
X-26670Y54610
X-26670Y52070
X-30480Y30480
X-26670Y49530
X-26670Y46990
X-26670Y44450
X-46990Y50902
X-46990Y48362
X-46990Y45822
X-46990Y43282
X-46990Y40742
X-46990Y38202
X-49530Y30480
X-46990Y30480
X-44450Y30480
X-41910Y30480
X-35560Y15240
X-30480Y15240
X-49530Y10160
X-46990Y10160
X-44450Y10160
X-35560Y10160
X-33020Y10160
X-30480Y10160
X-20320Y30480
X-46990Y54610
X-46990Y57150
X-46990Y59690
X-46990Y62230
X-46990Y64770
X-46990Y67310
X-17780Y30480
X-15240Y30480
X-49530Y25400
X-46990Y25400
X-44450Y25400
X-35560Y30480
X-33020Y30480
X-33020Y15240
X-35560Y25400
X-33020Y25400
X-30480Y25400
X-49530Y15240
X-46990Y15240
X-44450Y15240
X-49530Y20320
T2
X-33010Y97789
X-45710Y72384
X-48250Y72384
X-50790Y72384
X-25390Y72384
X-15230Y97789
X-17770Y97789
X-20310Y97789
X-22850Y97789
X-25390Y97789
X-27930Y97789
X-30470Y97789
X-35550Y97789
X-38090Y97789
X-40630Y97789
X-43170Y97789
X-45710Y97789
X-48250Y97789
X-50790Y97789
X-15230Y72384
X-17770Y72384
X-20310Y72384
X-22850Y72384
X-27930Y72384
X-30470Y72384
X-33010Y72384
X-35550Y72384
X-38090Y72384
X-40630Y72384
X-43170Y72384
T3
X-15240Y21590
X-12700Y21590
X-22860Y21590
X-20320Y21590
T4
X-21031Y10160
X-14529Y10160
T5
X-19000Y67750
X-41875Y81375
X-30750Y28000
X-34125Y63875
X-14000Y62500
M30