G04 EAGLE Gerber RS-274X export*
G75*
%MOMM*%
%FSLAX34Y34*%
%LPD*%
%INSoldermask Bottom*%
%IPPOS*%
%AMOC8*
5,1,8,0,0,1.08239X$1,22.5*%
G01*
G04 Define Apertures*
%ADD10C,2.133600*%
%ADD11C,1.727200*%
%ADD12P,2.556822X8X22.500000*%
%ADD13C,1.784200*%
%ADD14C,0.959600*%
D10*
X-152300Y977888D03*
X-177700Y977888D03*
X-203100Y977888D03*
X-228500Y977888D03*
X-253900Y977888D03*
X-279300Y977888D03*
X-304700Y977888D03*
X-330100Y977888D03*
X-355500Y977888D03*
X-380900Y977888D03*
X-406300Y977888D03*
X-431700Y977888D03*
X-457100Y977888D03*
X-482500Y977888D03*
X-507900Y977888D03*
X-152300Y723838D03*
X-177700Y723838D03*
X-203100Y723838D03*
X-228500Y723838D03*
X-253900Y723838D03*
X-279300Y723838D03*
X-304700Y723838D03*
X-330100Y723838D03*
X-355500Y723838D03*
X-380900Y723838D03*
X-406300Y723838D03*
X-431700Y723838D03*
X-457100Y723838D03*
X-482500Y723838D03*
X-507900Y723838D03*
D11*
X-477520Y546100D02*
X-462280Y546100D01*
X-462280Y571500D02*
X-477520Y571500D01*
X-477520Y596900D02*
X-462280Y596900D01*
X-462280Y622300D02*
X-477520Y622300D01*
X-477520Y647700D02*
X-462280Y647700D01*
X-462280Y673100D02*
X-477520Y673100D01*
D12*
X-210312Y101600D03*
X-145288Y101600D03*
D11*
X-495300Y246380D02*
X-495300Y261620D01*
X-469900Y261620D02*
X-469900Y246380D01*
X-444500Y246380D02*
X-444500Y261620D01*
X-355600Y297180D02*
X-355600Y312420D01*
X-330200Y312420D02*
X-330200Y297180D01*
X-304800Y297180D02*
X-304800Y312420D01*
X-355600Y261620D02*
X-355600Y246380D01*
X-330200Y246380D02*
X-330200Y261620D01*
X-304800Y261620D02*
X-304800Y246380D01*
X-495300Y160020D02*
X-495300Y144780D01*
X-469900Y144780D02*
X-469900Y160020D01*
X-444500Y160020D02*
X-444500Y144780D01*
X-495300Y195580D02*
X-495300Y210820D01*
X-469900Y210820D02*
X-469900Y195580D01*
X-444500Y195580D02*
X-444500Y210820D01*
X-355600Y210820D02*
X-355600Y195580D01*
X-330200Y195580D02*
X-330200Y210820D01*
X-304800Y210820D02*
X-304800Y195580D01*
D13*
X-152400Y215900D03*
X-127000Y215900D03*
D11*
X-259080Y673100D02*
X-274320Y673100D01*
X-274320Y647700D02*
X-259080Y647700D01*
X-259080Y622300D02*
X-274320Y622300D01*
X-274320Y596900D02*
X-259080Y596900D01*
X-259080Y571500D02*
X-274320Y571500D01*
X-274320Y546100D02*
X-259080Y546100D01*
X-259080Y520700D02*
X-274320Y520700D01*
X-274320Y495300D02*
X-259080Y495300D01*
X-259080Y469900D02*
X-274320Y469900D01*
X-274320Y444500D02*
X-259080Y444500D01*
X-462280Y509016D02*
X-477520Y509016D01*
X-477520Y483616D02*
X-462280Y483616D01*
X-462280Y458216D02*
X-477520Y458216D01*
X-477520Y432816D02*
X-462280Y432816D01*
X-462280Y407416D02*
X-477520Y407416D01*
X-477520Y382016D02*
X-462280Y382016D01*
X-495300Y312420D02*
X-495300Y297180D01*
X-469900Y297180D02*
X-469900Y312420D01*
X-444500Y312420D02*
X-444500Y297180D01*
X-419100Y297180D02*
X-419100Y312420D01*
X-355600Y160020D02*
X-355600Y144780D01*
X-330200Y144780D02*
X-330200Y160020D01*
X-304800Y160020D02*
X-304800Y144780D01*
X-495300Y109220D02*
X-495300Y93980D01*
X-469900Y93980D02*
X-469900Y109220D01*
X-444500Y109220D02*
X-444500Y93980D01*
X-355600Y93980D02*
X-355600Y109220D01*
X-330200Y109220D02*
X-330200Y93980D01*
X-304800Y93980D02*
X-304800Y109220D01*
X-203200Y297180D02*
X-203200Y312420D01*
X-177800Y312420D02*
X-177800Y297180D01*
X-152400Y297180D02*
X-152400Y312420D01*
D13*
X-228600Y215900D03*
X-203200Y215900D03*
D14*
X-140000Y625000D03*
X-190000Y677500D03*
X-418750Y813750D03*
X-307500Y280000D03*
X-341250Y638750D03*
M02*
