G04 EAGLE Gerber RS-274X export*
G75*
%MOMM*%
%FSLAX34Y34*%
%LPD*%
%IN*%
%IPPOS*%
%AMOC8*
5,1,8,0,0,1.08239X$1,22.5*%
G01*
G04 Define Apertures*
%ADD10C,0.254000*%
D10*
X-533400Y37700D02*
X-533305Y35521D01*
X-533020Y33359D01*
X-532548Y31230D01*
X-531892Y29150D01*
X-531058Y27135D01*
X-530051Y25200D01*
X-528879Y23361D01*
X-527551Y21630D01*
X-526078Y20022D01*
X-524470Y18549D01*
X-522739Y17221D01*
X-520900Y16049D01*
X-518965Y15042D01*
X-516951Y14208D01*
X-514870Y13552D01*
X-512741Y13080D01*
X-510579Y12795D01*
X-508400Y12700D01*
X-88400Y12700D01*
X-86221Y12795D01*
X-84059Y13080D01*
X-81930Y13552D01*
X-79850Y14208D01*
X-77835Y15042D01*
X-75900Y16049D01*
X-74061Y17221D01*
X-72330Y18549D01*
X-70722Y20022D01*
X-69249Y21630D01*
X-67921Y23361D01*
X-66749Y25200D01*
X-65742Y27135D01*
X-64908Y29150D01*
X-64252Y31230D01*
X-63780Y33359D01*
X-63495Y35521D01*
X-63400Y37700D01*
X-63400Y1037700D01*
X-63495Y1039879D01*
X-63780Y1042041D01*
X-64252Y1044170D01*
X-64908Y1046251D01*
X-65742Y1048265D01*
X-66749Y1050200D01*
X-67921Y1052039D01*
X-69249Y1053770D01*
X-70722Y1055378D01*
X-72330Y1056851D01*
X-74061Y1058179D01*
X-75900Y1059351D01*
X-77835Y1060358D01*
X-79850Y1061192D01*
X-81930Y1061848D01*
X-84059Y1062320D01*
X-86221Y1062605D01*
X-88400Y1062700D01*
X-508400Y1062700D01*
X-510579Y1062605D01*
X-512741Y1062320D01*
X-514870Y1061848D01*
X-516951Y1061192D01*
X-518965Y1060358D01*
X-520900Y1059351D01*
X-522739Y1058179D01*
X-524470Y1056851D01*
X-526078Y1055378D01*
X-527551Y1053770D01*
X-528879Y1052039D01*
X-530051Y1050200D01*
X-531058Y1048265D01*
X-531892Y1046251D01*
X-532548Y1044170D01*
X-533020Y1042041D01*
X-533305Y1039879D01*
X-533400Y1037700D01*
X-533400Y37700D01*
X-73400Y1037500D02*
X-73400Y1038571D01*
X-73476Y1039640D01*
X-73629Y1040701D01*
X-73857Y1041748D01*
X-74159Y1042776D01*
X-74533Y1043780D01*
X-74978Y1044754D01*
X-75492Y1045695D01*
X-76071Y1046596D01*
X-76713Y1047454D01*
X-77415Y1048263D01*
X-78172Y1049021D01*
X-78982Y1049723D01*
X-79840Y1050365D01*
X-80741Y1050944D01*
X-81681Y1051458D01*
X-82656Y1051903D01*
X-83660Y1052277D01*
X-84688Y1052579D01*
X-85735Y1052807D01*
X-86796Y1052959D01*
X-87864Y1053036D01*
X-88936Y1053036D01*
X-90004Y1052959D01*
X-91065Y1052807D01*
X-92112Y1052579D01*
X-93140Y1052277D01*
X-94144Y1051903D01*
X-95119Y1051458D01*
X-96059Y1050944D01*
X-96960Y1050365D01*
X-97818Y1049723D01*
X-98628Y1049021D01*
X-99385Y1048263D01*
X-100087Y1047454D01*
X-100729Y1046596D01*
X-101308Y1045695D01*
X-101822Y1044754D01*
X-102267Y1043780D01*
X-102641Y1042776D01*
X-102943Y1041748D01*
X-103171Y1040701D01*
X-103324Y1039640D01*
X-103400Y1038571D01*
X-103400Y1037500D01*
X-103324Y1036431D01*
X-103171Y1035371D01*
X-102943Y1034324D01*
X-102641Y1033296D01*
X-102267Y1032292D01*
X-101822Y1031317D01*
X-101308Y1030377D01*
X-100729Y1029475D01*
X-100087Y1028618D01*
X-99385Y1027808D01*
X-98628Y1027050D01*
X-97818Y1026349D01*
X-96960Y1025707D01*
X-96059Y1025127D01*
X-95119Y1024614D01*
X-94144Y1024169D01*
X-93140Y1023794D01*
X-92112Y1023492D01*
X-91065Y1023265D01*
X-90004Y1023112D01*
X-88936Y1023036D01*
X-87864Y1023036D01*
X-86796Y1023112D01*
X-85735Y1023265D01*
X-84688Y1023492D01*
X-83660Y1023794D01*
X-82656Y1024169D01*
X-81681Y1024614D01*
X-80741Y1025127D01*
X-79840Y1025707D01*
X-78982Y1026349D01*
X-78172Y1027050D01*
X-77415Y1027808D01*
X-76713Y1028618D01*
X-76071Y1029475D01*
X-75492Y1030377D01*
X-74978Y1031317D01*
X-74533Y1032292D01*
X-74159Y1033296D01*
X-73857Y1034324D01*
X-73629Y1035371D01*
X-73476Y1036431D01*
X-73400Y1037500D01*
X-73400Y36838D02*
X-73400Y37910D01*
X-73476Y38979D01*
X-73629Y40039D01*
X-73857Y41086D01*
X-74159Y42114D01*
X-74533Y43118D01*
X-74978Y44093D01*
X-75492Y45033D01*
X-76071Y45934D01*
X-76713Y46792D01*
X-77415Y47602D01*
X-78172Y48360D01*
X-78982Y49061D01*
X-79840Y49703D01*
X-80741Y50283D01*
X-81681Y50796D01*
X-82656Y51241D01*
X-83660Y51616D01*
X-84688Y51917D01*
X-85735Y52145D01*
X-86796Y52298D01*
X-87864Y52374D01*
X-88936Y52374D01*
X-90004Y52298D01*
X-91065Y52145D01*
X-92112Y51917D01*
X-93140Y51616D01*
X-94144Y51241D01*
X-95119Y50796D01*
X-96059Y50283D01*
X-96960Y49703D01*
X-97818Y49061D01*
X-98628Y48360D01*
X-99385Y47602D01*
X-100087Y46792D01*
X-100729Y45934D01*
X-101308Y45033D01*
X-101822Y44093D01*
X-102267Y43118D01*
X-102641Y42114D01*
X-102943Y41086D01*
X-103171Y40039D01*
X-103324Y38979D01*
X-103400Y37910D01*
X-103400Y36838D01*
X-103324Y35770D01*
X-103171Y34709D01*
X-102943Y33662D01*
X-102641Y32634D01*
X-102267Y31630D01*
X-101822Y30656D01*
X-101308Y29715D01*
X-100729Y28814D01*
X-100087Y27956D01*
X-99385Y27146D01*
X-98628Y26389D01*
X-97818Y25687D01*
X-96960Y25045D01*
X-96059Y24466D01*
X-95119Y23952D01*
X-94144Y23507D01*
X-93140Y23133D01*
X-92112Y22831D01*
X-91065Y22603D01*
X-90004Y22451D01*
X-88936Y22374D01*
X-87864Y22374D01*
X-86796Y22451D01*
X-85735Y22603D01*
X-84688Y22831D01*
X-83660Y23133D01*
X-82656Y23507D01*
X-81681Y23952D01*
X-80741Y24466D01*
X-79840Y25045D01*
X-78982Y25687D01*
X-78172Y26389D01*
X-77415Y27146D01*
X-76713Y27956D01*
X-76071Y28814D01*
X-75492Y29715D01*
X-74978Y30656D01*
X-74533Y31630D01*
X-74159Y32634D01*
X-73857Y33662D01*
X-73629Y34709D01*
X-73476Y35770D01*
X-73400Y36838D01*
X-493400Y37164D02*
X-493400Y38236D01*
X-493476Y39304D01*
X-493629Y40365D01*
X-493857Y41412D01*
X-494159Y42440D01*
X-494533Y43444D01*
X-494978Y44419D01*
X-495492Y45359D01*
X-496071Y46260D01*
X-496713Y47118D01*
X-497415Y47928D01*
X-498172Y48685D01*
X-498982Y49387D01*
X-499840Y50029D01*
X-500741Y50608D01*
X-501681Y51122D01*
X-502656Y51567D01*
X-503660Y51941D01*
X-504688Y52243D01*
X-505735Y52471D01*
X-506796Y52624D01*
X-507864Y52700D01*
X-508936Y52700D01*
X-510004Y52624D01*
X-511065Y52471D01*
X-512112Y52243D01*
X-513140Y51941D01*
X-514144Y51567D01*
X-515119Y51122D01*
X-516059Y50608D01*
X-516960Y50029D01*
X-517818Y49387D01*
X-518628Y48685D01*
X-519385Y47928D01*
X-520087Y47118D01*
X-520729Y46260D01*
X-521308Y45359D01*
X-521822Y44419D01*
X-522267Y43444D01*
X-522641Y42440D01*
X-522943Y41412D01*
X-523171Y40365D01*
X-523324Y39304D01*
X-523400Y38236D01*
X-523400Y37164D01*
X-523324Y36096D01*
X-523171Y35035D01*
X-522943Y33988D01*
X-522641Y32960D01*
X-522267Y31956D01*
X-521822Y30981D01*
X-521308Y30041D01*
X-520729Y29140D01*
X-520087Y28282D01*
X-519385Y27472D01*
X-518628Y26715D01*
X-517818Y26013D01*
X-516960Y25371D01*
X-516059Y24792D01*
X-515119Y24278D01*
X-514144Y23833D01*
X-513140Y23459D01*
X-512112Y23157D01*
X-511065Y22929D01*
X-510004Y22776D01*
X-508936Y22700D01*
X-507864Y22700D01*
X-506796Y22776D01*
X-505735Y22929D01*
X-504688Y23157D01*
X-503660Y23459D01*
X-502656Y23833D01*
X-501681Y24278D01*
X-500741Y24792D01*
X-499840Y25371D01*
X-498982Y26013D01*
X-498172Y26715D01*
X-497415Y27472D01*
X-496713Y28282D01*
X-496071Y29140D01*
X-495492Y30041D01*
X-494978Y30981D01*
X-494533Y31956D01*
X-494159Y32960D01*
X-493857Y33988D01*
X-493629Y35035D01*
X-493476Y36096D01*
X-493400Y37164D01*
X-493400Y1037164D02*
X-493400Y1038236D01*
X-493476Y1039304D01*
X-493629Y1040365D01*
X-493857Y1041412D01*
X-494159Y1042440D01*
X-494533Y1043444D01*
X-494978Y1044419D01*
X-495492Y1045359D01*
X-496071Y1046260D01*
X-496713Y1047118D01*
X-497415Y1047928D01*
X-498172Y1048685D01*
X-498982Y1049387D01*
X-499840Y1050029D01*
X-500741Y1050608D01*
X-501681Y1051122D01*
X-502656Y1051567D01*
X-503660Y1051941D01*
X-504688Y1052243D01*
X-505735Y1052471D01*
X-506796Y1052624D01*
X-507864Y1052700D01*
X-508936Y1052700D01*
X-510004Y1052624D01*
X-511065Y1052471D01*
X-512112Y1052243D01*
X-513140Y1051941D01*
X-514144Y1051567D01*
X-515119Y1051122D01*
X-516059Y1050608D01*
X-516960Y1050029D01*
X-517818Y1049387D01*
X-518628Y1048685D01*
X-519385Y1047928D01*
X-520087Y1047118D01*
X-520729Y1046260D01*
X-521308Y1045359D01*
X-521822Y1044419D01*
X-522267Y1043444D01*
X-522641Y1042440D01*
X-522943Y1041412D01*
X-523171Y1040365D01*
X-523324Y1039304D01*
X-523400Y1038236D01*
X-523400Y1037164D01*
X-523324Y1036096D01*
X-523171Y1035035D01*
X-522943Y1033988D01*
X-522641Y1032960D01*
X-522267Y1031956D01*
X-521822Y1030981D01*
X-521308Y1030041D01*
X-520729Y1029140D01*
X-520087Y1028282D01*
X-519385Y1027472D01*
X-518628Y1026715D01*
X-517818Y1026013D01*
X-516960Y1025371D01*
X-516059Y1024792D01*
X-515119Y1024278D01*
X-514144Y1023833D01*
X-513140Y1023459D01*
X-512112Y1023157D01*
X-511065Y1022929D01*
X-510004Y1022776D01*
X-508936Y1022700D01*
X-507864Y1022700D01*
X-506796Y1022776D01*
X-505735Y1022929D01*
X-504688Y1023157D01*
X-503660Y1023459D01*
X-502656Y1023833D01*
X-501681Y1024278D01*
X-500741Y1024792D01*
X-499840Y1025371D01*
X-498982Y1026013D01*
X-498172Y1026715D01*
X-497415Y1027472D01*
X-496713Y1028282D01*
X-496071Y1029140D01*
X-495492Y1030041D01*
X-494978Y1030981D01*
X-494533Y1031956D01*
X-494159Y1032960D01*
X-493857Y1033988D01*
X-493629Y1035035D01*
X-493476Y1036096D01*
X-493400Y1037164D01*
M02*
