G04 EAGLE Gerber RS-274X export*
G75*
%MOMM*%
%FSLAX34Y34*%
%LPD*%
%INSoldermask Bottom*%
%IPPOS*%
%AMOC8*
5,1,8,0,0,1.08239X$1,22.5*%
G01*
G04 Define Apertures*
%ADD10C,2.133600*%
%ADD11C,1.727200*%
%ADD12P,2.556822X8X22.500000*%
%ADD13C,1.784200*%
%ADD14C,1.711200*%
D10*
X393800Y975188D03*
X368400Y975188D03*
X343000Y975188D03*
X317600Y975188D03*
X292200Y975188D03*
X266800Y975188D03*
X241400Y975188D03*
X216000Y975188D03*
X190600Y975188D03*
X165200Y975188D03*
X139800Y975188D03*
X114400Y975188D03*
X89000Y975188D03*
X63600Y975188D03*
X38200Y975188D03*
X393800Y721138D03*
X368400Y721138D03*
X343000Y721138D03*
X317600Y721138D03*
X292200Y721138D03*
X266800Y721138D03*
X241400Y721138D03*
X216000Y721138D03*
X190600Y721138D03*
X165200Y721138D03*
X139800Y721138D03*
X114400Y721138D03*
X89000Y721138D03*
X63600Y721138D03*
X38200Y721138D03*
D11*
X45720Y101600D02*
X30480Y101600D01*
X30480Y127000D02*
X45720Y127000D01*
X45720Y152400D02*
X30480Y152400D01*
X30480Y177800D02*
X45720Y177800D01*
X45720Y203200D02*
X30480Y203200D01*
X30480Y228600D02*
X45720Y228600D01*
D12*
X310388Y76200D03*
X375412Y76200D03*
D11*
X25400Y652780D02*
X25400Y668020D01*
X50800Y668020D02*
X50800Y652780D01*
X76200Y652780D02*
X76200Y668020D01*
X25400Y477520D02*
X25400Y462280D01*
X50800Y462280D02*
X50800Y477520D01*
X76200Y477520D02*
X76200Y462280D01*
X25400Y414020D02*
X25400Y398780D01*
X50800Y398780D02*
X50800Y414020D01*
X76200Y414020D02*
X76200Y398780D01*
X25400Y525780D02*
X25400Y541020D01*
X50800Y541020D02*
X50800Y525780D01*
X76200Y525780D02*
X76200Y541020D01*
X25400Y589280D02*
X25400Y604520D01*
X50800Y604520D02*
X50800Y589280D01*
X76200Y589280D02*
X76200Y604520D01*
X25400Y350520D02*
X25400Y335280D01*
X50800Y335280D02*
X50800Y350520D01*
X76200Y350520D02*
X76200Y335280D01*
D13*
X228600Y63500D03*
X254000Y63500D03*
D11*
X147320Y444500D02*
X132080Y444500D01*
X132080Y469900D02*
X147320Y469900D01*
X147320Y495300D02*
X132080Y495300D01*
X132080Y520700D02*
X147320Y520700D01*
X147320Y546100D02*
X132080Y546100D01*
X132080Y571500D02*
X147320Y571500D01*
X147320Y596900D02*
X132080Y596900D01*
X132080Y622300D02*
X147320Y622300D01*
X147320Y647700D02*
X132080Y647700D01*
X132080Y673100D02*
X147320Y673100D01*
D14*
X210900Y184150D03*
X312500Y184150D03*
X312500Y209550D03*
X210900Y209550D03*
X210900Y628650D03*
X312500Y628650D03*
X312500Y654050D03*
X210900Y654050D03*
D11*
X147320Y278384D02*
X132080Y278384D01*
X132080Y303784D02*
X147320Y303784D01*
X147320Y329184D02*
X132080Y329184D01*
X132080Y354584D02*
X147320Y354584D01*
X147320Y379984D02*
X132080Y379984D01*
X132080Y405384D02*
X147320Y405384D01*
X88900Y58420D02*
X88900Y43180D01*
X114300Y43180D02*
X114300Y58420D01*
X139700Y58420D02*
X139700Y43180D01*
X165100Y43180D02*
X165100Y58420D01*
M02*
