G04 EAGLE Gerber RS-274X export*
G75*
%MOMM*%
%FSLAX34Y34*%
%LPD*%
%INTop Copper*%
%IPPOS*%
%AMOC8*
5,1,8,0,0,1.08239X$1,22.5*%
G01*
G04 Define Apertures*
%ADD10R,1.508000X1.508000*%
%ADD11C,1.676400*%
%ADD12P,1.632244X8X202.500000*%
%ADD13C,1.508000*%
%ADD14C,1.108000*%
%ADD15R,2.540000X5.080000*%
%ADD16P,2.336880X8X22.500000*%
%ADD17C,1.524000*%
%ADD18C,2.000000*%
%ADD19R,2.000000X2.000000*%
%ADD20C,0.152400*%
D10*
X451367Y66517D03*
X375167Y523717D03*
X298967Y91917D03*
D11*
X298967Y66517D03*
D12*
X298967Y117317D03*
X400567Y523717D03*
D13*
X425967Y523717D03*
X349767Y523717D03*
X324367Y523717D03*
X298967Y396717D03*
X451367Y396717D03*
X451367Y91917D03*
X451367Y117317D03*
X451367Y142717D03*
X451367Y168117D03*
X451367Y193517D03*
X451367Y218917D03*
X451367Y244317D03*
X451367Y269717D03*
X451367Y295117D03*
X451367Y320517D03*
X451367Y345917D03*
X451367Y371317D03*
X324367Y91917D03*
X298967Y371317D03*
X298967Y345917D03*
X298967Y320517D03*
X298967Y295117D03*
X298967Y269717D03*
X298967Y244317D03*
X298967Y218917D03*
X298967Y193517D03*
X298967Y168117D03*
X298967Y142717D03*
D12*
X451367Y422117D03*
D13*
X451367Y472917D03*
X451367Y498317D03*
X451367Y523717D03*
X451367Y549117D03*
X451367Y574517D03*
X451367Y599917D03*
X451367Y625317D03*
X451367Y650717D03*
X298967Y447517D03*
X298967Y472917D03*
X298967Y498317D03*
X298967Y523717D03*
X298967Y549117D03*
X298967Y574517D03*
X298967Y599917D03*
X298967Y625317D03*
X298967Y650717D03*
X421367Y130017D03*
X421367Y155417D03*
X421367Y180817D03*
X421367Y206217D03*
X421367Y231617D03*
X451367Y447517D03*
D10*
X298967Y422117D03*
D13*
X365167Y68817D03*
X385167Y68817D03*
D14*
X324367Y196217D03*
X344367Y196217D03*
X364367Y196217D03*
X324367Y216217D03*
X344367Y216217D03*
X364367Y216217D03*
D15*
X203200Y38100D03*
X152400Y38100D03*
D16*
X174117Y266700D03*
X239141Y266700D03*
D17*
X38100Y449580D02*
X38100Y464820D01*
X63500Y464820D02*
X63500Y449580D01*
X88900Y449580D02*
X88900Y464820D01*
X38100Y432816D02*
X38100Y417576D01*
X63500Y417576D02*
X63500Y432816D01*
X88900Y432816D02*
X88900Y417576D01*
X38100Y400812D02*
X38100Y385572D01*
X63500Y385572D02*
X63500Y400812D01*
X88900Y400812D02*
X88900Y385572D01*
X38100Y368808D02*
X38100Y353568D01*
X63500Y353568D02*
X63500Y368808D01*
X88900Y368808D02*
X88900Y353568D01*
X38100Y336804D02*
X38100Y321564D01*
X63500Y321564D02*
X63500Y336804D01*
X88900Y336804D02*
X88900Y321564D01*
X38100Y302768D02*
X38100Y287528D01*
X63500Y287528D02*
X63500Y302768D01*
X88900Y302768D02*
X88900Y287528D01*
X38100Y268732D02*
X38100Y253492D01*
X63500Y253492D02*
X63500Y268732D01*
X88900Y268732D02*
X88900Y253492D01*
X260858Y627380D02*
X260858Y642620D01*
X235458Y642620D02*
X235458Y627380D01*
X210058Y627380D02*
X210058Y642620D01*
X184658Y642620D02*
X184658Y627380D01*
X159258Y627380D02*
X159258Y642620D01*
X133858Y642620D02*
X133858Y627380D01*
X108458Y627380D02*
X108458Y642620D01*
X83058Y642620D02*
X83058Y627380D01*
X57658Y627380D02*
X57658Y642620D01*
X32258Y642620D02*
X32258Y627380D01*
X266700Y375920D02*
X266700Y360680D01*
X241300Y360680D02*
X241300Y375920D01*
X215900Y375920D02*
X215900Y360680D01*
X190500Y360680D02*
X190500Y375920D01*
X165100Y375920D02*
X165100Y360680D01*
X139700Y360680D02*
X139700Y375920D01*
D18*
X38100Y177800D03*
D19*
X76200Y177800D03*
D17*
X114300Y219456D02*
X114300Y234696D01*
X88900Y234696D02*
X88900Y219456D01*
X63500Y219456D02*
X63500Y234696D01*
X38100Y234696D02*
X38100Y219456D01*
D20*
X65000Y430000D02*
X65000Y455000D01*
X65000Y430000D02*
X63500Y425196D01*
X65000Y455000D02*
X63500Y457200D01*
X65000Y390000D02*
X65000Y365000D01*
X63500Y361188D01*
X65000Y390000D02*
X63500Y393192D01*
X65000Y295000D02*
X65000Y265000D01*
X63500Y261112D01*
X65000Y295000D02*
X63500Y295148D01*
X65000Y300000D02*
X65000Y325000D01*
X63500Y329184D01*
X65000Y300000D02*
X63500Y295148D01*
X65000Y330000D02*
X65000Y360000D01*
X63500Y361188D01*
X65000Y330000D02*
X63500Y329184D01*
X65000Y395000D02*
X65000Y425000D01*
X63500Y425196D01*
X65000Y395000D02*
X63500Y393192D01*
X115000Y225000D02*
X150000Y190000D01*
X150000Y40000D01*
X115000Y225000D02*
X114300Y227076D01*
X150000Y40000D02*
X152400Y38100D01*
X240000Y370000D02*
X240000Y635000D01*
X235458Y635000D01*
X240000Y370000D02*
X241300Y368300D01*
X395000Y65000D02*
X450000Y65000D01*
X395000Y65000D02*
X395000Y60000D01*
X375000Y40000D01*
X205000Y40000D01*
X450000Y65000D02*
X451367Y66517D01*
X205000Y40000D02*
X203200Y38100D01*
X40000Y230000D02*
X40000Y260000D01*
X40000Y230000D02*
X38100Y227076D01*
X40000Y260000D02*
X38100Y261112D01*
X40000Y430000D02*
X40000Y455000D01*
X40000Y430000D02*
X38100Y425196D01*
X40000Y455000D02*
X38100Y457200D01*
X40000Y390000D02*
X40000Y365000D01*
X38100Y361188D01*
X40000Y390000D02*
X38100Y393192D01*
X40000Y325000D02*
X40000Y300000D01*
X38100Y295148D01*
X40000Y325000D02*
X38100Y329184D01*
X40000Y330000D02*
X40000Y360000D01*
X38100Y361188D01*
X40000Y330000D02*
X38100Y329184D01*
X40000Y395000D02*
X40000Y425000D01*
X38100Y425196D01*
X40000Y395000D02*
X38100Y393192D01*
X40000Y295000D02*
X40000Y265000D01*
X38100Y261112D01*
X40000Y295000D02*
X38100Y295148D01*
X175000Y65000D02*
X200000Y40000D01*
X175000Y65000D02*
X175000Y265000D01*
X200000Y40000D02*
X203200Y38100D01*
X175000Y265000D02*
X174117Y266700D01*
X265000Y370000D02*
X265000Y635000D01*
X260858Y635000D01*
X265000Y370000D02*
X266700Y368300D01*
X280000Y555000D02*
X295000Y570000D01*
X280000Y555000D02*
X280000Y310000D01*
X240000Y270000D01*
X295000Y570000D02*
X298967Y574517D01*
X240000Y270000D02*
X239141Y266700D01*
X300000Y245000D02*
X310000Y255000D01*
X310000Y275000D01*
X305000Y280000D01*
X255000Y280000D01*
X255000Y260000D01*
X245000Y250000D01*
X220000Y250000D01*
X220000Y365000D01*
X300000Y245000D02*
X298967Y244317D01*
X220000Y365000D02*
X215900Y368300D01*
X215000Y370000D02*
X215000Y635000D01*
X210058Y635000D01*
X215000Y370000D02*
X215900Y368300D01*
X260000Y265000D02*
X295000Y265000D01*
X260000Y265000D02*
X260000Y260000D01*
X245000Y245000D01*
X205000Y245000D01*
X205000Y355000D01*
X195000Y365000D01*
X298967Y269717D02*
X295000Y265000D01*
X195000Y365000D02*
X190500Y368300D01*
X190000Y630000D02*
X185000Y635000D01*
X190000Y630000D02*
X190000Y370000D01*
X185000Y635000D02*
X184658Y635000D01*
X190000Y370000D02*
X190500Y368300D01*
X75000Y215000D02*
X40000Y180000D01*
X75000Y215000D02*
X75000Y525000D01*
X170000Y620000D01*
X170000Y645000D01*
X190000Y665000D01*
X440000Y665000D01*
X440000Y585000D01*
X450000Y575000D01*
X40000Y180000D02*
X38100Y177800D01*
X450000Y575000D02*
X451367Y574517D01*
X100000Y200000D02*
X80000Y180000D01*
X100000Y200000D02*
X100000Y235000D01*
X145000Y280000D01*
X200000Y280000D01*
X200000Y240000D01*
X210000Y230000D01*
X410000Y230000D01*
X410000Y490000D01*
X440000Y520000D01*
X440000Y535000D01*
X450000Y545000D01*
X80000Y180000D02*
X76200Y177800D01*
X450000Y545000D02*
X451367Y549117D01*
M02*
