G04 EAGLE Gerber RS-274X export*
G75*
%MOMM*%
%FSLAX34Y34*%
%LPD*%
%INBottom Copper*%
%IPPOS*%
%AMOC8*
5,1,8,0,0,1.08239X$1,22.5*%
G01*
G04 Define Apertures*
%ADD10R,1.508000X1.508000*%
%ADD11C,1.676400*%
%ADD12P,1.632244X8X202.500000*%
%ADD13C,1.508000*%
%ADD14C,1.108000*%
%ADD15P,2.336880X8X22.500000*%
%ADD16C,1.524000*%
%ADD17C,0.152400*%
D10*
X451367Y66517D03*
X375167Y523717D03*
X298967Y91917D03*
D11*
X298967Y66517D03*
D12*
X298967Y117317D03*
X400567Y523717D03*
D13*
X425967Y523717D03*
X349767Y523717D03*
X324367Y523717D03*
X298967Y396717D03*
X451367Y396717D03*
X451367Y91917D03*
X451367Y117317D03*
X451367Y142717D03*
X451367Y168117D03*
X451367Y193517D03*
X451367Y218917D03*
X451367Y244317D03*
X451367Y269717D03*
X451367Y295117D03*
X451367Y320517D03*
X451367Y345917D03*
X451367Y371317D03*
X324367Y91917D03*
X298967Y371317D03*
X298967Y345917D03*
X298967Y320517D03*
X298967Y295117D03*
X298967Y269717D03*
X298967Y244317D03*
X298967Y218917D03*
X298967Y193517D03*
X298967Y168117D03*
X298967Y142717D03*
D12*
X451367Y422117D03*
D13*
X451367Y472917D03*
X451367Y498317D03*
X451367Y523717D03*
X451367Y549117D03*
X451367Y574517D03*
X451367Y599917D03*
X451367Y625317D03*
X451367Y650717D03*
X298967Y447517D03*
X298967Y472917D03*
X298967Y498317D03*
X298967Y523717D03*
X298967Y549117D03*
X298967Y574517D03*
X298967Y599917D03*
X298967Y625317D03*
X298967Y650717D03*
X421367Y130017D03*
X421367Y155417D03*
X421367Y180817D03*
X421367Y206217D03*
X421367Y231617D03*
X451367Y447517D03*
D10*
X298967Y422117D03*
D13*
X365167Y68817D03*
X385167Y68817D03*
D14*
X324367Y196217D03*
X344367Y196217D03*
X364367Y196217D03*
X324367Y216217D03*
X344367Y216217D03*
X364367Y216217D03*
D15*
X174117Y266700D03*
X239141Y266700D03*
D16*
X38100Y449580D02*
X38100Y464820D01*
X63500Y464820D02*
X63500Y449580D01*
X88900Y449580D02*
X88900Y464820D01*
X38100Y432816D02*
X38100Y417576D01*
X63500Y417576D02*
X63500Y432816D01*
X88900Y432816D02*
X88900Y417576D01*
X38100Y400812D02*
X38100Y385572D01*
X63500Y385572D02*
X63500Y400812D01*
X88900Y400812D02*
X88900Y385572D01*
X38100Y368808D02*
X38100Y353568D01*
X63500Y353568D02*
X63500Y368808D01*
X88900Y368808D02*
X88900Y353568D01*
X38100Y336804D02*
X38100Y321564D01*
X63500Y321564D02*
X63500Y336804D01*
X88900Y336804D02*
X88900Y321564D01*
X38100Y302768D02*
X38100Y287528D01*
X63500Y287528D02*
X63500Y302768D01*
X88900Y302768D02*
X88900Y287528D01*
X38100Y268732D02*
X38100Y253492D01*
X63500Y253492D02*
X63500Y268732D01*
X88900Y268732D02*
X88900Y253492D01*
X260858Y627380D02*
X260858Y642620D01*
X235458Y642620D02*
X235458Y627380D01*
X210058Y627380D02*
X210058Y642620D01*
X184658Y642620D02*
X184658Y627380D01*
X159258Y627380D02*
X159258Y642620D01*
X133858Y642620D02*
X133858Y627380D01*
X108458Y627380D02*
X108458Y642620D01*
X83058Y642620D02*
X83058Y627380D01*
X57658Y627380D02*
X57658Y642620D01*
X32258Y642620D02*
X32258Y627380D01*
X266700Y375920D02*
X266700Y360680D01*
X241300Y360680D02*
X241300Y375920D01*
X215900Y375920D02*
X215900Y360680D01*
X190500Y360680D02*
X190500Y375920D01*
X165100Y375920D02*
X165100Y360680D01*
X139700Y360680D02*
X139700Y375920D01*
X114300Y234696D02*
X114300Y219456D01*
X88900Y219456D02*
X88900Y234696D01*
X63500Y234696D02*
X63500Y219456D01*
X38100Y219456D02*
X38100Y234696D01*
D17*
X190000Y175000D02*
X295000Y70000D01*
X190000Y175000D02*
X190000Y280000D01*
X165000Y280000D01*
X115000Y230000D01*
X295000Y70000D02*
X298967Y66517D01*
X114300Y227076D02*
X115000Y230000D01*
X65000Y245000D02*
X65000Y260000D01*
X65000Y245000D02*
X70000Y245000D01*
X75000Y240000D01*
X75000Y205000D01*
X90000Y205000D01*
X110000Y225000D01*
X65000Y260000D02*
X63500Y261112D01*
X110000Y225000D02*
X114300Y227076D01*
X245000Y370000D02*
X295000Y420000D01*
X298967Y422117D01*
X245000Y370000D02*
X241300Y368300D01*
X170000Y265000D02*
X170000Y200000D01*
X65000Y200000D01*
X40000Y225000D01*
X170000Y265000D02*
X174117Y266700D01*
X40000Y225000D02*
X38100Y227076D01*
X80000Y480000D02*
X235000Y635000D01*
X80000Y480000D02*
X55000Y480000D01*
X35000Y460000D01*
X235000Y635000D02*
X235458Y635000D01*
X38100Y457200D02*
X35000Y460000D01*
X415000Y385000D02*
X450000Y420000D01*
X415000Y385000D02*
X285000Y385000D01*
X270000Y370000D01*
X450000Y420000D02*
X451367Y422117D01*
X270000Y370000D02*
X266700Y368300D01*
X300000Y550000D02*
X300000Y560000D01*
X310000Y570000D01*
X310000Y640000D01*
X280000Y640000D01*
X265000Y655000D01*
X105000Y655000D01*
X85000Y635000D01*
X298967Y549117D02*
X300000Y550000D01*
X85000Y635000D02*
X83058Y635000D01*
X145000Y475000D02*
X295000Y625000D01*
X145000Y475000D02*
X55000Y475000D01*
X50000Y470000D01*
X50000Y230000D01*
X60000Y230000D01*
X295000Y625000D02*
X298967Y625317D01*
X60000Y230000D02*
X63500Y227076D01*
X455000Y155000D02*
X455000Y145000D01*
X455000Y155000D02*
X490000Y190000D01*
X490000Y460000D01*
X90000Y460000D01*
X451367Y142717D02*
X455000Y145000D01*
X88900Y457200D02*
X90000Y460000D01*
X455000Y180000D02*
X455000Y170000D01*
X455000Y180000D02*
X485000Y210000D01*
X485000Y435000D01*
X95000Y435000D01*
X90000Y430000D01*
X451367Y168117D02*
X455000Y170000D01*
X88900Y425196D02*
X90000Y430000D01*
X455000Y205000D02*
X455000Y195000D01*
X455000Y205000D02*
X480000Y230000D01*
X480000Y335000D01*
X145000Y335000D01*
X90000Y390000D01*
X451367Y193517D02*
X455000Y195000D01*
X90000Y390000D02*
X88900Y393192D01*
X455000Y230000D02*
X455000Y220000D01*
X455000Y230000D02*
X475000Y250000D01*
X475000Y310000D01*
X140000Y310000D01*
X90000Y360000D01*
X451367Y218917D02*
X455000Y220000D01*
X90000Y360000D02*
X88900Y361188D01*
X455000Y245000D02*
X460000Y250000D01*
X465000Y250000D01*
X470000Y255000D01*
X470000Y305000D01*
X110000Y305000D01*
X90000Y325000D01*
X451367Y244317D02*
X455000Y245000D01*
X90000Y325000D02*
X88900Y329184D01*
X455000Y295000D02*
X455000Y280000D01*
X465000Y270000D01*
X465000Y255000D01*
X270000Y255000D01*
X240000Y285000D01*
X110000Y285000D01*
X90000Y265000D01*
X451367Y295117D02*
X455000Y295000D01*
X90000Y265000D02*
X88900Y261112D01*
X435000Y285000D02*
X450000Y270000D01*
X435000Y285000D02*
X245000Y285000D01*
X235000Y295000D01*
X90000Y295000D01*
X450000Y270000D02*
X451367Y269717D01*
X90000Y295000D02*
X88900Y295148D01*
M02*
