G04 EAGLE Gerber RS-274X export*
G75*
%MOMM*%
%FSLAX34Y34*%
%LPD*%
%IN*%
%IPPOS*%
%AMOC8*
5,1,8,0,0,1.08239X$1,22.5*%
G01*
G04 Define Apertures*
%ADD10C,0.254000*%
D10*
X0Y35000D02*
X133Y31950D01*
X532Y28922D01*
X1193Y25941D01*
X2111Y23029D01*
X3279Y20208D01*
X4689Y17500D01*
X6330Y14925D01*
X8188Y12502D01*
X10251Y10251D01*
X12502Y8188D01*
X14925Y6330D01*
X17500Y4689D01*
X20208Y3279D01*
X23029Y2111D01*
X25941Y1193D01*
X28922Y532D01*
X31950Y133D01*
X35000Y0D01*
X485000Y0D01*
X488050Y133D01*
X491078Y532D01*
X494059Y1193D01*
X496971Y2111D01*
X499792Y3279D01*
X502500Y4689D01*
X505075Y6330D01*
X507498Y8188D01*
X509749Y10251D01*
X511812Y12502D01*
X513670Y14925D01*
X515311Y17500D01*
X516721Y20208D01*
X517889Y23029D01*
X518807Y25941D01*
X519468Y28922D01*
X519867Y31950D01*
X520000Y35000D01*
X520000Y35024D01*
X520000Y685409D01*
X519831Y688457D01*
X519397Y691480D01*
X518701Y694453D01*
X517749Y697354D01*
X516547Y700161D01*
X515106Y702852D01*
X513435Y705408D01*
X511548Y707808D01*
X509459Y710035D01*
X507184Y712071D01*
X504740Y713902D01*
X502145Y715512D01*
X499421Y716890D01*
X496586Y718025D01*
X493664Y718909D01*
X490675Y719535D01*
X487643Y719898D01*
X485000Y719998D01*
X33470Y719967D01*
X30429Y719700D01*
X27422Y719170D01*
X24473Y718379D01*
X21603Y717335D01*
X18836Y716044D01*
X16192Y714517D01*
X13691Y712766D01*
X11352Y710803D01*
X9193Y708644D01*
X7231Y706304D01*
X5480Y703803D01*
X3953Y701159D01*
X2663Y698391D01*
X1619Y695522D01*
X829Y692573D01*
X299Y689566D01*
X33Y686524D01*
X0Y685000D01*
X0Y35000D01*
X52500Y684427D02*
X52500Y685573D01*
X52425Y686716D01*
X52276Y687852D01*
X52052Y688976D01*
X51755Y690083D01*
X51387Y691168D01*
X50949Y692226D01*
X50442Y693254D01*
X49869Y694246D01*
X49232Y695199D01*
X48535Y696108D01*
X47779Y696969D01*
X46969Y697779D01*
X46108Y698535D01*
X45199Y699232D01*
X44246Y699869D01*
X43254Y700442D01*
X42226Y700949D01*
X41168Y701387D01*
X40083Y701755D01*
X38976Y702052D01*
X37852Y702276D01*
X36716Y702425D01*
X35573Y702500D01*
X34427Y702500D01*
X33284Y702425D01*
X32148Y702276D01*
X31024Y702052D01*
X29917Y701755D01*
X28832Y701387D01*
X27774Y700949D01*
X26746Y700442D01*
X25754Y699869D01*
X24801Y699232D01*
X23892Y698535D01*
X23031Y697779D01*
X22221Y696969D01*
X21465Y696108D01*
X20768Y695199D01*
X20131Y694246D01*
X19558Y693254D01*
X19051Y692226D01*
X18613Y691168D01*
X18245Y690083D01*
X17948Y688976D01*
X17725Y687852D01*
X17575Y686716D01*
X17500Y685573D01*
X17500Y684427D01*
X17575Y683284D01*
X17725Y682148D01*
X17948Y681024D01*
X18245Y679917D01*
X18613Y678832D01*
X19051Y677774D01*
X19558Y676746D01*
X20131Y675754D01*
X20768Y674801D01*
X21465Y673892D01*
X22221Y673031D01*
X23031Y672221D01*
X23892Y671465D01*
X24801Y670768D01*
X25754Y670131D01*
X26746Y669558D01*
X27774Y669051D01*
X28832Y668613D01*
X29917Y668245D01*
X31024Y667948D01*
X32148Y667725D01*
X33284Y667575D01*
X34427Y667500D01*
X35573Y667500D01*
X36716Y667575D01*
X37852Y667725D01*
X38976Y667948D01*
X40083Y668245D01*
X41168Y668613D01*
X42226Y669051D01*
X43254Y669558D01*
X44246Y670131D01*
X45199Y670768D01*
X46108Y671465D01*
X46969Y672221D01*
X47779Y673031D01*
X48535Y673892D01*
X49232Y674801D01*
X49869Y675754D01*
X50442Y676746D01*
X50949Y677774D01*
X51387Y678832D01*
X51755Y679917D01*
X52052Y681024D01*
X52276Y682148D01*
X52425Y683284D01*
X52500Y684427D01*
X52500Y34427D02*
X52500Y35573D01*
X52425Y36716D01*
X52276Y37852D01*
X52052Y38976D01*
X51755Y40083D01*
X51387Y41168D01*
X50949Y42226D01*
X50442Y43254D01*
X49869Y44246D01*
X49232Y45199D01*
X48535Y46108D01*
X47779Y46969D01*
X46969Y47779D01*
X46108Y48535D01*
X45199Y49232D01*
X44246Y49869D01*
X43254Y50442D01*
X42226Y50949D01*
X41168Y51387D01*
X40083Y51755D01*
X38976Y52052D01*
X37852Y52276D01*
X36716Y52425D01*
X35573Y52500D01*
X34427Y52500D01*
X33284Y52425D01*
X32148Y52276D01*
X31024Y52052D01*
X29917Y51755D01*
X28832Y51387D01*
X27774Y50949D01*
X26746Y50442D01*
X25754Y49869D01*
X24801Y49232D01*
X23892Y48535D01*
X23031Y47779D01*
X22221Y46969D01*
X21465Y46108D01*
X20768Y45199D01*
X20131Y44246D01*
X19558Y43254D01*
X19051Y42226D01*
X18613Y41168D01*
X18245Y40083D01*
X17948Y38976D01*
X17725Y37852D01*
X17575Y36716D01*
X17500Y35573D01*
X17500Y34427D01*
X17575Y33284D01*
X17725Y32148D01*
X17948Y31024D01*
X18245Y29917D01*
X18613Y28832D01*
X19051Y27774D01*
X19558Y26746D01*
X20131Y25754D01*
X20768Y24801D01*
X21465Y23892D01*
X22221Y23031D01*
X23031Y22221D01*
X23892Y21465D01*
X24801Y20768D01*
X25754Y20131D01*
X26746Y19558D01*
X27774Y19051D01*
X28832Y18613D01*
X29917Y18245D01*
X31024Y17948D01*
X32148Y17725D01*
X33284Y17575D01*
X34427Y17500D01*
X35573Y17500D01*
X36716Y17575D01*
X37852Y17725D01*
X38976Y17948D01*
X40083Y18245D01*
X41168Y18613D01*
X42226Y19051D01*
X43254Y19558D01*
X44246Y20131D01*
X45199Y20768D01*
X46108Y21465D01*
X46969Y22221D01*
X47779Y23031D01*
X48535Y23892D01*
X49232Y24801D01*
X49869Y25754D01*
X50442Y26746D01*
X50949Y27774D01*
X51387Y28832D01*
X51755Y29917D01*
X52052Y31024D01*
X52276Y32148D01*
X52425Y33284D01*
X52500Y34427D01*
X502400Y34430D02*
X502400Y35570D01*
X502326Y36706D01*
X502177Y37836D01*
X501955Y38953D01*
X501660Y40054D01*
X501294Y41132D01*
X500858Y42185D01*
X500354Y43207D01*
X499784Y44193D01*
X499151Y45141D01*
X498458Y46044D01*
X497706Y46901D01*
X496901Y47706D01*
X496044Y48458D01*
X495141Y49151D01*
X494193Y49784D01*
X493207Y50354D01*
X492185Y50858D01*
X491132Y51294D01*
X490054Y51660D01*
X488953Y51955D01*
X487836Y52177D01*
X486706Y52326D01*
X485570Y52400D01*
X484430Y52400D01*
X483294Y52326D01*
X482164Y52177D01*
X481047Y51955D01*
X479946Y51660D01*
X478868Y51294D01*
X477815Y50858D01*
X476793Y50354D01*
X475807Y49784D01*
X474859Y49151D01*
X473956Y48458D01*
X473099Y47706D01*
X472294Y46901D01*
X471542Y46044D01*
X470849Y45141D01*
X470216Y44193D01*
X469646Y43207D01*
X469142Y42185D01*
X468707Y41132D01*
X468340Y40054D01*
X468045Y38953D01*
X467823Y37836D01*
X467675Y36706D01*
X467600Y35570D01*
X467600Y34430D01*
X467675Y33294D01*
X467823Y32164D01*
X468045Y31047D01*
X468340Y29946D01*
X468707Y28868D01*
X469142Y27815D01*
X469646Y26793D01*
X470216Y25807D01*
X470849Y24859D01*
X471542Y23956D01*
X472294Y23099D01*
X473099Y22294D01*
X473956Y21542D01*
X474859Y20849D01*
X475807Y20216D01*
X476793Y19646D01*
X477815Y19142D01*
X478868Y18707D01*
X479946Y18340D01*
X481047Y18045D01*
X482164Y17823D01*
X483294Y17675D01*
X484430Y17600D01*
X485570Y17600D01*
X486706Y17675D01*
X487836Y17823D01*
X488953Y18045D01*
X490054Y18340D01*
X491132Y18707D01*
X492185Y19142D01*
X493207Y19646D01*
X494193Y20216D01*
X495141Y20849D01*
X496044Y21542D01*
X496901Y22294D01*
X497706Y23099D01*
X498458Y23956D01*
X499151Y24859D01*
X499784Y25807D01*
X500354Y26793D01*
X500858Y27815D01*
X501294Y28868D01*
X501660Y29946D01*
X501955Y31047D01*
X502177Y32164D01*
X502326Y33294D01*
X502400Y34430D01*
X502502Y684425D02*
X502502Y685571D01*
X502427Y686714D01*
X502278Y687850D01*
X502054Y688974D01*
X501758Y690080D01*
X501390Y691165D01*
X500951Y692224D01*
X500444Y693251D01*
X499871Y694244D01*
X499235Y695196D01*
X498537Y696105D01*
X497782Y696967D01*
X496972Y697777D01*
X496110Y698533D01*
X495201Y699230D01*
X494249Y699867D01*
X493256Y700439D01*
X492229Y700946D01*
X491170Y701385D01*
X490085Y701753D01*
X488978Y702050D01*
X487855Y702273D01*
X486719Y702423D01*
X485575Y702498D01*
X484430Y702498D01*
X483286Y702423D01*
X482150Y702273D01*
X481026Y702050D01*
X479920Y701753D01*
X478835Y701385D01*
X477776Y700946D01*
X476749Y700439D01*
X475756Y699867D01*
X474804Y699230D01*
X473895Y698533D01*
X473033Y697777D01*
X472223Y696967D01*
X471467Y696105D01*
X470770Y695196D01*
X470133Y694244D01*
X469561Y693251D01*
X469054Y692224D01*
X468615Y691165D01*
X468247Y690080D01*
X467950Y688974D01*
X467727Y687850D01*
X467577Y686714D01*
X467502Y685571D01*
X467502Y684425D01*
X467577Y683281D01*
X467727Y682145D01*
X467950Y681022D01*
X468247Y679915D01*
X468615Y678830D01*
X469054Y677771D01*
X469561Y676744D01*
X470133Y675751D01*
X470770Y674799D01*
X471467Y673890D01*
X472223Y673028D01*
X473033Y672218D01*
X473895Y671463D01*
X474804Y670765D01*
X475756Y670129D01*
X476749Y669556D01*
X477776Y669049D01*
X478835Y668610D01*
X479920Y668242D01*
X481026Y667946D01*
X482150Y667722D01*
X483286Y667573D01*
X484430Y667498D01*
X485575Y667498D01*
X486719Y667573D01*
X487855Y667722D01*
X488978Y667946D01*
X490085Y668242D01*
X491170Y668610D01*
X492229Y669049D01*
X493256Y669556D01*
X494249Y670129D01*
X495201Y670765D01*
X496110Y671463D01*
X496972Y672218D01*
X497782Y673028D01*
X498537Y673890D01*
X499235Y674799D01*
X499871Y675751D01*
X500444Y676744D01*
X500951Y677771D01*
X501390Y678830D01*
X501758Y679915D01*
X502054Y681022D01*
X502278Y682145D01*
X502427Y683281D01*
X502502Y684425D01*
M02*
