G04 EAGLE Gerber RS-274X export*
G75*
%MOMM*%
%FSLAX34Y34*%
%LPD*%
%INSilkscreen Top*%
%IPPOS*%
%AMOC8*
5,1,8,0,0,1.08239X$1,22.5*%
G01*
G04 Define Apertures*
%ADD10C,0.127000*%
%ADD11C,0.152400*%
G36*
X38642Y478412D02*
X39006Y478446D01*
X39346Y478503D01*
X39665Y478583D01*
X39973Y478684D01*
X40282Y478805D01*
X40592Y478946D01*
X40903Y479106D01*
X40903Y482965D01*
X38174Y482965D01*
X38298Y482118D01*
X39891Y482118D01*
X39891Y479648D01*
X39524Y479478D01*
X39144Y479356D01*
X38753Y479284D01*
X38350Y479259D01*
X38088Y479272D01*
X37844Y479309D01*
X37616Y479371D01*
X37405Y479459D01*
X37211Y479571D01*
X37035Y479708D01*
X36875Y479870D01*
X36733Y480056D01*
X36608Y480270D01*
X36499Y480513D01*
X36407Y480786D01*
X36332Y481088D01*
X36273Y481419D01*
X36231Y481779D01*
X36206Y482169D01*
X36198Y482588D01*
X36218Y483154D01*
X36277Y483665D01*
X36377Y484119D01*
X36515Y484517D01*
X36687Y484862D01*
X36883Y485155D01*
X37104Y485396D01*
X37351Y485585D01*
X37616Y485728D01*
X37896Y485830D01*
X38190Y485891D01*
X38498Y485911D01*
X38742Y485901D01*
X38975Y485870D01*
X39198Y485819D01*
X39409Y485747D01*
X39612Y485653D01*
X39811Y485536D01*
X40004Y485397D01*
X40191Y485235D01*
X40809Y485876D01*
X40557Y486090D01*
X40302Y486274D01*
X40043Y486427D01*
X39780Y486549D01*
X39501Y486643D01*
X39193Y486710D01*
X38857Y486751D01*
X38492Y486764D01*
X38269Y486757D01*
X38050Y486734D01*
X37835Y486697D01*
X37623Y486645D01*
X37416Y486578D01*
X37213Y486496D01*
X36818Y486288D01*
X36630Y486161D01*
X36451Y486020D01*
X36281Y485865D01*
X36121Y485694D01*
X35829Y485310D01*
X35574Y484867D01*
X35464Y484625D01*
X35369Y484371D01*
X35288Y484104D01*
X35222Y483826D01*
X35170Y483535D01*
X35133Y483231D01*
X35111Y482916D01*
X35104Y482588D01*
X35110Y482251D01*
X35128Y481928D01*
X35158Y481618D01*
X35200Y481322D01*
X35254Y481039D01*
X35321Y480770D01*
X35399Y480515D01*
X35489Y480274D01*
X35702Y479834D01*
X35823Y479637D01*
X35955Y479453D01*
X36096Y479285D01*
X36247Y479131D01*
X36409Y478993D01*
X36580Y478868D01*
X36761Y478759D01*
X36950Y478664D01*
X37147Y478583D01*
X37352Y478518D01*
X37566Y478467D01*
X37788Y478430D01*
X38018Y478408D01*
X38256Y478401D01*
X38642Y478412D01*
G37*
G36*
X60089Y478422D02*
X60463Y478485D01*
X60811Y478589D01*
X61134Y478736D01*
X61426Y478921D01*
X61684Y479140D01*
X61906Y479394D01*
X62092Y479683D01*
X62240Y480001D01*
X62346Y480343D01*
X62410Y480710D01*
X62431Y481100D01*
X62414Y481484D01*
X62362Y481839D01*
X62277Y482167D01*
X62157Y482468D01*
X62006Y482737D01*
X61827Y482973D01*
X61620Y483174D01*
X61384Y483341D01*
X61124Y483472D01*
X60843Y483566D01*
X60541Y483622D01*
X60219Y483641D01*
X59850Y483622D01*
X59508Y483565D01*
X59171Y483459D01*
X58819Y483294D01*
X58819Y485847D01*
X62019Y485847D01*
X62166Y486635D01*
X57878Y486635D01*
X57878Y482588D01*
X58672Y482588D01*
X59035Y482714D01*
X59334Y482797D01*
X59619Y482843D01*
X59937Y482859D01*
X60099Y482852D01*
X60253Y482833D01*
X60398Y482802D01*
X60535Y482757D01*
X60783Y482631D01*
X60999Y482453D01*
X61092Y482344D01*
X61172Y482218D01*
X61240Y482077D01*
X61296Y481919D01*
X61340Y481746D01*
X61371Y481556D01*
X61389Y481351D01*
X61396Y481130D01*
X61389Y480903D01*
X61368Y480690D01*
X61333Y480491D01*
X61285Y480306D01*
X61222Y480135D01*
X61146Y479978D01*
X61056Y479835D01*
X60951Y479706D01*
X60835Y479592D01*
X60707Y479493D01*
X60568Y479409D01*
X60417Y479340D01*
X60255Y479287D01*
X60082Y479249D01*
X59897Y479226D01*
X59702Y479218D01*
X59446Y479230D01*
X59202Y479264D01*
X58969Y479321D01*
X58749Y479401D01*
X58538Y479504D01*
X58336Y479633D01*
X58141Y479787D01*
X57955Y479965D01*
X57343Y479377D01*
X57595Y479153D01*
X57857Y478957D01*
X58129Y478790D01*
X58411Y478651D01*
X58706Y478541D01*
X59017Y478463D01*
X59345Y478416D01*
X59690Y478401D01*
X60089Y478422D01*
G37*
G36*
X70270Y486635D02*
X69240Y486635D01*
X67052Y479695D01*
X64888Y486635D01*
X63788Y486635D01*
X66500Y478536D01*
X67558Y478536D01*
X70270Y486635D01*
G37*
G36*
X89167Y478420D02*
X89581Y478476D01*
X89962Y478569D01*
X90312Y478701D01*
X90626Y478866D01*
X90900Y479060D01*
X91135Y479285D01*
X91330Y479539D01*
X91483Y479818D01*
X91592Y480117D01*
X91658Y480437D01*
X91680Y480777D01*
X91660Y481128D01*
X91602Y481447D01*
X91504Y481732D01*
X91368Y481985D01*
X91200Y482210D01*
X91008Y482409D01*
X90791Y482583D01*
X90550Y482732D01*
X90283Y482865D01*
X89989Y482990D01*
X89666Y483108D01*
X89315Y483218D01*
X88611Y483446D01*
X88086Y483659D01*
X87884Y483764D01*
X87712Y483875D01*
X87572Y483991D01*
X87463Y484112D01*
X87380Y484242D01*
X87321Y484387D01*
X87286Y484545D01*
X87274Y484717D01*
X87288Y484904D01*
X87328Y485076D01*
X87395Y485233D01*
X87489Y485376D01*
X87606Y485503D01*
X87742Y485612D01*
X87897Y485704D01*
X88071Y485779D01*
X88260Y485837D01*
X88460Y485878D01*
X88671Y485903D01*
X88892Y485911D01*
X89157Y485900D01*
X89418Y485866D01*
X89675Y485809D01*
X89927Y485729D01*
X90172Y485626D01*
X90406Y485500D01*
X90630Y485350D01*
X90844Y485176D01*
X91444Y485841D01*
X91176Y486056D01*
X90895Y486243D01*
X90601Y486401D01*
X90294Y486532D01*
X89970Y486633D01*
X89622Y486706D01*
X89251Y486750D01*
X88856Y486764D01*
X88485Y486747D01*
X88134Y486697D01*
X87804Y486614D01*
X87495Y486496D01*
X87213Y486350D01*
X86964Y486177D01*
X86748Y485979D01*
X86566Y485755D01*
X86420Y485511D01*
X86316Y485250D01*
X86254Y484974D01*
X86233Y484682D01*
X86253Y484382D01*
X86311Y484106D01*
X86407Y483853D01*
X86542Y483623D01*
X86712Y483414D01*
X86915Y483223D01*
X87149Y483048D01*
X87415Y482891D01*
X87717Y482745D01*
X88055Y482605D01*
X88431Y482470D01*
X88845Y482341D01*
X89465Y482133D01*
X89716Y482028D01*
X89927Y481921D01*
X90104Y481810D01*
X90253Y481692D01*
X90373Y481567D01*
X90465Y481436D01*
X90533Y481292D01*
X90582Y481131D01*
X90611Y480954D01*
X90621Y480759D01*
X90605Y480524D01*
X90556Y480309D01*
X90475Y480111D01*
X90362Y479933D01*
X90222Y479774D01*
X90061Y479637D01*
X89878Y479522D01*
X89674Y479427D01*
X89454Y479354D01*
X89225Y479301D01*
X88987Y479270D01*
X88739Y479259D01*
X88393Y479273D01*
X88068Y479315D01*
X87762Y479383D01*
X87477Y479480D01*
X87209Y479603D01*
X86955Y479750D01*
X86714Y479922D01*
X86486Y480118D01*
X85880Y479436D01*
X86152Y479200D01*
X86449Y478994D01*
X86773Y478817D01*
X87121Y478668D01*
X87493Y478551D01*
X87883Y478468D01*
X88293Y478417D01*
X88721Y478401D01*
X89167Y478420D01*
G37*
G36*
X12345Y451303D02*
X12443Y450988D01*
X12574Y450704D01*
X12739Y450452D01*
X12937Y450232D01*
X13166Y450052D01*
X13423Y449924D01*
X13707Y449847D01*
X13860Y449828D01*
X14019Y449822D01*
X14222Y449831D01*
X14413Y449858D01*
X14590Y449903D01*
X14755Y449967D01*
X14908Y450048D01*
X15047Y450148D01*
X15174Y450266D01*
X15289Y450401D01*
X15390Y450555D01*
X15478Y450725D01*
X15552Y450913D01*
X15613Y451117D01*
X15660Y451338D01*
X15694Y451577D01*
X15714Y451832D01*
X15721Y452105D01*
X15721Y453665D01*
X9652Y453665D01*
X9652Y452898D01*
X12257Y452898D01*
X12257Y452078D01*
X9652Y450421D01*
X9652Y449505D01*
X12345Y451303D01*
G37*
G36*
X15721Y456051D02*
X13156Y456051D01*
X13156Y458342D01*
X15721Y458342D01*
X15721Y459105D01*
X9652Y459105D01*
X9652Y458342D01*
X12530Y458342D01*
X12530Y456051D01*
X9652Y456051D01*
X9652Y455288D01*
X15721Y455288D01*
X15721Y456051D01*
G37*
G36*
X15721Y464769D02*
X15064Y464769D01*
X15064Y462874D01*
X9652Y462874D01*
X9652Y462112D01*
X15064Y462112D01*
X15064Y460270D01*
X15721Y460190D01*
X15721Y464769D01*
G37*
%LPC*%
G36*
X13734Y450663D02*
X13491Y450729D01*
X13290Y450837D01*
X13131Y450990D01*
X13011Y451184D01*
X12925Y451420D01*
X12873Y451698D01*
X12856Y452017D01*
X12856Y452898D01*
X15112Y452898D01*
X15112Y452017D01*
X15096Y451685D01*
X15048Y451401D01*
X14967Y451164D01*
X14855Y450974D01*
X14706Y450829D01*
X14517Y450725D01*
X14288Y450662D01*
X14019Y450642D01*
X13734Y450663D01*
G37*
%LPD*%
G36*
X15721Y436588D02*
X15721Y437567D01*
X9652Y439541D01*
X9652Y438788D01*
X11199Y438303D01*
X11199Y435901D01*
X9652Y435416D01*
X9652Y434614D01*
X15721Y436588D01*
G37*
G36*
X10265Y431409D02*
X15108Y431409D01*
X15108Y430060D01*
X15721Y430060D01*
X15721Y433533D01*
X15108Y433533D01*
X15108Y432184D01*
X10265Y432184D01*
X10265Y433533D01*
X9652Y433533D01*
X9652Y430060D01*
X10265Y430060D01*
X10265Y431409D01*
G37*
G36*
X10335Y427198D02*
X15721Y427198D01*
X15721Y427965D01*
X9652Y427965D01*
X9652Y424519D01*
X10335Y424431D01*
X10335Y427198D01*
G37*
%LPC*%
G36*
X11833Y438105D02*
X15077Y437095D01*
X11833Y436099D01*
X11833Y438105D01*
G37*
%LPD*%
G36*
X10265Y389186D02*
X12420Y389186D01*
X12420Y386939D01*
X13050Y386939D01*
X13050Y389186D01*
X15095Y389186D01*
X15095Y386595D01*
X15721Y386507D01*
X15721Y389953D01*
X9652Y389953D01*
X9652Y386428D01*
X10265Y386428D01*
X10265Y389186D01*
G37*
G36*
X10265Y399749D02*
X12420Y399749D01*
X12420Y397501D01*
X13050Y397501D01*
X13050Y399749D01*
X15095Y399749D01*
X15095Y397158D01*
X15721Y397069D01*
X15721Y400516D01*
X9652Y400516D01*
X9652Y396990D01*
X10265Y396990D01*
X10265Y399749D01*
G37*
G36*
X10335Y394380D02*
X15721Y394380D01*
X15721Y395146D01*
X9652Y395146D01*
X9652Y391700D01*
X10335Y391612D01*
X10335Y394380D01*
G37*
G36*
X13003Y360796D02*
X13275Y360814D01*
X13531Y360845D01*
X13770Y360888D01*
X13994Y360943D01*
X14201Y361010D01*
X14391Y361090D01*
X14566Y361182D01*
X14872Y361392D01*
X15126Y361631D01*
X15327Y361899D01*
X15476Y362195D01*
X15583Y362518D01*
X15659Y362864D01*
X15705Y363234D01*
X15721Y363628D01*
X15721Y364923D01*
X9652Y364923D01*
X9652Y363531D01*
X9662Y363247D01*
X9694Y362974D01*
X9746Y362713D01*
X9819Y362464D01*
X9914Y362226D01*
X10029Y361999D01*
X10165Y361784D01*
X10322Y361581D01*
X10506Y361395D01*
X10723Y361235D01*
X10972Y361099D01*
X11255Y360987D01*
X11571Y360901D01*
X11919Y360839D01*
X12301Y360802D01*
X12715Y360790D01*
X13003Y360796D01*
G37*
G36*
X12345Y372965D02*
X12443Y372650D01*
X12574Y372367D01*
X12739Y372115D01*
X12937Y371894D01*
X13166Y371715D01*
X13423Y371587D01*
X13707Y371510D01*
X13860Y371491D01*
X14019Y371484D01*
X14222Y371493D01*
X14413Y371521D01*
X14590Y371566D01*
X14755Y371629D01*
X14908Y371711D01*
X15047Y371810D01*
X15174Y371928D01*
X15289Y372064D01*
X15390Y372217D01*
X15478Y372388D01*
X15552Y372575D01*
X15613Y372779D01*
X15660Y373001D01*
X15694Y373239D01*
X15714Y373495D01*
X15721Y373767D01*
X15721Y375327D01*
X9652Y375327D01*
X9652Y374560D01*
X12257Y374560D01*
X12257Y373741D01*
X9652Y372084D01*
X9652Y371167D01*
X12345Y372965D01*
G37*
%LPC*%
G36*
X12385Y361613D02*
X12082Y361638D01*
X11804Y361678D01*
X11552Y361735D01*
X11326Y361809D01*
X11126Y361899D01*
X10952Y362005D01*
X10804Y362127D01*
X10678Y362262D01*
X10568Y362405D01*
X10475Y362556D01*
X10400Y362716D01*
X10340Y362884D01*
X10298Y363060D01*
X10273Y363245D01*
X10265Y363438D01*
X10265Y364161D01*
X15095Y364161D01*
X15095Y363447D01*
X15084Y363200D01*
X15052Y362967D01*
X14998Y362748D01*
X14923Y362541D01*
X14815Y362350D01*
X14663Y362175D01*
X14467Y362016D01*
X14227Y361874D01*
X13935Y361756D01*
X13586Y361672D01*
X13180Y361622D01*
X12715Y361605D01*
X12385Y361613D01*
G37*
%LPD*%
G36*
X15721Y367062D02*
X11591Y367062D01*
X11270Y367082D01*
X10992Y367142D01*
X10755Y367242D01*
X10560Y367382D01*
X10408Y367559D01*
X10299Y367773D01*
X10233Y368021D01*
X10212Y368305D01*
X10233Y368587D01*
X10299Y368835D01*
X10408Y369047D01*
X10560Y369224D01*
X10755Y369364D01*
X10992Y369464D01*
X11270Y369524D01*
X11591Y369544D01*
X15721Y369544D01*
X15721Y370302D01*
X11618Y370302D01*
X11320Y370287D01*
X11041Y370242D01*
X10780Y370167D01*
X10538Y370061D01*
X10317Y369928D01*
X10122Y369768D01*
X9954Y369582D01*
X9811Y369370D01*
X9697Y369134D01*
X9616Y368878D01*
X9567Y368601D01*
X9551Y368305D01*
X9567Y368011D01*
X9616Y367735D01*
X9697Y367479D01*
X9811Y367241D01*
X9954Y367026D01*
X10122Y366837D01*
X10317Y366674D01*
X10538Y366538D01*
X10780Y366430D01*
X11041Y366353D01*
X11320Y366307D01*
X11618Y366291D01*
X15721Y366291D01*
X15721Y367062D01*
G37*
%LPC*%
G36*
X13734Y372326D02*
X13491Y372391D01*
X13290Y372500D01*
X13131Y372652D01*
X13011Y372847D01*
X12925Y373083D01*
X12873Y373360D01*
X12856Y373679D01*
X12856Y374560D01*
X15112Y374560D01*
X15112Y373679D01*
X15096Y373348D01*
X15048Y373064D01*
X14967Y372827D01*
X14855Y372637D01*
X14706Y372491D01*
X14517Y372387D01*
X14288Y372325D01*
X14019Y372304D01*
X13734Y372326D01*
G37*
%LPD*%
G36*
X14083Y322660D02*
X14294Y322688D01*
X14491Y322736D01*
X14673Y322803D01*
X14841Y322889D01*
X14994Y322995D01*
X15132Y323119D01*
X15256Y323263D01*
X15365Y323424D01*
X15459Y323600D01*
X15539Y323793D01*
X15604Y324001D01*
X15655Y324225D01*
X15691Y324464D01*
X15713Y324719D01*
X15721Y324990D01*
X15721Y326541D01*
X9652Y326541D01*
X9652Y325775D01*
X11904Y325775D01*
X11904Y324999D01*
X11911Y324733D01*
X11933Y324481D01*
X11970Y324245D01*
X12021Y324022D01*
X12087Y323814D01*
X12168Y323621D01*
X12263Y323442D01*
X12373Y323278D01*
X12499Y323131D01*
X12642Y323003D01*
X12802Y322895D01*
X12979Y322807D01*
X13173Y322738D01*
X13384Y322689D01*
X13611Y322660D01*
X13856Y322650D01*
X14083Y322660D01*
G37*
G36*
X15721Y336901D02*
X9652Y336901D01*
X9652Y336143D01*
X12354Y336143D01*
X12354Y333763D01*
X12971Y333763D01*
X12971Y336143D01*
X15095Y336143D01*
X15095Y333420D01*
X15721Y333327D01*
X15721Y336901D01*
G37*
G36*
X10335Y330880D02*
X15721Y330880D01*
X15721Y331646D01*
X9652Y331646D01*
X9652Y328200D01*
X10335Y328112D01*
X10335Y330880D01*
G37*
%LPC*%
G36*
X13671Y323476D02*
X13509Y323493D01*
X13360Y323523D01*
X13224Y323565D01*
X13103Y323619D01*
X12994Y323684D01*
X12900Y323762D01*
X12818Y323851D01*
X12688Y324061D01*
X12595Y324311D01*
X12540Y324600D01*
X12521Y324928D01*
X12521Y325775D01*
X15112Y325775D01*
X15112Y324898D01*
X15094Y324583D01*
X15037Y324303D01*
X14944Y324059D01*
X14813Y323851D01*
X14640Y323684D01*
X14536Y323619D01*
X14422Y323565D01*
X14295Y323523D01*
X14157Y323493D01*
X14008Y323476D01*
X13848Y323470D01*
X13671Y323476D01*
G37*
%LPD*%
G36*
X149855Y73066D02*
X150135Y73113D01*
X150396Y73192D01*
X150638Y73302D01*
X150857Y73440D01*
X151050Y73605D01*
X151216Y73795D01*
X151356Y74011D01*
X151467Y74250D01*
X151546Y74506D01*
X151594Y74781D01*
X151610Y75073D01*
X151597Y75361D01*
X151558Y75627D01*
X151494Y75873D01*
X151405Y76098D01*
X151292Y76300D01*
X151157Y76477D01*
X151002Y76627D01*
X150825Y76753D01*
X150630Y76851D01*
X150420Y76921D01*
X150194Y76963D01*
X149952Y76977D01*
X149676Y76963D01*
X149419Y76920D01*
X149167Y76841D01*
X148904Y76717D01*
X148904Y78630D01*
X151301Y78630D01*
X151411Y79221D01*
X148198Y79221D01*
X148198Y76188D01*
X148793Y76188D01*
X149065Y76283D01*
X149289Y76345D01*
X149502Y76380D01*
X149741Y76391D01*
X149977Y76372D01*
X150189Y76315D01*
X150375Y76220D01*
X150536Y76087D01*
X150667Y75911D01*
X150760Y75687D01*
X150815Y75415D01*
X150834Y75096D01*
X150813Y74766D01*
X150751Y74479D01*
X150647Y74233D01*
X150501Y74029D01*
X150318Y73869D01*
X150101Y73755D01*
X149850Y73686D01*
X149565Y73663D01*
X149373Y73672D01*
X149190Y73697D01*
X149016Y73740D01*
X148851Y73800D01*
X148693Y73878D01*
X148541Y73974D01*
X148395Y74089D01*
X148256Y74223D01*
X147797Y73782D01*
X147986Y73614D01*
X148183Y73468D01*
X148386Y73342D01*
X148597Y73238D01*
X148818Y73156D01*
X149052Y73097D01*
X149298Y73062D01*
X149556Y73051D01*
X149855Y73066D01*
G37*
G36*
X157473Y79221D02*
X156701Y79221D01*
X155062Y74020D01*
X153440Y79221D01*
X152616Y79221D01*
X154648Y73152D01*
X155441Y73152D01*
X157473Y79221D01*
G37*
G36*
X208253Y73162D02*
X208526Y73194D01*
X208787Y73246D01*
X209036Y73319D01*
X209274Y73414D01*
X209501Y73529D01*
X209716Y73665D01*
X209919Y73822D01*
X210105Y74006D01*
X210265Y74223D01*
X210401Y74472D01*
X210513Y74755D01*
X210599Y75071D01*
X210661Y75419D01*
X210698Y75801D01*
X210710Y76215D01*
X210704Y76503D01*
X210686Y76775D01*
X210655Y77031D01*
X210612Y77270D01*
X210557Y77494D01*
X210490Y77701D01*
X210410Y77891D01*
X210318Y78066D01*
X210108Y78372D01*
X209869Y78626D01*
X209601Y78827D01*
X209305Y78976D01*
X208982Y79083D01*
X208636Y79159D01*
X208266Y79205D01*
X207872Y79221D01*
X206577Y79221D01*
X206577Y73152D01*
X207969Y73152D01*
X208253Y73162D01*
G37*
G36*
X202005Y76193D02*
X201985Y77032D01*
X201926Y78114D01*
X201908Y78366D01*
X201904Y78489D01*
X204041Y73152D01*
X205112Y73152D01*
X205112Y79221D01*
X204402Y79221D01*
X204402Y76184D01*
X204423Y75266D01*
X204486Y74179D01*
X204504Y73862D01*
X202331Y79221D01*
X201295Y79221D01*
X201295Y73152D01*
X202005Y73152D01*
X202005Y76193D01*
G37*
%LPC*%
G36*
X207339Y73765D02*
X207339Y78595D01*
X208053Y78595D01*
X208300Y78584D01*
X208533Y78552D01*
X208752Y78498D01*
X208959Y78423D01*
X209150Y78315D01*
X209325Y78163D01*
X209484Y77967D01*
X209626Y77727D01*
X209744Y77435D01*
X209828Y77086D01*
X209878Y76680D01*
X209895Y76215D01*
X209887Y75885D01*
X209862Y75582D01*
X209822Y75304D01*
X209765Y75052D01*
X209691Y74826D01*
X209601Y74626D01*
X209495Y74452D01*
X209373Y74304D01*
X209238Y74178D01*
X209095Y74068D01*
X208944Y73975D01*
X208784Y73900D01*
X208616Y73840D01*
X208440Y73798D01*
X208255Y73773D01*
X208062Y73765D01*
X207339Y73765D01*
G37*
%LPD*%
G36*
X198330Y73059D02*
X198603Y73085D01*
X198858Y73128D01*
X199097Y73187D01*
X199559Y73354D01*
X200025Y73579D01*
X200025Y76471D01*
X197980Y76471D01*
X198072Y75836D01*
X199267Y75836D01*
X199267Y73985D01*
X198991Y73858D01*
X198707Y73767D01*
X198414Y73712D01*
X198112Y73694D01*
X197916Y73703D01*
X197732Y73731D01*
X197561Y73778D01*
X197403Y73843D01*
X197258Y73927D01*
X197126Y74030D01*
X197007Y74151D01*
X196900Y74291D01*
X196806Y74451D01*
X196724Y74634D01*
X196656Y74838D01*
X196599Y75064D01*
X196555Y75312D01*
X196524Y75582D01*
X196505Y75874D01*
X196499Y76188D01*
X196514Y76613D01*
X196558Y76995D01*
X196633Y77335D01*
X196737Y77634D01*
X196865Y77892D01*
X197012Y78112D01*
X197178Y78292D01*
X197363Y78434D01*
X197562Y78541D01*
X197771Y78617D01*
X197991Y78663D01*
X198222Y78678D01*
X198405Y78671D01*
X198580Y78648D01*
X198747Y78609D01*
X198905Y78555D01*
X199057Y78485D01*
X199206Y78397D01*
X199491Y78172D01*
X199954Y78652D01*
X199765Y78812D01*
X199574Y78950D01*
X199380Y79065D01*
X199183Y79157D01*
X198974Y79227D01*
X198743Y79277D01*
X198491Y79307D01*
X198218Y79317D01*
X197886Y79295D01*
X197567Y79228D01*
X197260Y79117D01*
X196964Y78960D01*
X196688Y78760D01*
X196441Y78516D01*
X196222Y78228D01*
X196032Y77896D01*
X195877Y77524D01*
X195767Y77116D01*
X195701Y76670D01*
X195679Y76188D01*
X195697Y75693D01*
X195751Y75239D01*
X195842Y74826D01*
X195968Y74454D01*
X196127Y74125D01*
X196317Y73840D01*
X196536Y73598D01*
X196785Y73401D01*
X197062Y73248D01*
X197364Y73138D01*
X197690Y73073D01*
X198041Y73051D01*
X198330Y73059D01*
G37*
G36*
X15721Y299529D02*
X15721Y300507D01*
X9652Y302482D01*
X9652Y301728D01*
X11199Y301243D01*
X11199Y298842D01*
X9652Y298357D01*
X9652Y297555D01*
X15721Y299529D01*
G37*
G36*
X15721Y293503D02*
X11591Y293503D01*
X11270Y293523D01*
X10992Y293583D01*
X10755Y293683D01*
X10560Y293823D01*
X10408Y294000D01*
X10299Y294213D01*
X10233Y294462D01*
X10212Y294746D01*
X10233Y295028D01*
X10299Y295275D01*
X10408Y295487D01*
X10560Y295665D01*
X10755Y295805D01*
X10992Y295904D01*
X11270Y295964D01*
X11591Y295984D01*
X15721Y295984D01*
X15721Y296742D01*
X11618Y296742D01*
X11320Y296727D01*
X11041Y296682D01*
X10780Y296607D01*
X10538Y296502D01*
X10317Y296369D01*
X10122Y296209D01*
X9954Y296023D01*
X9811Y295810D01*
X9697Y295574D01*
X9616Y295318D01*
X9567Y295042D01*
X9551Y294746D01*
X9567Y294451D01*
X9616Y294176D01*
X9697Y293919D01*
X9811Y293682D01*
X9954Y293467D01*
X10122Y293278D01*
X10317Y293115D01*
X10538Y292979D01*
X10780Y292871D01*
X11041Y292794D01*
X11320Y292747D01*
X11618Y292732D01*
X15721Y292732D01*
X15721Y293503D01*
G37*
G36*
X12926Y289015D02*
X15721Y287292D01*
X15721Y288120D01*
X13389Y289456D01*
X15721Y290787D01*
X15721Y291664D01*
X12887Y289923D01*
X9652Y291827D01*
X9652Y291003D01*
X12393Y289473D01*
X9652Y287962D01*
X9652Y287085D01*
X12926Y289015D01*
G37*
G36*
X10256Y283527D02*
X15721Y283527D01*
X15721Y284175D01*
X14601Y285981D01*
X14072Y285660D01*
X14918Y284267D01*
X10256Y284267D01*
X10256Y285761D01*
X9652Y285761D01*
X9652Y282257D01*
X10256Y282257D01*
X10256Y283527D01*
G37*
%LPC*%
G36*
X11833Y301045D02*
X15077Y300036D01*
X11833Y299040D01*
X11833Y301045D01*
G37*
%LPD*%
G36*
X15721Y274129D02*
X15721Y275107D01*
X9652Y277082D01*
X9652Y276328D01*
X11199Y275843D01*
X11199Y273442D01*
X9652Y272957D01*
X9652Y272155D01*
X15721Y274129D01*
G37*
G36*
X15721Y268103D02*
X11591Y268103D01*
X11270Y268123D01*
X10992Y268183D01*
X10755Y268283D01*
X10560Y268423D01*
X10408Y268600D01*
X10299Y268813D01*
X10233Y269062D01*
X10212Y269346D01*
X10233Y269628D01*
X10299Y269875D01*
X10408Y270087D01*
X10560Y270265D01*
X10755Y270405D01*
X10992Y270504D01*
X11270Y270564D01*
X11591Y270584D01*
X15721Y270584D01*
X15721Y271342D01*
X11618Y271342D01*
X11320Y271327D01*
X11041Y271282D01*
X10780Y271207D01*
X10538Y271102D01*
X10317Y270969D01*
X10122Y270809D01*
X9954Y270623D01*
X9811Y270410D01*
X9697Y270174D01*
X9616Y269918D01*
X9567Y269642D01*
X9551Y269346D01*
X9567Y269051D01*
X9616Y268776D01*
X9697Y268519D01*
X9811Y268282D01*
X9954Y268067D01*
X10122Y267878D01*
X10317Y267715D01*
X10538Y267579D01*
X10780Y267471D01*
X11041Y267394D01*
X11320Y267347D01*
X11618Y267332D01*
X15721Y267332D01*
X15721Y268103D01*
G37*
G36*
X12926Y263615D02*
X15721Y261892D01*
X15721Y262720D01*
X13389Y264056D01*
X15721Y265387D01*
X15721Y266264D01*
X12887Y264523D01*
X9652Y266427D01*
X9652Y265603D01*
X12393Y264073D01*
X9652Y262562D01*
X9652Y261685D01*
X12926Y263615D01*
G37*
G36*
X10282Y259934D02*
X11158Y259003D01*
X11873Y258310D01*
X12184Y258042D01*
X12481Y257813D01*
X12766Y257624D01*
X13037Y257474D01*
X13303Y257361D01*
X13573Y257279D01*
X13847Y257231D01*
X14125Y257214D01*
X14361Y257228D01*
X14585Y257270D01*
X14795Y257338D01*
X14993Y257435D01*
X15175Y257557D01*
X15336Y257704D01*
X15477Y257874D01*
X15597Y258069D01*
X15694Y258286D01*
X15762Y258520D01*
X15804Y258773D01*
X15817Y259043D01*
X15804Y259335D01*
X15765Y259607D01*
X15698Y259859D01*
X15606Y260090D01*
X15486Y260307D01*
X15336Y260514D01*
X15157Y260711D01*
X14949Y260899D01*
X14553Y260388D01*
X14716Y260240D01*
X14854Y260094D01*
X14966Y259948D01*
X15053Y259804D01*
X15117Y259650D01*
X15164Y259478D01*
X15191Y259288D01*
X15200Y259079D01*
X15182Y258839D01*
X15127Y258626D01*
X15036Y258441D01*
X14907Y258283D01*
X14747Y258157D01*
X14559Y258067D01*
X14343Y258013D01*
X14099Y257995D01*
X13848Y258008D01*
X13605Y258050D01*
X13367Y258118D01*
X13136Y258215D01*
X12896Y258347D01*
X12634Y258523D01*
X12349Y258744D01*
X12041Y259008D01*
X11275Y259736D01*
X10256Y260775D01*
X9652Y260775D01*
X9652Y257166D01*
X10282Y257073D01*
X10282Y259934D01*
G37*
%LPC*%
G36*
X11833Y275645D02*
X15077Y274636D01*
X11833Y273640D01*
X11833Y275645D01*
G37*
%LPD*%
G36*
X69940Y164657D02*
X70759Y164657D01*
X72416Y162052D01*
X73333Y162052D01*
X71535Y164745D01*
X71850Y164843D01*
X72133Y164974D01*
X72385Y165139D01*
X72606Y165337D01*
X72785Y165566D01*
X72913Y165823D01*
X72990Y166107D01*
X73009Y166260D01*
X73016Y166419D01*
X73007Y166622D01*
X72979Y166813D01*
X72934Y166990D01*
X72871Y167155D01*
X72789Y167308D01*
X72690Y167447D01*
X72572Y167574D01*
X72436Y167689D01*
X72283Y167790D01*
X72112Y167878D01*
X71925Y167952D01*
X71721Y168013D01*
X71499Y168060D01*
X71261Y168094D01*
X71005Y168114D01*
X70733Y168121D01*
X69173Y168121D01*
X69173Y162052D01*
X69940Y162052D01*
X69940Y164657D01*
G37*
G36*
X76186Y164793D02*
X77698Y162052D01*
X78575Y162052D01*
X76644Y165326D01*
X78367Y168121D01*
X77539Y168121D01*
X76204Y165789D01*
X74873Y168121D01*
X73996Y168121D01*
X75736Y165287D01*
X73833Y162052D01*
X74657Y162052D01*
X76186Y164793D01*
G37*
G36*
X83402Y162656D02*
X82133Y162656D01*
X82133Y168121D01*
X81485Y168121D01*
X79678Y167001D01*
X80000Y166472D01*
X81392Y167318D01*
X81392Y162656D01*
X79898Y162656D01*
X79898Y162052D01*
X83402Y162052D01*
X83402Y162656D01*
G37*
%LPC*%
G36*
X69940Y165256D02*
X69940Y167512D01*
X70821Y167512D01*
X71152Y167496D01*
X71436Y167448D01*
X71673Y167367D01*
X71863Y167255D01*
X72009Y167106D01*
X72113Y166917D01*
X72175Y166688D01*
X72196Y166419D01*
X72174Y166134D01*
X72109Y165891D01*
X72000Y165690D01*
X71848Y165531D01*
X71653Y165411D01*
X71417Y165325D01*
X71140Y165273D01*
X70821Y165256D01*
X69940Y165256D01*
G37*
%LPD*%
G36*
X38086Y164793D02*
X39598Y162052D01*
X40475Y162052D01*
X38544Y165326D01*
X40267Y168121D01*
X39439Y168121D01*
X38104Y165789D01*
X36773Y168121D01*
X35896Y168121D01*
X37636Y165287D01*
X35733Y162052D01*
X36557Y162052D01*
X38086Y164793D01*
G37*
G36*
X45302Y162656D02*
X44033Y162656D01*
X44033Y168121D01*
X43385Y168121D01*
X41578Y167001D01*
X41900Y166472D01*
X43292Y167318D01*
X43292Y162656D01*
X41798Y162656D01*
X41798Y162052D01*
X45302Y162052D01*
X45302Y162656D01*
G37*
G36*
X33188Y167464D02*
X35030Y167464D01*
X35110Y168121D01*
X30531Y168121D01*
X30531Y167464D01*
X32426Y167464D01*
X32426Y162052D01*
X33188Y162052D01*
X33188Y167464D01*
G37*
G36*
X14083Y226341D02*
X14294Y226369D01*
X14491Y226417D01*
X14673Y226484D01*
X14841Y226570D01*
X14994Y226676D01*
X15132Y226800D01*
X15256Y226944D01*
X15365Y227105D01*
X15459Y227281D01*
X15539Y227474D01*
X15604Y227682D01*
X15655Y227906D01*
X15691Y228145D01*
X15713Y228400D01*
X15721Y228671D01*
X15721Y230223D01*
X9652Y230223D01*
X9652Y229456D01*
X11904Y229456D01*
X11904Y228680D01*
X11911Y228414D01*
X11933Y228163D01*
X11970Y227926D01*
X12021Y227703D01*
X12087Y227496D01*
X12168Y227302D01*
X12263Y227123D01*
X12373Y226959D01*
X12499Y226812D01*
X12642Y226684D01*
X12802Y226577D01*
X12979Y226488D01*
X13173Y226420D01*
X13384Y226370D01*
X13611Y226341D01*
X13856Y226331D01*
X14083Y226341D01*
G37*
G36*
X12971Y233820D02*
X12336Y233728D01*
X12336Y232534D01*
X10485Y232534D01*
X10358Y232809D01*
X10267Y233093D01*
X10212Y233386D01*
X10194Y233688D01*
X10203Y233884D01*
X10231Y234068D01*
X10278Y234239D01*
X10343Y234397D01*
X10427Y234542D01*
X10530Y234674D01*
X10651Y234793D01*
X10791Y234900D01*
X10951Y234994D01*
X11134Y235076D01*
X11338Y235144D01*
X11564Y235201D01*
X11812Y235245D01*
X12082Y235276D01*
X12374Y235295D01*
X12688Y235301D01*
X13113Y235286D01*
X13495Y235242D01*
X13835Y235167D01*
X14134Y235063D01*
X14392Y234935D01*
X14612Y234788D01*
X14792Y234622D01*
X14934Y234437D01*
X15041Y234238D01*
X15117Y234029D01*
X15163Y233809D01*
X15178Y233578D01*
X15171Y233395D01*
X15148Y233220D01*
X15109Y233053D01*
X15055Y232895D01*
X14985Y232743D01*
X14897Y232594D01*
X14672Y232309D01*
X15152Y231846D01*
X15312Y232035D01*
X15450Y232226D01*
X15565Y232420D01*
X15657Y232617D01*
X15727Y232826D01*
X15777Y233057D01*
X15807Y233309D01*
X15817Y233582D01*
X15795Y233914D01*
X15728Y234233D01*
X15617Y234541D01*
X15460Y234836D01*
X15260Y235112D01*
X15016Y235359D01*
X14728Y235578D01*
X14396Y235768D01*
X14024Y235923D01*
X13616Y236033D01*
X13170Y236099D01*
X12688Y236121D01*
X12193Y236103D01*
X11739Y236049D01*
X11326Y235958D01*
X10954Y235832D01*
X10625Y235673D01*
X10340Y235483D01*
X10098Y235264D01*
X9901Y235015D01*
X9748Y234738D01*
X9638Y234436D01*
X9573Y234110D01*
X9551Y233759D01*
X9559Y233470D01*
X9585Y233197D01*
X9628Y232942D01*
X9687Y232703D01*
X9854Y232241D01*
X10079Y231776D01*
X12971Y231776D01*
X12971Y233820D01*
G37*
G36*
X11594Y221245D02*
X11833Y221289D01*
X12047Y221362D01*
X12237Y221464D01*
X12405Y221590D01*
X12554Y221734D01*
X12685Y221896D01*
X12796Y222077D01*
X12990Y222498D01*
X13160Y223002D01*
X13331Y223530D01*
X13491Y223923D01*
X13653Y224203D01*
X13739Y224308D01*
X13830Y224390D01*
X13928Y224452D01*
X14036Y224496D01*
X14155Y224523D01*
X14284Y224532D01*
X14424Y224521D01*
X14553Y224491D01*
X14671Y224441D01*
X14777Y224371D01*
X14872Y224283D01*
X14954Y224181D01*
X15023Y224065D01*
X15079Y223934D01*
X15154Y223643D01*
X15172Y223485D01*
X15178Y223320D01*
X15170Y223121D01*
X15144Y222925D01*
X15102Y222733D01*
X15042Y222544D01*
X14965Y222360D01*
X14870Y222185D01*
X14758Y222017D01*
X14628Y221856D01*
X15126Y221407D01*
X15287Y221608D01*
X15427Y221818D01*
X15546Y222039D01*
X15643Y222269D01*
X15720Y222512D01*
X15774Y222773D01*
X15807Y223051D01*
X15817Y223346D01*
X15805Y223625D01*
X15767Y223888D01*
X15705Y224135D01*
X15617Y224366D01*
X15507Y224578D01*
X15378Y224764D01*
X15229Y224926D01*
X15062Y225063D01*
X14878Y225172D01*
X14683Y225249D01*
X14476Y225296D01*
X14257Y225312D01*
X14033Y225297D01*
X13825Y225254D01*
X13636Y225181D01*
X13464Y225080D01*
X13308Y224953D01*
X13164Y224801D01*
X13033Y224625D01*
X12915Y224426D01*
X12701Y223946D01*
X12503Y223355D01*
X12347Y222890D01*
X12188Y222544D01*
X12105Y222411D01*
X12017Y222300D01*
X11923Y222210D01*
X11825Y222141D01*
X11717Y222090D01*
X11597Y222053D01*
X11464Y222031D01*
X11318Y222024D01*
X11142Y222036D01*
X10980Y222072D01*
X10832Y222133D01*
X10699Y222218D01*
X10580Y222323D01*
X10477Y222444D01*
X10390Y222581D01*
X10320Y222733D01*
X10265Y222898D01*
X10225Y223069D01*
X10202Y223248D01*
X10194Y223434D01*
X10204Y223693D01*
X10235Y223937D01*
X10287Y224166D01*
X10359Y224379D01*
X10451Y224580D01*
X10562Y224771D01*
X10690Y224952D01*
X10837Y225122D01*
X10326Y225576D01*
X10150Y225372D01*
X9995Y225150D01*
X9862Y224907D01*
X9751Y224646D01*
X9663Y224368D01*
X9601Y224075D01*
X9563Y223769D01*
X9551Y223447D01*
X9565Y223113D01*
X9607Y222803D01*
X9677Y222517D01*
X9775Y222255D01*
X9899Y222020D01*
X10045Y221815D01*
X10213Y221639D01*
X10403Y221493D01*
X10613Y221378D01*
X10837Y221296D01*
X11076Y221247D01*
X11331Y221231D01*
X11594Y221245D01*
G37*
%LPC*%
G36*
X13671Y227157D02*
X13509Y227175D01*
X13360Y227205D01*
X13224Y227246D01*
X13103Y227300D01*
X12994Y227365D01*
X12900Y227443D01*
X12818Y227532D01*
X12688Y227742D01*
X12595Y227992D01*
X12540Y228281D01*
X12521Y228610D01*
X12521Y229456D01*
X15112Y229456D01*
X15112Y228579D01*
X15094Y228264D01*
X15037Y227984D01*
X14944Y227740D01*
X14813Y227532D01*
X14640Y227365D01*
X14536Y227300D01*
X14422Y227246D01*
X14295Y227205D01*
X14157Y227175D01*
X14008Y227157D01*
X13848Y227151D01*
X13671Y227157D01*
G37*
%LPD*%
G36*
X38512Y200059D02*
X38784Y200085D01*
X39039Y200128D01*
X39278Y200187D01*
X39740Y200354D01*
X40206Y200579D01*
X40206Y203471D01*
X38161Y203471D01*
X38253Y202836D01*
X39448Y202836D01*
X39448Y200985D01*
X39172Y200858D01*
X38888Y200767D01*
X38595Y200712D01*
X38293Y200694D01*
X38097Y200703D01*
X37913Y200731D01*
X37743Y200778D01*
X37585Y200843D01*
X37440Y200927D01*
X37307Y201030D01*
X37188Y201151D01*
X37081Y201291D01*
X36987Y201451D01*
X36906Y201634D01*
X36837Y201838D01*
X36780Y202064D01*
X36737Y202312D01*
X36705Y202582D01*
X36686Y202874D01*
X36680Y203188D01*
X36695Y203613D01*
X36740Y203995D01*
X36814Y204335D01*
X36918Y204634D01*
X37046Y204892D01*
X37194Y205112D01*
X37359Y205292D01*
X37544Y205434D01*
X37743Y205541D01*
X37953Y205617D01*
X38173Y205663D01*
X38403Y205678D01*
X38586Y205671D01*
X38761Y205648D01*
X38928Y205609D01*
X39086Y205555D01*
X39239Y205485D01*
X39387Y205397D01*
X39673Y205172D01*
X40135Y205652D01*
X39947Y205812D01*
X39755Y205950D01*
X39561Y206065D01*
X39364Y206157D01*
X39155Y206227D01*
X38924Y206277D01*
X38672Y206307D01*
X38399Y206317D01*
X38068Y206295D01*
X37748Y206228D01*
X37441Y206117D01*
X37145Y205960D01*
X36869Y205760D01*
X36622Y205516D01*
X36403Y205228D01*
X36213Y204896D01*
X36059Y204524D01*
X35949Y204116D01*
X35882Y203670D01*
X35860Y203188D01*
X35878Y202693D01*
X35933Y202239D01*
X36023Y201826D01*
X36149Y201454D01*
X36308Y201125D01*
X36498Y200840D01*
X36717Y200598D01*
X36967Y200401D01*
X37243Y200248D01*
X37545Y200138D01*
X37871Y200073D01*
X38223Y200051D01*
X38512Y200059D01*
G37*
G36*
X111755Y200066D02*
X112035Y200113D01*
X112296Y200192D01*
X112538Y200302D01*
X112757Y200440D01*
X112950Y200605D01*
X113116Y200795D01*
X113256Y201011D01*
X113367Y201250D01*
X113446Y201506D01*
X113494Y201781D01*
X113510Y202073D01*
X113497Y202361D01*
X113458Y202627D01*
X113394Y202873D01*
X113305Y203098D01*
X113192Y203300D01*
X113057Y203477D01*
X112902Y203627D01*
X112725Y203753D01*
X112530Y203851D01*
X112320Y203921D01*
X112094Y203963D01*
X111852Y203977D01*
X111576Y203963D01*
X111319Y203920D01*
X111067Y203841D01*
X110804Y203717D01*
X110804Y205630D01*
X113201Y205630D01*
X113311Y206221D01*
X110098Y206221D01*
X110098Y203188D01*
X110693Y203188D01*
X110965Y203283D01*
X111189Y203345D01*
X111402Y203380D01*
X111641Y203391D01*
X111877Y203372D01*
X112089Y203315D01*
X112275Y203220D01*
X112436Y203087D01*
X112567Y202911D01*
X112660Y202687D01*
X112715Y202415D01*
X112734Y202096D01*
X112713Y201766D01*
X112651Y201479D01*
X112547Y201233D01*
X112401Y201029D01*
X112218Y200869D01*
X112001Y200755D01*
X111750Y200686D01*
X111465Y200663D01*
X111273Y200672D01*
X111090Y200697D01*
X110916Y200740D01*
X110751Y200800D01*
X110593Y200878D01*
X110441Y200974D01*
X110295Y201089D01*
X110156Y201223D01*
X109697Y200782D01*
X109886Y200614D01*
X110083Y200468D01*
X110286Y200342D01*
X110497Y200238D01*
X110718Y200156D01*
X110952Y200097D01*
X111198Y200062D01*
X111456Y200051D01*
X111755Y200066D01*
G37*
G36*
X119373Y206221D02*
X118601Y206221D01*
X116962Y201020D01*
X115340Y206221D01*
X114516Y206221D01*
X116548Y200152D01*
X117341Y200152D01*
X119373Y206221D01*
G37*
G36*
X59880Y202757D02*
X60700Y202757D01*
X62357Y200152D01*
X63274Y200152D01*
X61476Y202845D01*
X61790Y202943D01*
X62074Y203074D01*
X62326Y203239D01*
X62546Y203437D01*
X62726Y203666D01*
X62854Y203923D01*
X62931Y204207D01*
X62950Y204360D01*
X62956Y204519D01*
X62947Y204722D01*
X62920Y204913D01*
X62875Y205090D01*
X62811Y205255D01*
X62730Y205408D01*
X62630Y205547D01*
X62513Y205674D01*
X62377Y205789D01*
X62223Y205890D01*
X62053Y205978D01*
X61866Y206052D01*
X61661Y206113D01*
X61440Y206160D01*
X61201Y206194D01*
X60946Y206214D01*
X60673Y206221D01*
X59113Y206221D01*
X59113Y200152D01*
X59880Y200152D01*
X59880Y202757D01*
G37*
G36*
X66127Y202893D02*
X67638Y200152D01*
X68515Y200152D01*
X66585Y203426D01*
X68308Y206221D01*
X67480Y206221D01*
X66144Y203889D01*
X64813Y206221D01*
X63936Y206221D01*
X65677Y203387D01*
X63773Y200152D01*
X64597Y200152D01*
X66127Y202893D01*
G37*
%LPC*%
G36*
X59880Y203356D02*
X59880Y205612D01*
X60762Y205612D01*
X61093Y205596D01*
X61377Y205548D01*
X61614Y205467D01*
X61804Y205355D01*
X61949Y205206D01*
X62053Y205017D01*
X62116Y204788D01*
X62137Y204519D01*
X62115Y204234D01*
X62050Y203991D01*
X61941Y203790D01*
X61788Y203631D01*
X61594Y203511D01*
X61358Y203425D01*
X61080Y203373D01*
X60762Y203356D01*
X59880Y203356D01*
G37*
%LPD*%
G36*
X91527Y202893D02*
X93038Y200152D01*
X93915Y200152D01*
X91985Y203426D01*
X93708Y206221D01*
X92880Y206221D01*
X91544Y203889D01*
X90213Y206221D01*
X89336Y206221D01*
X91077Y203387D01*
X89173Y200152D01*
X89997Y200152D01*
X91527Y202893D01*
G37*
G36*
X86629Y205564D02*
X88471Y205564D01*
X88550Y206221D01*
X83971Y206221D01*
X83971Y205564D01*
X85866Y205564D01*
X85866Y200152D01*
X86629Y200152D01*
X86629Y205564D01*
G37*
G36*
X339931Y687225D02*
X340349Y687259D01*
X340753Y687316D01*
X341145Y687395D01*
X341523Y687498D01*
X341888Y687622D01*
X342241Y687770D01*
X342580Y687940D01*
X342906Y688133D01*
X343218Y688349D01*
X343518Y688587D01*
X343805Y688848D01*
X344078Y689132D01*
X344339Y689438D01*
X344586Y689767D01*
X344820Y690119D01*
X345040Y690492D01*
X345247Y690886D01*
X345439Y691299D01*
X345617Y691732D01*
X345780Y692185D01*
X345930Y692658D01*
X346065Y693151D01*
X346186Y693664D01*
X346292Y694197D01*
X346385Y694750D01*
X346463Y695323D01*
X346527Y695916D01*
X346577Y696529D01*
X346612Y697161D01*
X346634Y697814D01*
X346641Y698487D01*
X346634Y699158D01*
X346612Y699809D01*
X346577Y700440D01*
X346527Y701051D01*
X346463Y701642D01*
X346385Y702214D01*
X346292Y702765D01*
X346186Y703297D01*
X346065Y703808D01*
X345930Y704300D01*
X345780Y704771D01*
X345617Y705223D01*
X345439Y705655D01*
X345247Y706067D01*
X345040Y706459D01*
X344820Y706831D01*
X344586Y707182D01*
X344339Y707510D01*
X344078Y707816D01*
X343805Y708099D01*
X343518Y708359D01*
X343218Y708597D01*
X342906Y708812D01*
X342580Y709004D01*
X342241Y709174D01*
X341888Y709321D01*
X341523Y709446D01*
X341145Y709548D01*
X340753Y709627D01*
X340349Y709684D01*
X339931Y709718D01*
X339500Y709729D01*
X339069Y709718D01*
X338651Y709684D01*
X338247Y709627D01*
X337855Y709548D01*
X337477Y709446D01*
X337112Y709321D01*
X336759Y709174D01*
X336420Y709004D01*
X336094Y708812D01*
X335782Y708597D01*
X335482Y708359D01*
X335195Y708099D01*
X334922Y707816D01*
X334661Y707510D01*
X334414Y707182D01*
X334180Y706831D01*
X333960Y706459D01*
X333753Y706067D01*
X333561Y705655D01*
X333383Y705223D01*
X333220Y704771D01*
X333070Y704300D01*
X332935Y703808D01*
X332814Y703297D01*
X332708Y702765D01*
X332615Y702214D01*
X332537Y701642D01*
X332473Y701051D01*
X332423Y700440D01*
X332388Y699809D01*
X332366Y699158D01*
X332359Y698487D01*
X332366Y697814D01*
X332388Y697161D01*
X332423Y696529D01*
X332473Y695916D01*
X332537Y695323D01*
X332615Y694750D01*
X332708Y694197D01*
X332814Y693664D01*
X332935Y693151D01*
X333070Y692658D01*
X333220Y692185D01*
X333383Y691732D01*
X333561Y691299D01*
X333753Y690886D01*
X333960Y690492D01*
X334180Y690119D01*
X334414Y689767D01*
X334661Y689438D01*
X334922Y689132D01*
X335195Y688848D01*
X335482Y688587D01*
X335782Y688349D01*
X336094Y688133D01*
X336420Y687940D01*
X336759Y687770D01*
X337112Y687622D01*
X337477Y687498D01*
X337855Y687395D01*
X338247Y687316D01*
X338651Y687259D01*
X339069Y687225D01*
X339500Y687214D01*
X339931Y687225D01*
G37*
G36*
X164098Y693136D02*
X172728Y693136D01*
X174469Y687578D01*
X177351Y687578D01*
X170258Y709381D01*
X166743Y709381D01*
X159649Y687578D01*
X162357Y687578D01*
X164098Y693136D01*
G37*
G36*
X202098Y693136D02*
X210728Y693136D01*
X212469Y687578D01*
X215351Y687578D01*
X208258Y709381D01*
X204743Y709381D01*
X197649Y687578D01*
X200357Y687578D01*
X202098Y693136D01*
G37*
G36*
X264501Y687222D02*
X264884Y687247D01*
X265266Y687287D01*
X265647Y687344D01*
X266028Y687418D01*
X266408Y687508D01*
X266787Y687614D01*
X267165Y687736D01*
X267538Y687873D01*
X267900Y688022D01*
X268252Y688184D01*
X268592Y688358D01*
X268923Y688544D01*
X269242Y688743D01*
X269849Y689177D01*
X268598Y690935D01*
X268035Y690572D01*
X267484Y690262D01*
X266946Y690002D01*
X266421Y689795D01*
X265890Y689635D01*
X265335Y689522D01*
X264754Y689453D01*
X264149Y689431D01*
X263821Y689440D01*
X263500Y689468D01*
X263187Y689514D01*
X262883Y689579D01*
X262586Y689662D01*
X262297Y689764D01*
X262016Y689885D01*
X261743Y690024D01*
X261480Y690183D01*
X261230Y690362D01*
X260993Y690561D01*
X260769Y690780D01*
X260557Y691020D01*
X260359Y691280D01*
X260174Y691560D01*
X260001Y691861D01*
X259844Y692181D01*
X259706Y692521D01*
X259587Y692881D01*
X259486Y693260D01*
X259405Y693659D01*
X259342Y694077D01*
X259298Y694515D01*
X259273Y694972D01*
X270483Y694972D01*
X270530Y695701D01*
X270546Y696429D01*
X270533Y697048D01*
X270495Y697646D01*
X270431Y698222D01*
X270342Y698778D01*
X270227Y699313D01*
X270087Y699827D01*
X269922Y700319D01*
X269730Y700791D01*
X269515Y701239D01*
X269278Y701659D01*
X269019Y702053D01*
X268737Y702420D01*
X268433Y702760D01*
X268107Y703072D01*
X267758Y703358D01*
X267387Y703617D01*
X266996Y703847D01*
X266588Y704047D01*
X266162Y704215D01*
X265719Y704353D01*
X265258Y704461D01*
X264779Y704537D01*
X264283Y704583D01*
X263769Y704599D01*
X263231Y704581D01*
X262710Y704529D01*
X262206Y704442D01*
X261719Y704320D01*
X261248Y704163D01*
X260794Y703971D01*
X260358Y703744D01*
X259938Y703483D01*
X259537Y703190D01*
X259161Y702871D01*
X258807Y702524D01*
X258477Y702151D01*
X258170Y701750D01*
X257886Y701323D01*
X257626Y700868D01*
X257388Y700387D01*
X257177Y699884D01*
X256993Y699364D01*
X256838Y698827D01*
X256711Y698273D01*
X256613Y697703D01*
X256542Y697116D01*
X256500Y696511D01*
X256486Y695891D01*
X256500Y695251D01*
X256542Y694632D01*
X256612Y694032D01*
X256709Y693452D01*
X256835Y692892D01*
X256989Y692352D01*
X257171Y691831D01*
X257380Y691331D01*
X257617Y690854D01*
X257880Y690404D01*
X258168Y689983D01*
X258483Y689589D01*
X258823Y689223D01*
X259190Y688884D01*
X259582Y688574D01*
X260001Y688291D01*
X260443Y688038D01*
X260905Y687819D01*
X261389Y687634D01*
X261893Y687483D01*
X262418Y687365D01*
X262964Y687281D01*
X263530Y687231D01*
X264118Y687214D01*
X264501Y687222D01*
G37*
G36*
X196224Y709381D02*
X193453Y709381D01*
X187563Y690697D01*
X181737Y709381D01*
X178776Y709381D01*
X186075Y687578D01*
X188925Y687578D01*
X196224Y709381D01*
G37*
G36*
X308388Y689747D02*
X303828Y689747D01*
X303828Y709381D01*
X301500Y709381D01*
X295008Y705359D01*
X296164Y703459D01*
X301168Y706499D01*
X301168Y689747D01*
X295800Y689747D01*
X295800Y687578D01*
X308388Y687578D01*
X308388Y689747D01*
G37*
G36*
X246986Y689621D02*
X243598Y689621D01*
X243598Y696682D01*
X243815Y697349D01*
X244050Y697973D01*
X244300Y698552D01*
X244567Y699089D01*
X244851Y699582D01*
X245150Y700031D01*
X245466Y700437D01*
X245798Y700799D01*
X246148Y701118D01*
X246515Y701395D01*
X246900Y701629D01*
X247303Y701820D01*
X247723Y701969D01*
X248161Y702075D01*
X248618Y702139D01*
X249092Y702161D01*
X249234Y702161D01*
X249234Y698614D01*
X251419Y698614D01*
X251799Y704251D01*
X251190Y704415D01*
X250628Y704528D01*
X250061Y704593D01*
X249440Y704615D01*
X248910Y704598D01*
X248403Y704548D01*
X247921Y704464D01*
X247463Y704347D01*
X247029Y704197D01*
X246618Y704013D01*
X246232Y703796D01*
X245870Y703546D01*
X245525Y703262D01*
X245193Y702943D01*
X244873Y702590D01*
X244565Y702202D01*
X244270Y701780D01*
X243986Y701324D01*
X243714Y700833D01*
X243455Y700308D01*
X242964Y704251D01*
X238341Y704251D01*
X238341Y702208D01*
X240938Y702208D01*
X240938Y689621D01*
X238341Y689621D01*
X238341Y687578D01*
X246986Y687578D01*
X246986Y689621D01*
G37*
G36*
X290084Y704251D02*
X287329Y704251D01*
X282563Y690001D01*
X277734Y704251D01*
X274916Y704251D01*
X280933Y687578D01*
X284020Y687578D01*
X290084Y704251D01*
G37*
%LPC*%
G36*
X339047Y689388D02*
X338623Y689452D01*
X338228Y689559D01*
X337861Y689708D01*
X337520Y689901D01*
X337202Y690141D01*
X336907Y690428D01*
X336634Y690761D01*
X339500Y696574D01*
X343268Y704219D01*
X343402Y703686D01*
X343518Y703101D01*
X343616Y702463D01*
X343696Y701773D01*
X343758Y701030D01*
X343803Y700235D01*
X343829Y699387D01*
X343838Y698487D01*
X343821Y697383D01*
X343771Y696350D01*
X343686Y695388D01*
X343567Y694497D01*
X343415Y693678D01*
X343228Y692930D01*
X343008Y692253D01*
X342754Y691647D01*
X342614Y691371D01*
X342466Y691113D01*
X342309Y690872D01*
X342144Y690650D01*
X341970Y690445D01*
X341788Y690258D01*
X341597Y690089D01*
X341398Y689937D01*
X341190Y689804D01*
X340974Y689688D01*
X340750Y689590D01*
X340517Y689510D01*
X340275Y689447D01*
X340025Y689403D01*
X339767Y689376D01*
X339500Y689367D01*
X339047Y689388D01*
G37*
G36*
X335602Y693326D02*
X335489Y693915D01*
X335394Y694554D01*
X335316Y695241D01*
X335255Y695979D01*
X335212Y696765D01*
X335186Y697601D01*
X335178Y698487D01*
X335194Y699590D01*
X335245Y700621D01*
X335329Y701581D01*
X335448Y702470D01*
X335600Y703288D01*
X335785Y704035D01*
X336005Y704711D01*
X336258Y705315D01*
X336545Y705849D01*
X336701Y706089D01*
X336866Y706311D01*
X337039Y706516D01*
X337221Y706702D01*
X337411Y706871D01*
X337609Y707022D01*
X337816Y707156D01*
X338031Y707271D01*
X338255Y707369D01*
X338487Y707449D01*
X338728Y707511D01*
X338977Y707556D01*
X339234Y707582D01*
X339500Y707591D01*
X339964Y707569D01*
X340400Y707503D01*
X340806Y707393D01*
X341182Y707239D01*
X341530Y707041D01*
X341848Y706799D01*
X342137Y706512D01*
X342398Y706182D01*
X339500Y700360D01*
X335732Y692787D01*
X335602Y693326D01*
G37*
G36*
X164811Y695416D02*
X168437Y707069D01*
X172015Y695416D01*
X164811Y695416D01*
G37*
G36*
X202811Y695416D02*
X206437Y707069D01*
X210015Y695416D01*
X202811Y695416D01*
G37*
G36*
X259288Y697031D02*
X259344Y697679D01*
X259433Y698286D01*
X259555Y698851D01*
X259710Y699376D01*
X259898Y699859D01*
X260118Y700301D01*
X260372Y700701D01*
X260658Y701060D01*
X260972Y701377D01*
X261309Y701652D01*
X261668Y701885D01*
X262049Y702075D01*
X262453Y702223D01*
X262880Y702329D01*
X263329Y702393D01*
X263801Y702414D01*
X264267Y702392D01*
X264708Y702328D01*
X265124Y702220D01*
X265515Y702069D01*
X265880Y701876D01*
X266220Y701639D01*
X266535Y701359D01*
X266825Y701036D01*
X267086Y700672D01*
X267313Y700269D01*
X267507Y699827D01*
X267668Y699346D01*
X267796Y698826D01*
X267891Y698266D01*
X267952Y697668D01*
X267981Y697031D01*
X259288Y697031D01*
G37*
%LPD*%
G36*
X320855Y687237D02*
X321222Y687307D01*
X321571Y687423D01*
X321901Y687586D01*
X322205Y687789D01*
X322473Y688025D01*
X322707Y688295D01*
X322907Y688599D01*
X323066Y688928D01*
X323180Y689274D01*
X323248Y689637D01*
X323271Y690016D01*
X323248Y690388D01*
X323180Y690745D01*
X323066Y691085D01*
X322907Y691410D01*
X322707Y691710D01*
X322473Y691978D01*
X322205Y692213D01*
X321901Y692415D01*
X321571Y692578D01*
X321222Y692694D01*
X320855Y692764D01*
X320468Y692787D01*
X320089Y692764D01*
X319728Y692694D01*
X319385Y692578D01*
X319059Y692415D01*
X318759Y692213D01*
X318493Y691978D01*
X318261Y691710D01*
X318062Y691410D01*
X317902Y691085D01*
X317789Y690745D01*
X317720Y690388D01*
X317698Y690016D01*
X317720Y689637D01*
X317789Y689274D01*
X317902Y688928D01*
X318062Y688599D01*
X318261Y688295D01*
X318493Y688025D01*
X318759Y687789D01*
X319059Y687586D01*
X319385Y687423D01*
X319728Y687307D01*
X320089Y687237D01*
X320468Y687214D01*
X320855Y687237D01*
G37*
G36*
X375167Y332983D02*
X366969Y332983D01*
X365507Y332939D01*
X364657Y332896D01*
X375167Y339499D01*
X375167Y341514D01*
X362827Y341514D01*
X362827Y340007D01*
X370919Y340007D01*
X371927Y340034D01*
X373407Y340113D01*
X362827Y333439D01*
X362827Y331494D01*
X375167Y331494D01*
X375167Y332983D01*
G37*
G36*
X372373Y377813D02*
X375167Y377813D01*
X375167Y379302D01*
X372373Y379302D01*
X372373Y381036D01*
X371130Y381036D01*
X371130Y379302D01*
X362827Y379302D01*
X362827Y377646D01*
X371147Y371997D01*
X372373Y371997D01*
X372373Y377813D01*
G37*
G36*
X375167Y317279D02*
X373801Y317279D01*
X373801Y309230D01*
X369501Y309230D01*
X369501Y316394D01*
X368152Y316394D01*
X368152Y309230D01*
X364193Y309230D01*
X364193Y316920D01*
X362827Y316920D01*
X362827Y307557D01*
X375167Y307557D01*
X375167Y317279D01*
G37*
G36*
X375167Y329247D02*
X373801Y329247D01*
X373801Y321198D01*
X369501Y321198D01*
X369501Y328363D01*
X368152Y328363D01*
X368152Y321198D01*
X364193Y321198D01*
X364193Y328888D01*
X362827Y328888D01*
X362827Y319525D01*
X375167Y319525D01*
X375167Y329247D01*
G37*
G36*
X372587Y343911D02*
X372942Y344045D01*
X373273Y344209D01*
X373579Y344402D01*
X373860Y344625D01*
X374118Y344878D01*
X374350Y345160D01*
X374559Y345472D01*
X374742Y345814D01*
X374902Y346185D01*
X375036Y346586D01*
X375147Y347017D01*
X375232Y347477D01*
X375293Y347966D01*
X375330Y348486D01*
X375342Y349035D01*
X375328Y349624D01*
X375284Y350180D01*
X375211Y350701D01*
X375108Y351188D01*
X374976Y351642D01*
X374815Y352061D01*
X374625Y352446D01*
X374405Y352797D01*
X374159Y353110D01*
X373889Y353381D01*
X373594Y353611D01*
X373275Y353798D01*
X372933Y353945D01*
X372566Y354049D01*
X372175Y354111D01*
X371760Y354132D01*
X371434Y354121D01*
X371130Y354085D01*
X370847Y354026D01*
X370587Y353944D01*
X370345Y353841D01*
X370120Y353720D01*
X369912Y353580D01*
X369720Y353423D01*
X369543Y353249D01*
X369380Y353061D01*
X369232Y352857D01*
X369098Y352639D01*
X368860Y352172D01*
X368655Y351671D01*
X368480Y351142D01*
X368331Y350590D01*
X368064Y349455D01*
X367883Y348676D01*
X367717Y348039D01*
X367566Y347542D01*
X367429Y347187D01*
X367293Y346919D01*
X367142Y346684D01*
X366978Y346483D01*
X366799Y346315D01*
X366600Y346183D01*
X366377Y346089D01*
X366129Y346032D01*
X365857Y346013D01*
X365621Y346025D01*
X365401Y346062D01*
X365196Y346123D01*
X365005Y346208D01*
X364830Y346318D01*
X364670Y346452D01*
X364524Y346610D01*
X364394Y346793D01*
X364279Y346999D01*
X364180Y347226D01*
X364095Y347476D01*
X364026Y347747D01*
X363973Y348041D01*
X363935Y348356D01*
X363912Y348693D01*
X363904Y349052D01*
X363911Y349380D01*
X363931Y349690D01*
X363966Y349982D01*
X364014Y350255D01*
X364077Y350509D01*
X364153Y350746D01*
X364242Y350964D01*
X364346Y351163D01*
X364465Y351346D01*
X364601Y351514D01*
X364754Y351666D01*
X364923Y351803D01*
X365109Y351924D01*
X365313Y352030D01*
X365533Y352121D01*
X365769Y352197D01*
X365480Y353843D01*
X365107Y353721D01*
X364762Y353578D01*
X364445Y353415D01*
X364157Y353230D01*
X363897Y353025D01*
X363665Y352799D01*
X363461Y352552D01*
X363286Y352284D01*
X363135Y351991D01*
X363005Y351666D01*
X362894Y351311D01*
X362804Y350925D01*
X362733Y350507D01*
X362683Y350059D01*
X362653Y349580D01*
X362643Y349070D01*
X362656Y348521D01*
X362696Y348005D01*
X362763Y347522D01*
X362857Y347072D01*
X362978Y346654D01*
X363125Y346269D01*
X363300Y345917D01*
X363501Y345597D01*
X363727Y345313D01*
X363976Y345066D01*
X364247Y344858D01*
X364541Y344687D01*
X364858Y344555D01*
X365197Y344460D01*
X365560Y344403D01*
X365945Y344384D01*
X366281Y344399D01*
X366597Y344442D01*
X366894Y344515D01*
X367171Y344616D01*
X367429Y344745D01*
X367671Y344900D01*
X367896Y345080D01*
X368104Y345286D01*
X368298Y345525D01*
X368483Y345804D01*
X368659Y346123D01*
X368826Y346482D01*
X368988Y346905D01*
X369150Y347416D01*
X369312Y348015D01*
X369474Y348702D01*
X369833Y350235D01*
X369922Y350569D01*
X370020Y350879D01*
X370127Y351164D01*
X370245Y351426D01*
X370376Y351662D01*
X370523Y351869D01*
X370687Y352049D01*
X370867Y352201D01*
X371069Y352322D01*
X371300Y352408D01*
X371560Y352460D01*
X371848Y352477D01*
X372109Y352463D01*
X372354Y352422D01*
X372583Y352353D01*
X372795Y352257D01*
X372991Y352133D01*
X373171Y351982D01*
X373334Y351803D01*
X373481Y351597D01*
X373612Y351365D01*
X373725Y351110D01*
X373820Y350833D01*
X373898Y350532D01*
X373959Y350207D01*
X374003Y349860D01*
X374029Y349490D01*
X374037Y349096D01*
X374029Y348715D01*
X374005Y348353D01*
X373964Y348013D01*
X373907Y347693D01*
X373834Y347393D01*
X373744Y347114D01*
X373638Y346856D01*
X373516Y346618D01*
X373377Y346400D01*
X373219Y346202D01*
X373042Y346023D01*
X372847Y345864D01*
X372634Y345725D01*
X372402Y345606D01*
X372152Y345506D01*
X371883Y345426D01*
X372207Y343806D01*
X372587Y343911D01*
G37*
G36*
X370052Y360102D02*
X375167Y360102D01*
X375167Y361766D01*
X370052Y361766D01*
X362827Y366530D01*
X362827Y364691D01*
X368704Y360951D01*
X362827Y357194D01*
X362827Y355354D01*
X370052Y360102D01*
G37*
G36*
X364193Y299759D02*
X375167Y299759D01*
X375167Y301423D01*
X364193Y301423D01*
X364193Y305662D01*
X362827Y305662D01*
X362827Y295519D01*
X364193Y295519D01*
X364193Y299759D01*
G37*
G36*
X375167Y395623D02*
X373827Y395623D01*
X373827Y392619D01*
X362827Y392619D01*
X362827Y391165D01*
X364832Y388248D01*
X366321Y388248D01*
X364333Y391033D01*
X373827Y391033D01*
X373827Y387889D01*
X375167Y387889D01*
X375167Y395623D01*
G37*
%LPC*%
G36*
X370954Y373591D02*
X370306Y374064D01*
X365647Y377226D01*
X365069Y377567D01*
X364605Y377813D01*
X371130Y377813D01*
X371130Y373451D01*
X370954Y373591D01*
G37*
%LPD*%
G36*
X375167Y384900D02*
X373249Y384900D01*
X373249Y383192D01*
X375167Y383192D01*
X375167Y384900D01*
G37*
G36*
X383230Y86309D02*
X383544Y86336D01*
X383839Y86382D01*
X384115Y86446D01*
X384372Y86528D01*
X384611Y86629D01*
X384831Y86747D01*
X385032Y86885D01*
X385212Y87038D01*
X385368Y87206D01*
X385499Y87389D01*
X385607Y87587D01*
X385691Y87799D01*
X385751Y88025D01*
X385787Y88267D01*
X385799Y88523D01*
X385791Y88716D01*
X385767Y88900D01*
X385727Y89077D01*
X385672Y89244D01*
X385600Y89403D01*
X385512Y89554D01*
X385409Y89696D01*
X385289Y89830D01*
X385217Y89897D01*
X385155Y89953D01*
X385008Y90064D01*
X384847Y90162D01*
X384672Y90247D01*
X384484Y90319D01*
X384283Y90379D01*
X384068Y90426D01*
X383839Y90460D01*
X384177Y90561D01*
X384475Y90701D01*
X384732Y90880D01*
X384780Y90929D01*
X384948Y91099D01*
X385119Y91351D01*
X385242Y91631D01*
X385315Y91939D01*
X385334Y92103D01*
X385340Y92275D01*
X385329Y92506D01*
X385296Y92723D01*
X385242Y92925D01*
X385166Y93112D01*
X385069Y93285D01*
X384949Y93442D01*
X384808Y93584D01*
X384645Y93711D01*
X384461Y93823D01*
X384255Y93920D01*
X384027Y94003D01*
X383777Y94070D01*
X383506Y94122D01*
X383213Y94160D01*
X382899Y94182D01*
X382562Y94190D01*
X379695Y94190D01*
X379695Y86299D01*
X382898Y86299D01*
X383230Y86309D01*
G37*
G36*
X375339Y86197D02*
X375694Y86225D01*
X376027Y86272D01*
X376339Y86337D01*
X376629Y86421D01*
X376897Y86524D01*
X377143Y86646D01*
X377367Y86787D01*
X377567Y86944D01*
X377741Y87117D01*
X377888Y87305D01*
X378008Y87509D01*
X378101Y87728D01*
X378168Y87963D01*
X378208Y88212D01*
X378221Y88478D01*
X378214Y88686D01*
X378191Y88881D01*
X378153Y89062D01*
X378101Y89228D01*
X377957Y89526D01*
X377768Y89783D01*
X377536Y90000D01*
X377266Y90180D01*
X376968Y90332D01*
X376648Y90463D01*
X376310Y90575D01*
X375956Y90670D01*
X375231Y90841D01*
X374325Y91063D01*
X374008Y91160D01*
X373780Y91247D01*
X373609Y91334D01*
X373459Y91430D01*
X373330Y91536D01*
X373223Y91650D01*
X373139Y91777D01*
X373078Y91920D01*
X373042Y92078D01*
X373030Y92252D01*
X373038Y92403D01*
X373061Y92544D01*
X373100Y92675D01*
X373155Y92797D01*
X373225Y92909D01*
X373310Y93011D01*
X373412Y93104D01*
X373528Y93187D01*
X373806Y93325D01*
X374139Y93423D01*
X374528Y93481D01*
X374973Y93501D01*
X375381Y93483D01*
X375742Y93430D01*
X376056Y93342D01*
X376323Y93218D01*
X376547Y93055D01*
X376732Y92849D01*
X376877Y92600D01*
X376984Y92308D01*
X378036Y92493D01*
X377958Y92732D01*
X377867Y92952D01*
X377762Y93155D01*
X377644Y93339D01*
X377513Y93506D01*
X377369Y93654D01*
X377211Y93784D01*
X377040Y93896D01*
X376852Y93992D01*
X376644Y94076D01*
X376417Y94147D01*
X376170Y94204D01*
X375903Y94249D01*
X375617Y94282D01*
X375311Y94301D01*
X374984Y94307D01*
X374634Y94299D01*
X374304Y94273D01*
X373995Y94230D01*
X373707Y94170D01*
X373440Y94093D01*
X373194Y93999D01*
X372968Y93887D01*
X372764Y93759D01*
X372582Y93614D01*
X372425Y93455D01*
X372291Y93282D01*
X372182Y93094D01*
X372097Y92891D01*
X372037Y92674D01*
X372001Y92442D01*
X371988Y92196D01*
X371998Y91981D01*
X372026Y91779D01*
X372072Y91589D01*
X372137Y91412D01*
X372219Y91247D01*
X372318Y91092D01*
X372433Y90949D01*
X372565Y90816D01*
X372718Y90691D01*
X372896Y90573D01*
X373100Y90460D01*
X373330Y90354D01*
X373600Y90250D01*
X373927Y90147D01*
X374749Y89939D01*
X375729Y89710D01*
X376141Y89591D01*
X376491Y89447D01*
X376641Y89363D01*
X376774Y89269D01*
X376889Y89164D01*
X376986Y89049D01*
X377064Y88919D01*
X377119Y88772D01*
X377152Y88606D01*
X377163Y88422D01*
X377154Y88255D01*
X377128Y88098D01*
X377084Y87952D01*
X377022Y87816D01*
X376943Y87691D01*
X376846Y87576D01*
X376732Y87472D01*
X376600Y87377D01*
X376452Y87294D01*
X376289Y87222D01*
X376111Y87161D01*
X375919Y87111D01*
X375490Y87044D01*
X375001Y87022D01*
X374526Y87043D01*
X374104Y87105D01*
X373734Y87209D01*
X373416Y87355D01*
X373277Y87444D01*
X373150Y87545D01*
X373036Y87658D01*
X372935Y87783D01*
X372846Y87919D01*
X372770Y88067D01*
X372706Y88228D01*
X372655Y88399D01*
X371619Y88192D01*
X371686Y87949D01*
X371772Y87722D01*
X371876Y87511D01*
X372000Y87315D01*
X372143Y87135D01*
X372304Y86971D01*
X372485Y86822D01*
X372684Y86689D01*
X372903Y86571D01*
X373140Y86469D01*
X373396Y86383D01*
X373672Y86313D01*
X373966Y86258D01*
X374279Y86219D01*
X374611Y86195D01*
X374962Y86187D01*
X375339Y86197D01*
G37*
G36*
X367398Y86210D02*
X367852Y86279D01*
X368273Y86394D01*
X368660Y86554D01*
X369010Y86758D01*
X369318Y87003D01*
X369584Y87289D01*
X369808Y87615D01*
X369986Y87979D01*
X370113Y88376D01*
X370157Y88586D01*
X370189Y88805D01*
X370208Y89032D01*
X370214Y89267D01*
X370214Y94190D01*
X369150Y94190D01*
X369150Y89329D01*
X369141Y89059D01*
X369113Y88805D01*
X369067Y88568D01*
X369003Y88348D01*
X368920Y88145D01*
X368818Y87958D01*
X368698Y87788D01*
X368560Y87635D01*
X368404Y87499D01*
X368235Y87381D01*
X368050Y87282D01*
X367850Y87200D01*
X367636Y87137D01*
X367407Y87092D01*
X367163Y87064D01*
X366905Y87055D01*
X366653Y87064D01*
X366417Y87090D01*
X366196Y87134D01*
X365991Y87195D01*
X365800Y87274D01*
X365625Y87370D01*
X365465Y87484D01*
X365320Y87615D01*
X365191Y87764D01*
X365080Y87928D01*
X364986Y88109D01*
X364908Y88306D01*
X364848Y88519D01*
X364805Y88748D01*
X364780Y88994D01*
X364771Y89256D01*
X364771Y94190D01*
X363702Y94190D01*
X363702Y89167D01*
X363708Y88938D01*
X363726Y88718D01*
X363757Y88506D01*
X363801Y88301D01*
X363925Y87917D01*
X364099Y87565D01*
X364318Y87249D01*
X364578Y86973D01*
X364878Y86737D01*
X365219Y86540D01*
X365596Y86386D01*
X366003Y86276D01*
X366441Y86209D01*
X366910Y86187D01*
X367398Y86210D01*
G37*
%LPC*%
G36*
X380765Y87156D02*
X380765Y90001D01*
X382758Y90001D01*
X383218Y89979D01*
X383616Y89914D01*
X383792Y89865D01*
X383953Y89805D01*
X384098Y89734D01*
X384228Y89652D01*
X384343Y89560D01*
X384443Y89456D01*
X384527Y89342D01*
X384596Y89217D01*
X384649Y89080D01*
X384688Y88933D01*
X384711Y88775D01*
X384718Y88607D01*
X384711Y88432D01*
X384690Y88268D01*
X384655Y88115D01*
X384606Y87974D01*
X384543Y87844D01*
X384466Y87725D01*
X384375Y87617D01*
X384270Y87520D01*
X384150Y87435D01*
X384013Y87361D01*
X383859Y87298D01*
X383689Y87247D01*
X383502Y87207D01*
X383299Y87179D01*
X382842Y87156D01*
X380765Y87156D01*
G37*
G36*
X380765Y90835D02*
X380765Y93333D01*
X382562Y93333D01*
X382952Y93316D01*
X383293Y93264D01*
X383585Y93179D01*
X383828Y93059D01*
X383930Y92984D01*
X384019Y92899D01*
X384094Y92802D01*
X384155Y92693D01*
X384203Y92573D01*
X384237Y92442D01*
X384258Y92300D01*
X384265Y92146D01*
X384258Y91985D01*
X384238Y91834D01*
X384205Y91694D01*
X384159Y91565D01*
X384100Y91447D01*
X384027Y91340D01*
X383941Y91243D01*
X383842Y91157D01*
X383603Y91017D01*
X383311Y90916D01*
X382964Y90856D01*
X382562Y90835D01*
X380765Y90835D01*
G37*
%LPD*%
G36*
X420895Y497650D02*
X421317Y497716D01*
X421710Y497824D01*
X422074Y497977D01*
X422403Y498170D01*
X422690Y498403D01*
X422937Y498675D01*
X423142Y498986D01*
X423304Y499332D01*
X423419Y499709D01*
X423488Y500118D01*
X423511Y500557D01*
X423488Y500994D01*
X423418Y501400D01*
X423301Y501776D01*
X423138Y502123D01*
X422931Y502435D01*
X422684Y502709D01*
X422396Y502944D01*
X422068Y503140D01*
X421705Y503295D01*
X421314Y503406D01*
X420893Y503473D01*
X420444Y503495D01*
X419994Y503473D01*
X419574Y503407D01*
X419186Y503298D01*
X418828Y503144D01*
X418507Y502950D01*
X418226Y502716D01*
X417985Y502443D01*
X417786Y502131D01*
X417629Y501785D01*
X417517Y501408D01*
X417449Y501002D01*
X417427Y500566D01*
X417439Y500229D01*
X417477Y499912D01*
X417539Y499613D01*
X417627Y499333D01*
X417739Y499073D01*
X417876Y498831D01*
X418039Y498608D01*
X418226Y498405D01*
X418436Y498223D01*
X418665Y498065D01*
X418913Y497932D01*
X419180Y497823D01*
X419467Y497738D01*
X419773Y497677D01*
X420099Y497641D01*
X420444Y497629D01*
X420895Y497650D01*
G37*
%LPC*%
G36*
X420172Y498451D02*
X419915Y498477D01*
X419674Y498520D01*
X419448Y498581D01*
X419238Y498659D01*
X419044Y498754D01*
X418866Y498867D01*
X418702Y498996D01*
X418557Y499142D01*
X418431Y499302D01*
X418324Y499477D01*
X418237Y499666D01*
X418169Y499869D01*
X418120Y500087D01*
X418091Y500319D01*
X418081Y500566D01*
X418091Y500811D01*
X418121Y501041D01*
X418170Y501257D01*
X418239Y501459D01*
X418327Y501647D01*
X418435Y501820D01*
X418563Y501980D01*
X418711Y502125D01*
X418876Y502254D01*
X419055Y502366D01*
X419250Y502461D01*
X419459Y502539D01*
X419683Y502599D01*
X419922Y502642D01*
X420175Y502668D01*
X420444Y502677D01*
X420724Y502668D01*
X420988Y502642D01*
X421236Y502600D01*
X421467Y502540D01*
X421682Y502463D01*
X421881Y502368D01*
X422063Y502257D01*
X422229Y502129D01*
X422377Y501985D01*
X422506Y501825D01*
X422614Y501651D01*
X422703Y501462D01*
X422772Y501258D01*
X422821Y501040D01*
X422851Y500806D01*
X422861Y500557D01*
X422851Y500316D01*
X422820Y500087D01*
X422769Y499873D01*
X422698Y499672D01*
X422606Y499484D01*
X422494Y499310D01*
X422361Y499150D01*
X422208Y499003D01*
X422038Y498871D01*
X421853Y498758D01*
X421654Y498661D01*
X421441Y498583D01*
X421213Y498521D01*
X420971Y498478D01*
X420715Y498451D01*
X420444Y498443D01*
X420172Y498451D01*
G37*
%LPD*%
G36*
X422101Y484706D02*
X422281Y484751D01*
X422449Y484810D01*
X422604Y484883D01*
X422748Y484969D01*
X422880Y485069D01*
X422999Y485183D01*
X423106Y485310D01*
X423201Y485449D01*
X423283Y485600D01*
X423353Y485762D01*
X423410Y485935D01*
X423454Y486120D01*
X423486Y486316D01*
X423505Y486524D01*
X423511Y486743D01*
X423504Y486977D01*
X423483Y487197D01*
X423448Y487404D01*
X423399Y487596D01*
X423336Y487775D01*
X423259Y487940D01*
X423168Y488091D01*
X423062Y488228D01*
X422944Y488350D01*
X422815Y488456D01*
X422674Y488545D01*
X422521Y488618D01*
X422357Y488675D01*
X422181Y488716D01*
X421994Y488740D01*
X421795Y488748D01*
X421524Y488725D01*
X421277Y488656D01*
X421054Y488541D01*
X420855Y488379D01*
X420687Y488176D01*
X420557Y487936D01*
X420465Y487660D01*
X420410Y487347D01*
X420394Y487347D01*
X420316Y487631D01*
X420210Y487879D01*
X420076Y488091D01*
X419913Y488268D01*
X419723Y488406D01*
X419506Y488505D01*
X419262Y488565D01*
X418992Y488585D01*
X418812Y488577D01*
X418643Y488554D01*
X418484Y488515D01*
X418335Y488461D01*
X418196Y488392D01*
X418067Y488307D01*
X417949Y488207D01*
X417840Y488092D01*
X417743Y487962D01*
X417659Y487820D01*
X417588Y487666D01*
X417530Y487499D01*
X417485Y487320D01*
X417453Y487129D01*
X417433Y486925D01*
X417427Y486709D01*
X417433Y486510D01*
X417452Y486320D01*
X417484Y486140D01*
X417529Y485969D01*
X417586Y485807D01*
X417656Y485654D01*
X417834Y485377D01*
X417941Y485254D01*
X418057Y485145D01*
X418184Y485049D01*
X418321Y484967D01*
X418467Y484899D01*
X418624Y484844D01*
X418790Y484802D01*
X418967Y484775D01*
X419026Y485534D01*
X418806Y485575D01*
X418612Y485649D01*
X418445Y485755D01*
X418304Y485893D01*
X418192Y486059D01*
X418112Y486249D01*
X418064Y486463D01*
X418048Y486701D01*
X418065Y486958D01*
X418117Y487183D01*
X418202Y487373D01*
X418323Y487529D01*
X418473Y487651D01*
X418647Y487739D01*
X418847Y487791D01*
X419072Y487808D01*
X419298Y487787D01*
X419498Y487723D01*
X419672Y487616D01*
X419821Y487466D01*
X419939Y487278D01*
X420024Y487055D01*
X420074Y486796D01*
X420091Y486503D01*
X420091Y486092D01*
X420746Y486092D01*
X420746Y486520D01*
X420763Y486850D01*
X420814Y487139D01*
X420898Y487386D01*
X421017Y487592D01*
X421165Y487755D01*
X421340Y487871D01*
X421542Y487940D01*
X421770Y487964D01*
X422030Y487943D01*
X422256Y487882D01*
X422447Y487781D01*
X422605Y487638D01*
X422728Y487460D01*
X422816Y487252D01*
X422868Y487013D01*
X422886Y486743D01*
X422870Y486474D01*
X422820Y486236D01*
X422739Y486028D01*
X422624Y485852D01*
X422476Y485706D01*
X422296Y485591D01*
X422083Y485507D01*
X421837Y485454D01*
X421908Y484674D01*
X422101Y484706D01*
G37*
G36*
X423427Y493953D02*
X423427Y494784D01*
X417515Y497197D01*
X417515Y496354D01*
X421678Y494725D01*
X422722Y494373D01*
X421678Y494020D01*
X417515Y492384D01*
X417515Y491541D01*
X423427Y493953D01*
G37*
G36*
X418170Y510289D02*
X423427Y510289D01*
X423427Y511086D01*
X418170Y511086D01*
X418170Y513117D01*
X417515Y513117D01*
X417515Y508258D01*
X418170Y508258D01*
X418170Y510289D01*
G37*
G36*
X423427Y508403D02*
X422773Y508403D01*
X422773Y505415D01*
X417515Y505415D01*
X417515Y504614D01*
X423427Y504614D01*
X423427Y508403D01*
G37*
G36*
X427753Y482104D02*
X428175Y482169D01*
X428568Y482278D01*
X428932Y482431D01*
X429261Y482624D01*
X429548Y482857D01*
X429795Y483129D01*
X430000Y483440D01*
X430162Y483786D01*
X430277Y484163D01*
X430346Y484572D01*
X430369Y485011D01*
X430346Y485447D01*
X430276Y485854D01*
X430159Y486230D01*
X429996Y486576D01*
X429789Y486889D01*
X429542Y487162D01*
X429254Y487397D01*
X428926Y487594D01*
X428563Y487749D01*
X428172Y487860D01*
X427751Y487926D01*
X427302Y487949D01*
X426852Y487927D01*
X426432Y487861D01*
X426044Y487751D01*
X425686Y487598D01*
X425365Y487403D01*
X425084Y487170D01*
X424843Y486897D01*
X424644Y486585D01*
X424487Y486238D01*
X424375Y485862D01*
X424307Y485456D01*
X424285Y485020D01*
X424297Y484683D01*
X424335Y484365D01*
X424397Y484067D01*
X424485Y483787D01*
X424597Y483526D01*
X424734Y483285D01*
X424897Y483062D01*
X425084Y482859D01*
X425294Y482677D01*
X425523Y482519D01*
X425771Y482386D01*
X426038Y482276D01*
X426325Y482191D01*
X426631Y482131D01*
X426957Y482094D01*
X427302Y482082D01*
X427753Y482104D01*
G37*
%LPC*%
G36*
X427030Y482905D02*
X426773Y482931D01*
X426532Y482974D01*
X426306Y483035D01*
X426096Y483113D01*
X425902Y483208D01*
X425724Y483320D01*
X425560Y483450D01*
X425415Y483596D01*
X425289Y483756D01*
X425182Y483931D01*
X425095Y484120D01*
X425027Y484323D01*
X424978Y484541D01*
X424949Y484773D01*
X424939Y485020D01*
X424949Y485264D01*
X424979Y485495D01*
X425028Y485711D01*
X425097Y485913D01*
X425185Y486101D01*
X425293Y486274D01*
X425421Y486433D01*
X425569Y486578D01*
X425734Y486708D01*
X425913Y486820D01*
X426108Y486915D01*
X426317Y486992D01*
X426541Y487053D01*
X426780Y487096D01*
X427033Y487122D01*
X427302Y487130D01*
X427582Y487122D01*
X427846Y487096D01*
X428094Y487053D01*
X428325Y486993D01*
X428540Y486916D01*
X428739Y486822D01*
X428921Y486711D01*
X429087Y486583D01*
X429235Y486438D01*
X429364Y486279D01*
X429472Y486105D01*
X429561Y485916D01*
X429630Y485712D01*
X429679Y485493D01*
X429709Y485260D01*
X429719Y485011D01*
X429709Y484769D01*
X429678Y484541D01*
X429627Y484326D01*
X429556Y484125D01*
X429464Y483938D01*
X429352Y483764D01*
X429219Y483603D01*
X429066Y483457D01*
X428896Y483325D01*
X428711Y483211D01*
X428512Y483115D01*
X428299Y483036D01*
X428071Y482975D01*
X427829Y482931D01*
X427573Y482905D01*
X427302Y482896D01*
X427030Y482905D01*
G37*
%LPD*%
G36*
X430285Y492156D02*
X426358Y492156D01*
X425657Y492135D01*
X425250Y492114D01*
X430285Y495278D01*
X430285Y496243D01*
X424373Y496243D01*
X424373Y495521D01*
X428250Y495521D01*
X428733Y495534D01*
X429442Y495572D01*
X424373Y492374D01*
X424373Y491443D01*
X430285Y491443D01*
X430285Y492156D01*
G37*
G36*
X430285Y510913D02*
X429631Y510913D01*
X429631Y507057D01*
X427570Y507057D01*
X427570Y510489D01*
X426924Y510489D01*
X426924Y507057D01*
X425028Y507057D01*
X425028Y510741D01*
X424373Y510741D01*
X424373Y506255D01*
X430285Y506255D01*
X430285Y510913D01*
G37*
G36*
X427758Y475914D02*
X428183Y475978D01*
X428575Y476085D01*
X428936Y476235D01*
X429261Y476425D01*
X429547Y476655D01*
X429792Y476923D01*
X429998Y477229D01*
X430160Y477571D01*
X430276Y477942D01*
X430346Y478344D01*
X430369Y478776D01*
X430363Y478991D01*
X430344Y479199D01*
X430270Y479595D01*
X430145Y479966D01*
X429971Y480309D01*
X429748Y480621D01*
X429481Y480896D01*
X429167Y481134D01*
X428808Y481335D01*
X428481Y480681D01*
X428769Y480515D01*
X429019Y480330D01*
X429230Y480125D01*
X429403Y479901D01*
X429538Y479658D01*
X429634Y479396D01*
X429691Y479114D01*
X429710Y478813D01*
X429700Y478577D01*
X429669Y478354D01*
X429618Y478143D01*
X429545Y477944D01*
X429452Y477758D01*
X429339Y477585D01*
X429204Y477424D01*
X429050Y477276D01*
X428878Y477142D01*
X428693Y477027D01*
X428494Y476929D01*
X428282Y476849D01*
X428057Y476787D01*
X427819Y476742D01*
X427567Y476716D01*
X427302Y476707D01*
X427034Y476715D01*
X426781Y476741D01*
X426543Y476784D01*
X426319Y476843D01*
X426110Y476920D01*
X425916Y477014D01*
X425736Y477125D01*
X425571Y477252D01*
X425423Y477396D01*
X425295Y477552D01*
X425186Y477723D01*
X425097Y477907D01*
X425028Y478105D01*
X424979Y478316D01*
X424949Y478541D01*
X424939Y478780D01*
X424956Y479082D01*
X425008Y479363D01*
X425093Y479622D01*
X425212Y479860D01*
X425364Y480072D01*
X425546Y480253D01*
X425758Y480403D01*
X426001Y480521D01*
X425749Y481281D01*
X425409Y481111D01*
X425113Y480899D01*
X424861Y480645D01*
X424654Y480349D01*
X424493Y480013D01*
X424377Y479638D01*
X424308Y479224D01*
X424285Y478771D01*
X424297Y478443D01*
X424335Y478133D01*
X424398Y477841D01*
X424485Y477567D01*
X424598Y477312D01*
X424736Y477075D01*
X424898Y476857D01*
X425086Y476657D01*
X425296Y476478D01*
X425525Y476322D01*
X425774Y476191D01*
X426041Y476084D01*
X426327Y476000D01*
X426633Y475941D01*
X426958Y475905D01*
X427302Y475893D01*
X427758Y475914D01*
G37*
G36*
X427758Y499789D02*
X428183Y499853D01*
X428575Y499960D01*
X428936Y500110D01*
X429261Y500300D01*
X429547Y500530D01*
X429792Y500798D01*
X429998Y501104D01*
X430160Y501446D01*
X430276Y501817D01*
X430346Y502219D01*
X430369Y502651D01*
X430363Y502866D01*
X430344Y503074D01*
X430270Y503470D01*
X430145Y503841D01*
X429971Y504184D01*
X429748Y504496D01*
X429481Y504771D01*
X429167Y505009D01*
X428808Y505210D01*
X428481Y504556D01*
X428769Y504390D01*
X429019Y504205D01*
X429230Y504000D01*
X429403Y503776D01*
X429538Y503533D01*
X429634Y503271D01*
X429691Y502989D01*
X429710Y502688D01*
X429700Y502452D01*
X429669Y502229D01*
X429618Y502018D01*
X429545Y501819D01*
X429452Y501633D01*
X429339Y501460D01*
X429204Y501299D01*
X429050Y501151D01*
X428878Y501017D01*
X428693Y500902D01*
X428494Y500804D01*
X428282Y500724D01*
X428057Y500662D01*
X427819Y500617D01*
X427567Y500591D01*
X427302Y500582D01*
X427034Y500590D01*
X426781Y500616D01*
X426543Y500659D01*
X426319Y500718D01*
X426110Y500795D01*
X425916Y500889D01*
X425736Y501000D01*
X425571Y501127D01*
X425423Y501271D01*
X425295Y501427D01*
X425186Y501598D01*
X425097Y501782D01*
X425028Y501980D01*
X424979Y502191D01*
X424949Y502416D01*
X424939Y502655D01*
X424956Y502957D01*
X425008Y503238D01*
X425093Y503497D01*
X425212Y503735D01*
X425364Y503947D01*
X425546Y504128D01*
X425758Y504278D01*
X426001Y504396D01*
X425749Y505156D01*
X425409Y504986D01*
X425113Y504774D01*
X424861Y504520D01*
X424654Y504224D01*
X424493Y503888D01*
X424377Y503513D01*
X424308Y503099D01*
X424285Y502646D01*
X424297Y502318D01*
X424335Y502008D01*
X424398Y501716D01*
X424485Y501442D01*
X424598Y501187D01*
X424736Y500950D01*
X424898Y500732D01*
X425086Y500532D01*
X425296Y500353D01*
X425525Y500197D01*
X425774Y500066D01*
X426041Y499959D01*
X426327Y499875D01*
X426633Y499816D01*
X426958Y499780D01*
X427302Y499768D01*
X427758Y499789D01*
G37*
G36*
X430285Y515763D02*
X429631Y515763D01*
X429631Y512775D01*
X424373Y512775D01*
X424373Y511974D01*
X430285Y511974D01*
X430285Y515763D01*
G37*
G36*
X430285Y489957D02*
X424373Y489957D01*
X424373Y489156D01*
X430285Y489156D01*
X430285Y489957D01*
G37*
G36*
X370622Y78339D02*
X371028Y78409D01*
X371405Y78526D01*
X371751Y78689D01*
X372063Y78896D01*
X372337Y79144D01*
X372572Y79431D01*
X372769Y79759D01*
X372924Y80122D01*
X373034Y80514D01*
X373101Y80934D01*
X373123Y81383D01*
X373101Y81834D01*
X373036Y82253D01*
X372926Y82641D01*
X372773Y82999D01*
X372578Y83321D01*
X372344Y83602D01*
X372071Y83842D01*
X371759Y84042D01*
X371413Y84199D01*
X371037Y84311D01*
X370630Y84378D01*
X370194Y84400D01*
X369858Y84388D01*
X369540Y84350D01*
X369241Y84288D01*
X368962Y84201D01*
X368701Y84088D01*
X368459Y83951D01*
X368237Y83788D01*
X368033Y83601D01*
X367851Y83391D01*
X367694Y83163D01*
X367560Y82914D01*
X367451Y82647D01*
X367366Y82360D01*
X367305Y82054D01*
X367269Y81728D01*
X367257Y81383D01*
X367279Y80932D01*
X367344Y80510D01*
X367453Y80117D01*
X367605Y79753D01*
X367799Y79424D01*
X368032Y79137D01*
X368303Y78890D01*
X368614Y78685D01*
X368960Y78524D01*
X369338Y78408D01*
X369746Y78339D01*
X370186Y78316D01*
X370622Y78339D01*
G37*
G36*
X383997Y78339D02*
X384403Y78409D01*
X384780Y78526D01*
X385126Y78689D01*
X385438Y78896D01*
X385712Y79144D01*
X385947Y79431D01*
X386144Y79759D01*
X386299Y80122D01*
X386409Y80514D01*
X386476Y80934D01*
X386498Y81383D01*
X386476Y81834D01*
X386411Y82253D01*
X386301Y82641D01*
X386148Y82999D01*
X385953Y83321D01*
X385719Y83602D01*
X385446Y83842D01*
X385134Y84042D01*
X384788Y84199D01*
X384412Y84311D01*
X384005Y84378D01*
X383569Y84400D01*
X383233Y84388D01*
X382915Y84350D01*
X382616Y84288D01*
X382337Y84201D01*
X382076Y84088D01*
X381834Y83951D01*
X381612Y83788D01*
X381408Y83601D01*
X381226Y83391D01*
X381069Y83163D01*
X380935Y82914D01*
X380826Y82647D01*
X380741Y82360D01*
X380680Y82054D01*
X380644Y81728D01*
X380632Y81383D01*
X380654Y80932D01*
X380719Y80510D01*
X380828Y80117D01*
X380980Y79753D01*
X381174Y79424D01*
X381407Y79137D01*
X381678Y78890D01*
X381989Y78685D01*
X382335Y78524D01*
X382713Y78408D01*
X383121Y78339D01*
X383561Y78316D01*
X383997Y78339D01*
G37*
G36*
X362638Y80704D02*
X364375Y80704D01*
X364604Y80711D01*
X364820Y80734D01*
X365025Y80773D01*
X365217Y80827D01*
X365396Y80897D01*
X365564Y80982D01*
X365719Y81083D01*
X365862Y81199D01*
X365991Y81328D01*
X366102Y81468D01*
X366196Y81618D01*
X366273Y81780D01*
X366333Y81952D01*
X366376Y82135D01*
X366401Y82329D01*
X366410Y82533D01*
X366401Y82739D01*
X366376Y82933D01*
X366333Y83115D01*
X366273Y83285D01*
X366197Y83443D01*
X366103Y83590D01*
X365992Y83724D01*
X365864Y83846D01*
X365721Y83956D01*
X365564Y84050D01*
X365392Y84130D01*
X365207Y84196D01*
X365007Y84247D01*
X364794Y84283D01*
X364566Y84305D01*
X364324Y84312D01*
X361836Y84312D01*
X361836Y78400D01*
X362638Y78400D01*
X362638Y80704D01*
G37*
%LPC*%
G36*
X369944Y78977D02*
X369716Y79007D01*
X369501Y79058D01*
X369300Y79129D01*
X369112Y79221D01*
X368938Y79333D01*
X368778Y79466D01*
X368631Y79619D01*
X368500Y79789D01*
X368386Y79974D01*
X368290Y80173D01*
X368211Y80386D01*
X368150Y80614D01*
X368106Y80856D01*
X368080Y81113D01*
X368071Y81383D01*
X368080Y81656D01*
X368106Y81912D01*
X368149Y82153D01*
X368209Y82379D01*
X368287Y82589D01*
X368382Y82783D01*
X368495Y82962D01*
X368625Y83125D01*
X368771Y83270D01*
X368931Y83396D01*
X369105Y83503D01*
X369294Y83591D01*
X369497Y83658D01*
X369715Y83707D01*
X369948Y83736D01*
X370194Y83746D01*
X370439Y83736D01*
X370669Y83706D01*
X370885Y83657D01*
X371087Y83588D01*
X371275Y83500D01*
X371449Y83392D01*
X371608Y83264D01*
X371753Y83116D01*
X371882Y82952D01*
X371994Y82772D01*
X372089Y82578D01*
X372167Y82368D01*
X372227Y82144D01*
X372270Y81905D01*
X372296Y81652D01*
X372305Y81383D01*
X372296Y81103D01*
X372271Y80839D01*
X372228Y80591D01*
X372168Y80360D01*
X372091Y80145D01*
X371997Y79946D01*
X371886Y79764D01*
X371757Y79598D01*
X371613Y79450D01*
X371454Y79322D01*
X371280Y79213D01*
X371091Y79124D01*
X370887Y79055D01*
X370668Y79006D01*
X370434Y78976D01*
X370186Y78966D01*
X369944Y78977D01*
G37*
G36*
X383319Y78977D02*
X383091Y79007D01*
X382876Y79058D01*
X382675Y79129D01*
X382487Y79221D01*
X382313Y79333D01*
X382153Y79466D01*
X382006Y79619D01*
X381875Y79789D01*
X381761Y79974D01*
X381665Y80173D01*
X381586Y80386D01*
X381525Y80614D01*
X381481Y80856D01*
X381455Y81113D01*
X381446Y81383D01*
X381455Y81656D01*
X381481Y81912D01*
X381524Y82153D01*
X381584Y82379D01*
X381662Y82589D01*
X381757Y82783D01*
X381870Y82962D01*
X382000Y83125D01*
X382146Y83270D01*
X382306Y83396D01*
X382480Y83503D01*
X382669Y83591D01*
X382872Y83658D01*
X383090Y83707D01*
X383323Y83736D01*
X383569Y83746D01*
X383814Y83736D01*
X384044Y83706D01*
X384260Y83657D01*
X384462Y83588D01*
X384650Y83500D01*
X384824Y83392D01*
X384983Y83264D01*
X385128Y83116D01*
X385257Y82952D01*
X385369Y82772D01*
X385464Y82578D01*
X385542Y82368D01*
X385602Y82144D01*
X385645Y81905D01*
X385671Y81652D01*
X385680Y81383D01*
X385671Y81103D01*
X385646Y80839D01*
X385603Y80591D01*
X385543Y80360D01*
X385466Y80145D01*
X385372Y79946D01*
X385261Y79764D01*
X385132Y79598D01*
X384988Y79450D01*
X384829Y79322D01*
X384655Y79213D01*
X384466Y79124D01*
X384262Y79055D01*
X384043Y79006D01*
X383809Y78976D01*
X383561Y78966D01*
X383319Y78977D01*
G37*
%LPD*%
G36*
X377340Y78332D02*
X377717Y78382D01*
X378080Y78463D01*
X378428Y78578D01*
X378756Y78723D01*
X379057Y78894D01*
X379332Y79093D01*
X379580Y79319D01*
X379580Y81358D01*
X377075Y81358D01*
X377075Y80687D01*
X378841Y80687D01*
X378841Y79621D01*
X378674Y79478D01*
X378483Y79350D01*
X378268Y79239D01*
X378029Y79143D01*
X377774Y79065D01*
X377508Y79010D01*
X377234Y78977D01*
X376949Y78966D01*
X376702Y78976D01*
X376469Y79007D01*
X376249Y79057D01*
X376044Y79128D01*
X375852Y79220D01*
X375673Y79331D01*
X375509Y79463D01*
X375358Y79615D01*
X375224Y79784D01*
X375107Y79968D01*
X375008Y80167D01*
X374927Y80381D01*
X374864Y80609D01*
X374820Y80853D01*
X374793Y81111D01*
X374784Y81383D01*
X374792Y81657D01*
X374817Y81914D01*
X374860Y82156D01*
X374919Y82381D01*
X374995Y82592D01*
X375088Y82786D01*
X375198Y82964D01*
X375325Y83127D01*
X375468Y83272D01*
X375626Y83398D01*
X375799Y83504D01*
X375987Y83591D01*
X376190Y83659D01*
X376408Y83707D01*
X376642Y83736D01*
X376890Y83746D01*
X377206Y83731D01*
X377495Y83688D01*
X377757Y83616D01*
X377992Y83515D01*
X378201Y83383D01*
X378387Y83216D01*
X378548Y83015D01*
X378686Y82781D01*
X379450Y83007D01*
X379266Y83347D01*
X379048Y83638D01*
X378794Y83878D01*
X378506Y84069D01*
X378176Y84214D01*
X377801Y84317D01*
X377379Y84380D01*
X376911Y84400D01*
X376572Y84388D01*
X376251Y84351D01*
X375951Y84289D01*
X375670Y84203D01*
X375409Y84092D01*
X375167Y83957D01*
X374944Y83796D01*
X374742Y83611D01*
X374561Y83404D01*
X374404Y83176D01*
X374271Y82928D01*
X374163Y82660D01*
X374078Y82371D01*
X374018Y82062D01*
X373982Y81733D01*
X373970Y81383D01*
X373992Y80929D01*
X374058Y80505D01*
X374169Y80111D01*
X374324Y79749D01*
X374521Y79422D01*
X374758Y79136D01*
X375034Y78890D01*
X375350Y78685D01*
X375702Y78524D01*
X376085Y78408D01*
X376501Y78339D01*
X376949Y78316D01*
X377340Y78332D01*
G37*
%LPC*%
G36*
X362638Y81337D02*
X362638Y83670D01*
X364228Y83670D01*
X364550Y83652D01*
X364830Y83599D01*
X365067Y83509D01*
X365260Y83384D01*
X365411Y83223D01*
X365518Y83026D01*
X365583Y82793D01*
X365604Y82525D01*
X365583Y82246D01*
X365520Y82005D01*
X365415Y81801D01*
X365269Y81634D01*
X365080Y81504D01*
X364849Y81411D01*
X364576Y81356D01*
X364261Y81337D01*
X362638Y81337D01*
G37*
%LPD*%
G36*
X221320Y184172D02*
X221917Y184237D01*
X222488Y184347D01*
X223034Y184500D01*
X223295Y184594D01*
X223543Y184703D01*
X223779Y184826D01*
X224003Y184963D01*
X224214Y185114D01*
X224412Y185280D01*
X224599Y185460D01*
X224773Y185654D01*
X224930Y185863D01*
X225067Y186088D01*
X225182Y186328D01*
X225277Y186584D01*
X225350Y186856D01*
X225402Y187143D01*
X225434Y187446D01*
X225444Y187765D01*
X225433Y188081D01*
X225399Y188381D01*
X225342Y188664D01*
X225263Y188931D01*
X225161Y189182D01*
X225036Y189416D01*
X224888Y189633D01*
X224718Y189835D01*
X224627Y189922D01*
X224525Y190020D01*
X224309Y190188D01*
X224071Y190341D01*
X223809Y190476D01*
X223525Y190596D01*
X223219Y190699D01*
X222890Y190786D01*
X222538Y190856D01*
X222785Y190921D01*
X223022Y191000D01*
X223249Y191094D01*
X223464Y191203D01*
X223669Y191327D01*
X223864Y191465D01*
X224000Y191577D01*
X224048Y191617D01*
X224221Y191785D01*
X224378Y191967D01*
X224515Y192162D01*
X224630Y192371D01*
X224725Y192594D01*
X224798Y192831D01*
X224851Y193082D01*
X224882Y193346D01*
X224892Y193625D01*
X224873Y194037D01*
X224813Y194420D01*
X224713Y194771D01*
X224573Y195093D01*
X224393Y195384D01*
X224173Y195645D01*
X223914Y195876D01*
X223614Y196076D01*
X223284Y196250D01*
X222934Y196400D01*
X222564Y196527D01*
X222174Y196632D01*
X221764Y196713D01*
X221334Y196770D01*
X220883Y196805D01*
X220413Y196817D01*
X217294Y196817D01*
X217294Y184150D01*
X220698Y184150D01*
X221320Y184172D01*
G37*
G36*
X232363Y183947D02*
X232666Y183972D01*
X232959Y184015D01*
X233241Y184074D01*
X233514Y184150D01*
X233777Y184244D01*
X234030Y184354D01*
X234273Y184481D01*
X234504Y184624D01*
X234721Y184780D01*
X234925Y184949D01*
X235115Y185132D01*
X235292Y185328D01*
X235455Y185538D01*
X235604Y185762D01*
X235740Y185999D01*
X235861Y186247D01*
X235965Y186505D01*
X236054Y186773D01*
X236126Y187050D01*
X236182Y187336D01*
X236223Y187632D01*
X236247Y187938D01*
X236255Y188253D01*
X236255Y196817D01*
X234645Y196817D01*
X234645Y188197D01*
X234635Y187852D01*
X234603Y187528D01*
X234551Y187226D01*
X234478Y186946D01*
X234385Y186688D01*
X234270Y186452D01*
X234135Y186238D01*
X233978Y186045D01*
X233802Y185875D01*
X233608Y185727D01*
X233395Y185602D01*
X233163Y185500D01*
X232913Y185420D01*
X232644Y185364D01*
X232357Y185330D01*
X232051Y185318D01*
X231747Y185330D01*
X231462Y185364D01*
X231195Y185420D01*
X230946Y185500D01*
X230715Y185602D01*
X230503Y185727D01*
X230309Y185875D01*
X230133Y186045D01*
X229977Y186238D01*
X229841Y186452D01*
X229727Y186688D01*
X229633Y186946D01*
X229560Y187226D01*
X229508Y187528D01*
X229477Y187852D01*
X229466Y188197D01*
X229466Y196817D01*
X227884Y196817D01*
X227884Y188253D01*
X227892Y187938D01*
X227915Y187632D01*
X227955Y187336D01*
X228009Y187050D01*
X228080Y186773D01*
X228166Y186505D01*
X228268Y186247D01*
X228385Y185999D01*
X228518Y185762D01*
X228664Y185538D01*
X228823Y185328D01*
X228997Y185132D01*
X229185Y184949D01*
X229386Y184780D01*
X229601Y184624D01*
X229830Y184481D01*
X230071Y184354D01*
X230322Y184244D01*
X230584Y184150D01*
X230856Y184074D01*
X231139Y184015D01*
X231433Y183972D01*
X231737Y183947D01*
X232051Y183938D01*
X232363Y183947D01*
G37*
G36*
X247286Y185530D02*
X240654Y185530D01*
X247305Y195510D01*
X247305Y196817D01*
X239559Y196817D01*
X239559Y195455D01*
X245594Y195455D01*
X238897Y185447D01*
X238897Y184150D01*
X247093Y184150D01*
X247286Y185530D01*
G37*
G36*
X258317Y185530D02*
X251685Y185530D01*
X258336Y195510D01*
X258336Y196817D01*
X250590Y196817D01*
X250590Y195455D01*
X256625Y195455D01*
X249928Y185447D01*
X249928Y184150D01*
X258124Y184150D01*
X258317Y185530D01*
G37*
%LPC*%
G36*
X218886Y185465D02*
X218886Y190111D01*
X221047Y190111D01*
X221352Y190102D01*
X221640Y190077D01*
X221913Y190036D01*
X222169Y189977D01*
X222408Y189902D01*
X222632Y189811D01*
X222839Y189702D01*
X223030Y189577D01*
X223201Y189431D01*
X223350Y189260D01*
X223475Y189065D01*
X223578Y188844D01*
X223658Y188598D01*
X223715Y188327D01*
X223750Y188031D01*
X223761Y187710D01*
X223748Y187405D01*
X223710Y187124D01*
X223647Y186868D01*
X223559Y186636D01*
X223445Y186429D01*
X223306Y186246D01*
X223141Y186087D01*
X222952Y185953D01*
X222744Y185839D01*
X222524Y185740D01*
X222294Y185656D01*
X222052Y185587D01*
X221800Y185534D01*
X221536Y185496D01*
X221260Y185473D01*
X220974Y185465D01*
X218886Y185465D01*
G37*
G36*
X218886Y191426D02*
X218886Y195529D01*
X220771Y195529D01*
X221072Y195521D01*
X221354Y195498D01*
X221616Y195459D01*
X221858Y195405D01*
X222081Y195335D01*
X222285Y195249D01*
X222469Y195149D01*
X222634Y195032D01*
X222780Y194900D01*
X222906Y194753D01*
X223013Y194590D01*
X223100Y194411D01*
X223168Y194217D01*
X223216Y194008D01*
X223245Y193782D01*
X223255Y193542D01*
X223246Y193277D01*
X223218Y193031D01*
X223172Y192803D01*
X223108Y192593D01*
X223025Y192402D01*
X222924Y192228D01*
X222804Y192073D01*
X222666Y191937D01*
X222510Y191817D01*
X222337Y191713D01*
X222146Y191626D01*
X221937Y191554D01*
X221711Y191498D01*
X221468Y191458D01*
X221207Y191434D01*
X220928Y191426D01*
X218886Y191426D01*
G37*
%LPD*%
G36*
X256358Y654607D02*
X256601Y654627D01*
X256836Y654660D01*
X257063Y654706D01*
X257283Y654765D01*
X257496Y654838D01*
X257897Y655022D01*
X258268Y655260D01*
X258609Y655550D01*
X258919Y655893D01*
X259199Y656288D01*
X259447Y656734D01*
X259662Y657225D01*
X259843Y657763D01*
X259992Y658348D01*
X260108Y658979D01*
X260190Y659656D01*
X260240Y660380D01*
X260257Y661150D01*
X260240Y661918D01*
X260190Y662640D01*
X260108Y663315D01*
X259992Y663944D01*
X259843Y664527D01*
X259662Y665063D01*
X259447Y665554D01*
X259199Y665998D01*
X258919Y666392D01*
X258609Y666734D01*
X258268Y667023D01*
X257897Y667260D01*
X257496Y667444D01*
X257283Y667517D01*
X257063Y667576D01*
X256836Y667622D01*
X256601Y667655D01*
X256358Y667674D01*
X256108Y667681D01*
X255858Y667674D01*
X255615Y667655D01*
X255380Y667622D01*
X255152Y667576D01*
X254933Y667517D01*
X254720Y667444D01*
X254319Y667260D01*
X253948Y667023D01*
X253607Y666734D01*
X253297Y666392D01*
X253017Y665998D01*
X252769Y665554D01*
X252554Y665063D01*
X252373Y664527D01*
X252224Y663944D01*
X252108Y663315D01*
X252025Y662640D01*
X251976Y661918D01*
X251959Y661150D01*
X251976Y660380D01*
X252025Y659656D01*
X252108Y658979D01*
X252224Y658348D01*
X252373Y657763D01*
X252554Y657225D01*
X252769Y656734D01*
X253017Y656288D01*
X253297Y655893D01*
X253607Y655550D01*
X253948Y655260D01*
X254319Y655022D01*
X254720Y654838D01*
X254933Y654765D01*
X255152Y654706D01*
X255380Y654660D01*
X255615Y654627D01*
X255858Y654607D01*
X256108Y654600D01*
X256358Y654607D01*
G37*
G36*
X220810Y654601D02*
X221387Y654784D01*
X221931Y654972D01*
X222440Y655167D01*
X222916Y655369D01*
X223358Y655577D01*
X223767Y655791D01*
X224141Y656012D01*
X224487Y656246D01*
X224810Y656500D01*
X225110Y656773D01*
X225386Y657066D01*
X225640Y657378D01*
X225870Y657710D01*
X226077Y658061D01*
X226261Y658432D01*
X226423Y658828D01*
X226563Y659256D01*
X226682Y659715D01*
X226779Y660206D01*
X226854Y660728D01*
X226908Y661282D01*
X226941Y661867D01*
X226951Y662484D01*
X226944Y662879D01*
X226923Y663260D01*
X226887Y663628D01*
X226836Y663981D01*
X226772Y664320D01*
X226693Y664645D01*
X226599Y664956D01*
X226491Y665253D01*
X226369Y665534D01*
X226232Y665799D01*
X226081Y666047D01*
X225915Y666278D01*
X225735Y666493D01*
X225540Y666691D01*
X225331Y666872D01*
X225107Y667037D01*
X224869Y667184D01*
X224617Y667311D01*
X224352Y667418D01*
X224073Y667506D01*
X223781Y667575D01*
X223474Y667624D01*
X223155Y667653D01*
X222821Y667663D01*
X222535Y667655D01*
X222256Y667632D01*
X221983Y667595D01*
X221718Y667542D01*
X221460Y667474D01*
X221209Y667391D01*
X220965Y667293D01*
X220728Y667180D01*
X220501Y667052D01*
X220286Y666910D01*
X220084Y666753D01*
X219894Y666583D01*
X219716Y666398D01*
X219550Y666199D01*
X219397Y665986D01*
X219257Y665758D01*
X219130Y665518D01*
X219021Y665266D01*
X218929Y665002D01*
X218853Y664726D01*
X218794Y664438D01*
X218752Y664139D01*
X218727Y663828D01*
X218718Y663505D01*
X218726Y663199D01*
X218747Y662904D01*
X218784Y662619D01*
X218835Y662345D01*
X218900Y662080D01*
X218980Y661826D01*
X219074Y661582D01*
X219183Y661348D01*
X219305Y661126D01*
X219437Y660917D01*
X219581Y660721D01*
X219736Y660539D01*
X219902Y660371D01*
X220079Y660215D01*
X220267Y660073D01*
X220466Y659945D01*
X220675Y659831D01*
X220890Y659732D01*
X221114Y659648D01*
X221345Y659579D01*
X221583Y659526D01*
X221829Y659488D01*
X222082Y659465D01*
X222343Y659457D01*
X222767Y659481D01*
X223176Y659552D01*
X223570Y659669D01*
X223948Y659835D01*
X224310Y660047D01*
X224657Y660306D01*
X224989Y660612D01*
X225305Y660966D01*
X225276Y660603D01*
X225230Y660255D01*
X225167Y659921D01*
X225087Y659602D01*
X224991Y659298D01*
X224878Y659008D01*
X224748Y658733D01*
X224601Y658473D01*
X224437Y658225D01*
X224257Y657988D01*
X224060Y657761D01*
X223846Y657545D01*
X223615Y657339D01*
X223367Y657144D01*
X223102Y656959D01*
X222821Y656785D01*
X222200Y656458D01*
X221496Y656152D01*
X220710Y655867D01*
X219841Y655603D01*
X220199Y654426D01*
X220810Y654601D01*
G37*
G36*
X199158Y659513D02*
X200777Y659513D01*
X201332Y659528D01*
X201857Y659574D01*
X202351Y659650D01*
X202816Y659757D01*
X203249Y659895D01*
X203653Y660064D01*
X204026Y660263D01*
X204369Y660492D01*
X204676Y660755D01*
X204943Y661053D01*
X205168Y661387D01*
X205352Y661756D01*
X205496Y662161D01*
X205598Y662601D01*
X205659Y663076D01*
X205680Y663588D01*
X205660Y664060D01*
X205600Y664501D01*
X205500Y664912D01*
X205360Y665293D01*
X205180Y665643D01*
X204961Y665962D01*
X204701Y666250D01*
X204401Y666508D01*
X204065Y666736D01*
X203696Y666933D01*
X203295Y667100D01*
X202860Y667236D01*
X202393Y667342D01*
X201893Y667418D01*
X201361Y667463D01*
X200795Y667479D01*
X197557Y667479D01*
X197557Y654812D01*
X199158Y654812D01*
X199158Y659513D01*
G37*
G36*
X186802Y661444D02*
X186837Y662544D01*
X186848Y663946D01*
X186841Y665223D01*
X186821Y666016D01*
X189111Y657084D01*
X190712Y657084D01*
X192846Y666016D01*
X192846Y665492D01*
X192852Y664375D01*
X192871Y663325D01*
X192903Y662342D01*
X192947Y661426D01*
X193342Y654812D01*
X194879Y654812D01*
X194161Y667479D01*
X191917Y667479D01*
X189957Y658804D01*
X187906Y667479D01*
X185680Y667479D01*
X184962Y654812D01*
X186462Y654812D01*
X186802Y661444D01*
G37*
G36*
X212277Y654609D02*
X212579Y654634D01*
X212872Y654677D01*
X213155Y654736D01*
X213427Y654812D01*
X213690Y654906D01*
X213943Y655016D01*
X214186Y655143D01*
X214417Y655286D01*
X214635Y655442D01*
X214839Y655611D01*
X215029Y655794D01*
X215205Y655990D01*
X215368Y656200D01*
X215518Y656424D01*
X215653Y656661D01*
X215774Y656909D01*
X215879Y657167D01*
X215967Y657435D01*
X216040Y657712D01*
X216096Y657998D01*
X216136Y658294D01*
X216160Y658600D01*
X216168Y658915D01*
X216168Y667479D01*
X214559Y667479D01*
X214559Y658859D01*
X214548Y658514D01*
X214517Y658190D01*
X214465Y657888D01*
X214392Y657608D01*
X214298Y657350D01*
X214183Y657114D01*
X214048Y656900D01*
X213892Y656707D01*
X213716Y656537D01*
X213521Y656389D01*
X213308Y656264D01*
X213076Y656162D01*
X212826Y656082D01*
X212558Y656026D01*
X212270Y655992D01*
X211965Y655980D01*
X211661Y655992D01*
X211376Y656026D01*
X211108Y656082D01*
X210860Y656162D01*
X210629Y656264D01*
X210417Y656389D01*
X210223Y656537D01*
X210047Y656707D01*
X209890Y656900D01*
X209755Y657114D01*
X209640Y657350D01*
X209546Y657608D01*
X209474Y657888D01*
X209421Y658190D01*
X209390Y658514D01*
X209380Y658859D01*
X209380Y667479D01*
X207798Y667479D01*
X207798Y658915D01*
X207805Y658600D01*
X207829Y658294D01*
X207868Y657998D01*
X207923Y657712D01*
X207993Y657435D01*
X208080Y657167D01*
X208181Y656909D01*
X208299Y656661D01*
X208431Y656424D01*
X208577Y656200D01*
X208737Y655990D01*
X208911Y655794D01*
X209098Y655611D01*
X209299Y655442D01*
X209514Y655286D01*
X209743Y655143D01*
X209984Y655016D01*
X210236Y654906D01*
X210497Y654812D01*
X210770Y654736D01*
X211053Y654677D01*
X211346Y654634D01*
X211650Y654609D01*
X211965Y654600D01*
X212277Y654609D01*
G37*
G36*
X244961Y654609D02*
X245268Y654633D01*
X245566Y654674D01*
X245853Y654732D01*
X246130Y654805D01*
X246398Y654895D01*
X246655Y655002D01*
X246903Y655125D01*
X247138Y655263D01*
X247360Y655414D01*
X247568Y655579D01*
X247763Y655757D01*
X247943Y655949D01*
X248110Y656154D01*
X248263Y656373D01*
X248402Y656606D01*
X248526Y656850D01*
X248633Y657103D01*
X248724Y657366D01*
X248799Y657638D01*
X248857Y657920D01*
X248898Y658212D01*
X248923Y658512D01*
X248931Y658823D01*
X248924Y659128D01*
X248904Y659422D01*
X248871Y659706D01*
X248824Y659978D01*
X248764Y660240D01*
X248690Y660491D01*
X248604Y660732D01*
X248503Y660961D01*
X248391Y661179D01*
X248267Y661383D01*
X248133Y661574D01*
X247987Y661751D01*
X247830Y661915D01*
X247662Y662066D01*
X247484Y662203D01*
X247294Y662327D01*
X247094Y662437D01*
X246887Y662533D01*
X246671Y662613D01*
X246447Y662679D01*
X246216Y662731D01*
X245976Y662767D01*
X245728Y662789D01*
X245472Y662796D01*
X245178Y662789D01*
X244895Y662767D01*
X244622Y662729D01*
X244359Y662677D01*
X244099Y662606D01*
X243833Y662511D01*
X243561Y662394D01*
X243283Y662254D01*
X243283Y666246D01*
X248287Y666246D01*
X248517Y667479D01*
X241811Y667479D01*
X241811Y661150D01*
X243053Y661150D01*
X243620Y661347D01*
X244088Y661476D01*
X244304Y661519D01*
X244533Y661549D01*
X244775Y661567D01*
X245031Y661573D01*
X245284Y661563D01*
X245524Y661533D01*
X245751Y661484D01*
X245966Y661414D01*
X246167Y661325D01*
X246354Y661216D01*
X246529Y661087D01*
X246691Y660938D01*
X246837Y660767D01*
X246963Y660571D01*
X247069Y660350D01*
X247157Y660104D01*
X247225Y659832D01*
X247273Y659536D01*
X247302Y659215D01*
X247312Y658869D01*
X247301Y658514D01*
X247269Y658181D01*
X247214Y657870D01*
X247138Y657581D01*
X247041Y657313D01*
X246921Y657068D01*
X246780Y656844D01*
X246618Y656643D01*
X246435Y656464D01*
X246235Y656309D01*
X246017Y656177D01*
X245782Y656070D01*
X245528Y655986D01*
X245258Y655927D01*
X244969Y655891D01*
X244663Y655879D01*
X244263Y655897D01*
X243881Y655950D01*
X243518Y656039D01*
X243173Y656164D01*
X242843Y656326D01*
X242526Y656528D01*
X242222Y656768D01*
X241931Y657047D01*
X240974Y656127D01*
X241368Y655777D01*
X241778Y655471D01*
X242203Y655209D01*
X242644Y654991D01*
X243105Y654820D01*
X243592Y654698D01*
X244105Y654625D01*
X244372Y654607D01*
X244644Y654600D01*
X244961Y654609D01*
G37*
G36*
X237596Y656127D02*
X231626Y656127D01*
X232659Y657084D01*
X233568Y657956D01*
X234354Y658744D01*
X235016Y659448D01*
X235575Y660097D01*
X236052Y660718D01*
X236447Y661311D01*
X236759Y661877D01*
X236886Y662154D01*
X236997Y662433D01*
X237090Y662714D01*
X237166Y662997D01*
X237226Y663282D01*
X237268Y663569D01*
X237293Y663858D01*
X237302Y664149D01*
X237295Y664398D01*
X237273Y664641D01*
X237237Y664878D01*
X237187Y665108D01*
X237122Y665331D01*
X237043Y665547D01*
X236950Y665757D01*
X236842Y665961D01*
X236721Y666156D01*
X236587Y666340D01*
X236281Y666676D01*
X235924Y666970D01*
X235517Y667221D01*
X235296Y667329D01*
X235066Y667422D01*
X234826Y667501D01*
X234577Y667566D01*
X234318Y667616D01*
X234050Y667652D01*
X233772Y667674D01*
X233484Y667681D01*
X233175Y667674D01*
X232875Y667653D01*
X232586Y667619D01*
X232308Y667571D01*
X232040Y667509D01*
X231783Y667433D01*
X231536Y667343D01*
X231300Y667239D01*
X230847Y666988D01*
X230415Y666676D01*
X230004Y666303D01*
X229612Y665869D01*
X230679Y665041D01*
X230986Y665382D01*
X231292Y665670D01*
X231595Y665904D01*
X231898Y666085D01*
X232218Y666220D01*
X232577Y666316D01*
X232975Y666374D01*
X233411Y666393D01*
X233668Y666384D01*
X233911Y666355D01*
X234140Y666307D01*
X234355Y666240D01*
X234555Y666154D01*
X234741Y666049D01*
X234913Y665925D01*
X235071Y665781D01*
X235212Y665621D01*
X235335Y665447D01*
X235438Y665257D01*
X235523Y665054D01*
X235589Y664835D01*
X235636Y664603D01*
X235664Y664355D01*
X235674Y664094D01*
X235666Y663831D01*
X235645Y663571D01*
X235609Y663315D01*
X235559Y663062D01*
X235494Y662813D01*
X235415Y662566D01*
X235214Y662084D01*
X234938Y661584D01*
X234570Y661036D01*
X234110Y660441D01*
X233558Y659798D01*
X232879Y659065D01*
X232038Y658199D01*
X231035Y657202D01*
X229869Y656072D01*
X229869Y654812D01*
X237403Y654812D01*
X237596Y656127D01*
G37*
%LPC*%
G36*
X199158Y660800D02*
X199158Y666209D01*
X200989Y666209D01*
X201327Y666199D01*
X201646Y666170D01*
X201947Y666121D01*
X202229Y666053D01*
X202493Y665965D01*
X202738Y665857D01*
X202965Y665730D01*
X203173Y665584D01*
X203360Y665415D01*
X203521Y665223D01*
X203658Y665007D01*
X203770Y664767D01*
X203857Y664504D01*
X203919Y664216D01*
X203956Y663905D01*
X203969Y663569D01*
X203956Y663202D01*
X203919Y662862D01*
X203857Y662551D01*
X203770Y662269D01*
X203658Y662014D01*
X203521Y661788D01*
X203360Y661591D01*
X203173Y661421D01*
X202964Y661276D01*
X202734Y661150D01*
X202484Y661043D01*
X202213Y660956D01*
X201922Y660888D01*
X201610Y660839D01*
X201277Y660810D01*
X200924Y660800D01*
X199158Y660800D01*
G37*
G36*
X222358Y660701D02*
X222104Y660732D01*
X221866Y660785D01*
X221644Y660859D01*
X221438Y660954D01*
X221248Y661070D01*
X221074Y661208D01*
X220917Y661366D01*
X220777Y661547D01*
X220655Y661750D01*
X220553Y661976D01*
X220468Y662225D01*
X220403Y662497D01*
X220356Y662792D01*
X220328Y663109D01*
X220319Y663450D01*
X220329Y663802D01*
X220359Y664133D01*
X220408Y664441D01*
X220478Y664728D01*
X220567Y664993D01*
X220676Y665236D01*
X220805Y665458D01*
X220954Y665657D01*
X221122Y665834D01*
X221308Y665987D01*
X221514Y666117D01*
X221738Y666223D01*
X221981Y666306D01*
X222242Y666364D01*
X222522Y666400D01*
X222786Y666410D01*
X222821Y666412D01*
X223030Y666405D01*
X223230Y666386D01*
X223419Y666355D01*
X223599Y666310D01*
X223770Y666253D01*
X223931Y666184D01*
X224224Y666007D01*
X224356Y665898D01*
X224481Y665774D01*
X224703Y665480D01*
X224892Y665125D01*
X225047Y664710D01*
X225169Y664227D01*
X225259Y663670D01*
X225316Y663040D01*
X225342Y662337D01*
X225039Y661956D01*
X224731Y661625D01*
X224416Y661342D01*
X224095Y661109D01*
X223760Y660925D01*
X223404Y660795D01*
X223218Y660749D01*
X223027Y660716D01*
X222830Y660697D01*
X222628Y660690D01*
X222358Y660701D01*
G37*
G36*
X255845Y655864D02*
X255599Y655901D01*
X255369Y655963D01*
X255156Y656049D01*
X254958Y656162D01*
X254773Y656301D01*
X254601Y656467D01*
X254443Y656661D01*
X256108Y660039D01*
X258297Y664480D01*
X258375Y664170D01*
X258442Y663830D01*
X258499Y663460D01*
X258546Y663059D01*
X258608Y662165D01*
X258628Y661150D01*
X258619Y660508D01*
X258589Y659908D01*
X258540Y659349D01*
X258471Y658832D01*
X258382Y658356D01*
X258274Y657921D01*
X258146Y657528D01*
X257998Y657176D01*
X257831Y656866D01*
X257644Y656597D01*
X257437Y656369D01*
X257211Y656183D01*
X256965Y656038D01*
X256699Y655934D01*
X256413Y655872D01*
X256108Y655851D01*
X255845Y655864D01*
G37*
G36*
X253843Y658152D02*
X253778Y658494D01*
X253722Y658865D01*
X253677Y659264D01*
X253617Y660150D01*
X253597Y661150D01*
X253607Y661790D01*
X253636Y662390D01*
X253685Y662947D01*
X253754Y663464D01*
X253842Y663939D01*
X253950Y664373D01*
X254077Y664766D01*
X254225Y665117D01*
X254391Y665427D01*
X254578Y665695D01*
X254784Y665923D01*
X255009Y666109D01*
X255255Y666253D01*
X255519Y666357D01*
X255804Y666419D01*
X256108Y666439D01*
X256378Y666426D01*
X256631Y666388D01*
X256866Y666324D01*
X257085Y666235D01*
X257287Y666119D01*
X257472Y665979D01*
X257640Y665812D01*
X257791Y665620D01*
X256108Y662238D01*
X253919Y657838D01*
X253843Y658152D01*
G37*
%LPD*%
G36*
X207075Y337334D02*
X207672Y337399D01*
X208244Y337509D01*
X208790Y337662D01*
X209050Y337756D01*
X209299Y337865D01*
X209535Y337988D01*
X209758Y338125D01*
X209969Y338276D01*
X210168Y338442D01*
X210354Y338622D01*
X210528Y338816D01*
X210686Y339025D01*
X210822Y339250D01*
X210938Y339490D01*
X211032Y339746D01*
X211105Y340018D01*
X211158Y340305D01*
X211189Y340608D01*
X211200Y340927D01*
X211189Y341243D01*
X211154Y341543D01*
X211098Y341826D01*
X211018Y342093D01*
X210916Y342344D01*
X210791Y342578D01*
X210644Y342795D01*
X210473Y342997D01*
X210383Y343084D01*
X210280Y343182D01*
X210064Y343350D01*
X209826Y343503D01*
X209565Y343638D01*
X209281Y343758D01*
X208974Y343861D01*
X208645Y343948D01*
X208293Y344018D01*
X208541Y344083D01*
X208778Y344162D01*
X209004Y344256D01*
X209220Y344365D01*
X209425Y344489D01*
X209619Y344627D01*
X209755Y344739D01*
X209803Y344779D01*
X209976Y344947D01*
X210134Y345129D01*
X210270Y345324D01*
X210386Y345533D01*
X210480Y345756D01*
X210554Y345993D01*
X210606Y346244D01*
X210638Y346508D01*
X210648Y346787D01*
X210628Y347199D01*
X210568Y347582D01*
X210468Y347933D01*
X210328Y348255D01*
X210149Y348546D01*
X209929Y348807D01*
X209669Y349038D01*
X209369Y349238D01*
X209040Y349412D01*
X208690Y349562D01*
X208320Y349689D01*
X207930Y349794D01*
X207520Y349875D01*
X207089Y349932D01*
X206639Y349967D01*
X206168Y349979D01*
X203050Y349979D01*
X203050Y337312D01*
X206453Y337312D01*
X207075Y337334D01*
G37*
G36*
X262200Y337107D02*
X262443Y337127D01*
X262678Y337160D01*
X262905Y337206D01*
X263125Y337265D01*
X263338Y337338D01*
X263739Y337522D01*
X264110Y337760D01*
X264451Y338050D01*
X264761Y338393D01*
X265041Y338788D01*
X265289Y339234D01*
X265504Y339725D01*
X265685Y340263D01*
X265834Y340848D01*
X265950Y341479D01*
X266032Y342156D01*
X266082Y342880D01*
X266099Y343650D01*
X266082Y344418D01*
X266032Y345140D01*
X265950Y345815D01*
X265834Y346444D01*
X265685Y347027D01*
X265504Y347563D01*
X265289Y348054D01*
X265041Y348498D01*
X264761Y348892D01*
X264451Y349234D01*
X264110Y349523D01*
X263739Y349760D01*
X263338Y349944D01*
X263125Y350017D01*
X262905Y350076D01*
X262678Y350122D01*
X262443Y350155D01*
X262200Y350174D01*
X261950Y350181D01*
X261700Y350174D01*
X261457Y350155D01*
X261222Y350122D01*
X260994Y350076D01*
X260775Y350017D01*
X260562Y349944D01*
X260161Y349760D01*
X259790Y349523D01*
X259449Y349234D01*
X259139Y348892D01*
X258859Y348498D01*
X258611Y348054D01*
X258396Y347563D01*
X258215Y347027D01*
X258066Y346444D01*
X257950Y345815D01*
X257867Y345140D01*
X257818Y344418D01*
X257801Y343650D01*
X257818Y342880D01*
X257867Y342156D01*
X257950Y341479D01*
X258066Y340848D01*
X258215Y340263D01*
X258396Y339725D01*
X258611Y339234D01*
X258859Y338788D01*
X259139Y338393D01*
X259449Y338050D01*
X259790Y337760D01*
X260161Y337522D01*
X260562Y337338D01*
X260775Y337265D01*
X260994Y337206D01*
X261222Y337160D01*
X261457Y337127D01*
X261700Y337107D01*
X261950Y337100D01*
X262200Y337107D01*
G37*
G36*
X251206Y337108D02*
X251519Y337129D01*
X251822Y337166D01*
X252115Y337217D01*
X252397Y337282D01*
X252669Y337362D01*
X252930Y337456D01*
X253182Y337565D01*
X253421Y337687D01*
X253646Y337820D01*
X253856Y337964D01*
X254053Y338119D01*
X254236Y338286D01*
X254404Y338464D01*
X254559Y338653D01*
X254699Y338853D01*
X254824Y339062D01*
X254933Y339277D01*
X255025Y339499D01*
X255100Y339728D01*
X255158Y339963D01*
X255200Y340204D01*
X255225Y340452D01*
X255233Y340706D01*
X255222Y340987D01*
X255188Y341260D01*
X255132Y341524D01*
X255054Y341779D01*
X254953Y342026D01*
X254829Y342265D01*
X254684Y342495D01*
X254515Y342716D01*
X254327Y342928D01*
X254122Y343129D01*
X254049Y343191D01*
X253898Y343320D01*
X253658Y343499D01*
X253399Y343668D01*
X253124Y343826D01*
X252830Y343973D01*
X252519Y344110D01*
X253036Y344418D01*
X253484Y344734D01*
X253862Y345059D01*
X254170Y345393D01*
X254299Y345565D01*
X254410Y345745D01*
X254504Y345931D01*
X254560Y346070D01*
X254581Y346123D01*
X254641Y346323D01*
X254684Y346529D01*
X254709Y346742D01*
X254718Y346961D01*
X254709Y347223D01*
X254684Y347474D01*
X254641Y347714D01*
X254581Y347943D01*
X254504Y348162D01*
X254410Y348371D01*
X254299Y348568D01*
X254170Y348755D01*
X253877Y349095D01*
X253544Y349388D01*
X253171Y349633D01*
X252758Y349831D01*
X252319Y349984D01*
X251866Y350094D01*
X251399Y350159D01*
X250919Y350181D01*
X250473Y350159D01*
X250030Y350091D01*
X249588Y349979D01*
X249148Y349822D01*
X248728Y349619D01*
X248345Y349367D01*
X248001Y349067D01*
X247695Y348718D01*
X247560Y348527D01*
X247443Y348324D01*
X247344Y348110D01*
X247263Y347886D01*
X247201Y347650D01*
X247156Y347404D01*
X247129Y347147D01*
X247120Y346879D01*
X247127Y346624D01*
X247150Y346381D01*
X247189Y346150D01*
X247243Y345929D01*
X247312Y345719D01*
X247396Y345521D01*
X247496Y345334D01*
X247612Y345159D01*
X247743Y344991D01*
X247892Y344830D01*
X248241Y344524D01*
X248658Y344241D01*
X249143Y343981D01*
X248836Y343831D01*
X248548Y343674D01*
X248281Y343509D01*
X248033Y343337D01*
X247805Y343157D01*
X247596Y342969D01*
X247408Y342774D01*
X247239Y342571D01*
X247090Y342361D01*
X246962Y342143D01*
X246852Y341918D01*
X246763Y341685D01*
X246694Y341445D01*
X246644Y341197D01*
X246614Y340942D01*
X246605Y340679D01*
X246613Y340429D01*
X246636Y340185D01*
X246676Y339948D01*
X246732Y339716D01*
X246804Y339491D01*
X246892Y339272D01*
X246995Y339059D01*
X247115Y338853D01*
X247250Y338655D01*
X247399Y338467D01*
X247562Y338291D01*
X247739Y338125D01*
X247931Y337970D01*
X248137Y337826D01*
X248357Y337692D01*
X248591Y337570D01*
X248839Y337460D01*
X249097Y337364D01*
X249366Y337284D01*
X249647Y337218D01*
X249939Y337166D01*
X250242Y337130D01*
X250556Y337108D01*
X250882Y337100D01*
X251206Y337108D01*
G37*
G36*
X227062Y342013D02*
X228681Y342013D01*
X229237Y342028D01*
X229761Y342074D01*
X230256Y342150D01*
X230720Y342257D01*
X231154Y342395D01*
X231557Y342564D01*
X231931Y342763D01*
X232274Y342992D01*
X232581Y343255D01*
X232847Y343553D01*
X233072Y343887D01*
X233257Y344256D01*
X233400Y344661D01*
X233502Y345101D01*
X233564Y345576D01*
X233584Y346088D01*
X233564Y346560D01*
X233504Y347001D01*
X233405Y347412D01*
X233265Y347793D01*
X233085Y348143D01*
X232865Y348462D01*
X232605Y348750D01*
X232306Y349008D01*
X231970Y349236D01*
X231601Y349433D01*
X231199Y349600D01*
X230765Y349736D01*
X230298Y349842D01*
X229798Y349918D01*
X229265Y349963D01*
X228700Y349979D01*
X225462Y349979D01*
X225462Y337312D01*
X227062Y337312D01*
X227062Y342013D01*
G37*
G36*
X214707Y343944D02*
X214741Y345044D01*
X214753Y346446D01*
X214746Y347723D01*
X214725Y348516D01*
X217015Y339584D01*
X218616Y339584D01*
X220750Y348516D01*
X220750Y347992D01*
X220756Y346875D01*
X220775Y345825D01*
X220807Y344842D01*
X220851Y343926D01*
X221247Y337312D01*
X222783Y337312D01*
X222066Y349979D01*
X219821Y349979D01*
X217862Y341304D01*
X215810Y349979D01*
X213584Y349979D01*
X212867Y337312D01*
X214366Y337312D01*
X214707Y343944D01*
G37*
G36*
X243438Y338627D02*
X237468Y338627D01*
X238501Y339584D01*
X239410Y340456D01*
X240196Y341244D01*
X240858Y341948D01*
X241417Y342597D01*
X241894Y343218D01*
X242289Y343811D01*
X242601Y344377D01*
X242728Y344654D01*
X242839Y344933D01*
X242932Y345214D01*
X243008Y345497D01*
X243068Y345782D01*
X243110Y346069D01*
X243135Y346358D01*
X243144Y346649D01*
X243137Y346898D01*
X243115Y347141D01*
X243079Y347378D01*
X243029Y347608D01*
X242964Y347831D01*
X242885Y348047D01*
X242792Y348257D01*
X242684Y348461D01*
X242563Y348656D01*
X242429Y348840D01*
X242123Y349176D01*
X241766Y349470D01*
X241359Y349721D01*
X241138Y349829D01*
X240908Y349922D01*
X240668Y350001D01*
X240419Y350066D01*
X240160Y350116D01*
X239892Y350152D01*
X239614Y350174D01*
X239326Y350181D01*
X239017Y350174D01*
X238717Y350153D01*
X238428Y350119D01*
X238150Y350071D01*
X237882Y350009D01*
X237625Y349933D01*
X237378Y349843D01*
X237142Y349739D01*
X236689Y349488D01*
X236257Y349176D01*
X235846Y348803D01*
X235454Y348369D01*
X236521Y347541D01*
X236828Y347882D01*
X237134Y348170D01*
X237437Y348404D01*
X237740Y348585D01*
X238060Y348720D01*
X238419Y348816D01*
X238817Y348874D01*
X239253Y348893D01*
X239510Y348884D01*
X239753Y348855D01*
X239982Y348807D01*
X240197Y348740D01*
X240397Y348654D01*
X240583Y348549D01*
X240755Y348425D01*
X240913Y348281D01*
X241054Y348121D01*
X241177Y347947D01*
X241280Y347757D01*
X241365Y347554D01*
X241431Y347335D01*
X241478Y347103D01*
X241506Y346855D01*
X241516Y346594D01*
X241508Y346331D01*
X241487Y346071D01*
X241451Y345815D01*
X241401Y345562D01*
X241336Y345313D01*
X241257Y345066D01*
X241056Y344584D01*
X240780Y344084D01*
X240412Y343536D01*
X239952Y342941D01*
X239400Y342298D01*
X238721Y341565D01*
X237880Y340699D01*
X236877Y339702D01*
X235711Y338572D01*
X235711Y337312D01*
X243245Y337312D01*
X243438Y338627D01*
G37*
%LPC*%
G36*
X227062Y343300D02*
X227062Y348709D01*
X228893Y348709D01*
X229231Y348699D01*
X229550Y348670D01*
X229851Y348621D01*
X230134Y348553D01*
X230398Y348465D01*
X230643Y348357D01*
X230870Y348230D01*
X231078Y348084D01*
X231264Y347915D01*
X231426Y347723D01*
X231563Y347507D01*
X231674Y347267D01*
X231762Y347004D01*
X231824Y346716D01*
X231861Y346405D01*
X231873Y346069D01*
X231861Y345702D01*
X231824Y345362D01*
X231762Y345051D01*
X231674Y344769D01*
X231563Y344514D01*
X231426Y344288D01*
X231264Y344091D01*
X231078Y343921D01*
X230869Y343776D01*
X230639Y343650D01*
X230388Y343543D01*
X230118Y343456D01*
X229826Y343388D01*
X229514Y343339D01*
X229182Y343310D01*
X228829Y343300D01*
X227062Y343300D01*
G37*
G36*
X250560Y338361D02*
X250267Y338390D01*
X249993Y338437D01*
X249738Y338504D01*
X249502Y338590D01*
X249285Y338696D01*
X249087Y338820D01*
X248909Y338963D01*
X248750Y339124D01*
X248613Y339299D01*
X248497Y339490D01*
X248402Y339696D01*
X248328Y339916D01*
X248275Y340152D01*
X248243Y340403D01*
X248233Y340670D01*
X248241Y340939D01*
X248266Y341195D01*
X248308Y341437D01*
X248367Y341666D01*
X248443Y341882D01*
X248535Y342085D01*
X248645Y342274D01*
X248771Y342449D01*
X249063Y342771D01*
X249400Y343060D01*
X249782Y343316D01*
X250210Y343540D01*
X251338Y343132D01*
X252147Y342794D01*
X252456Y342631D01*
X252734Y342443D01*
X252982Y342230D01*
X253200Y341994D01*
X253377Y341726D01*
X253447Y341578D01*
X253504Y341419D01*
X253548Y341251D01*
X253579Y341073D01*
X253598Y340885D01*
X253605Y340688D01*
X253585Y340361D01*
X253525Y340052D01*
X253426Y339761D01*
X253287Y339487D01*
X253110Y339237D01*
X252895Y339015D01*
X252643Y338821D01*
X252354Y338655D01*
X252030Y338522D01*
X251675Y338427D01*
X251290Y338370D01*
X250873Y338351D01*
X250560Y338361D01*
G37*
G36*
X204641Y338627D02*
X204641Y343273D01*
X206803Y343273D01*
X207108Y343264D01*
X207396Y343239D01*
X207668Y343198D01*
X207924Y343139D01*
X208164Y343064D01*
X208387Y342973D01*
X208594Y342864D01*
X208785Y342739D01*
X208957Y342593D01*
X209105Y342422D01*
X209231Y342227D01*
X209334Y342006D01*
X209414Y341760D01*
X209471Y341489D01*
X209505Y341193D01*
X209517Y340872D01*
X209504Y340567D01*
X209466Y340286D01*
X209403Y340030D01*
X209314Y339798D01*
X209200Y339591D01*
X209061Y339408D01*
X208897Y339249D01*
X208707Y339115D01*
X208499Y339001D01*
X208280Y338902D01*
X208049Y338818D01*
X207808Y338749D01*
X207555Y338696D01*
X207291Y338658D01*
X207016Y338635D01*
X206729Y338627D01*
X204641Y338627D01*
G37*
G36*
X261687Y338364D02*
X261441Y338401D01*
X261211Y338463D01*
X260998Y338549D01*
X260800Y338662D01*
X260615Y338801D01*
X260443Y338967D01*
X260285Y339161D01*
X261950Y342539D01*
X264139Y346980D01*
X264217Y346670D01*
X264284Y346330D01*
X264341Y345960D01*
X264388Y345559D01*
X264450Y344665D01*
X264470Y343650D01*
X264461Y343008D01*
X264431Y342408D01*
X264382Y341849D01*
X264313Y341332D01*
X264224Y340856D01*
X264116Y340421D01*
X263988Y340028D01*
X263840Y339676D01*
X263673Y339366D01*
X263486Y339097D01*
X263279Y338869D01*
X263053Y338683D01*
X262807Y338538D01*
X262541Y338434D01*
X262255Y338372D01*
X261950Y338351D01*
X261687Y338364D01*
G37*
G36*
X259685Y340652D02*
X259620Y340994D01*
X259564Y341365D01*
X259519Y341764D01*
X259459Y342650D01*
X259439Y343650D01*
X259449Y344290D01*
X259478Y344890D01*
X259527Y345447D01*
X259596Y345964D01*
X259684Y346439D01*
X259792Y346873D01*
X259919Y347266D01*
X260067Y347617D01*
X260233Y347927D01*
X260420Y348195D01*
X260626Y348423D01*
X260851Y348609D01*
X261097Y348753D01*
X261361Y348857D01*
X261646Y348919D01*
X261950Y348939D01*
X262220Y348926D01*
X262473Y348888D01*
X262708Y348824D01*
X262927Y348735D01*
X263129Y348619D01*
X263314Y348479D01*
X263482Y348312D01*
X263633Y348120D01*
X261950Y344738D01*
X259761Y340338D01*
X259685Y340652D01*
G37*
G36*
X204641Y344588D02*
X204641Y348691D01*
X206527Y348691D01*
X206828Y348683D01*
X207109Y348660D01*
X207371Y348621D01*
X207614Y348567D01*
X207837Y348497D01*
X208040Y348411D01*
X208225Y348311D01*
X208390Y348194D01*
X208535Y348062D01*
X208661Y347915D01*
X208768Y347752D01*
X208855Y347573D01*
X208923Y347379D01*
X208972Y347170D01*
X209001Y346944D01*
X209011Y346704D01*
X209001Y346439D01*
X208974Y346193D01*
X208928Y345965D01*
X208863Y345755D01*
X208781Y345564D01*
X208679Y345390D01*
X208560Y345235D01*
X208422Y345099D01*
X208266Y344979D01*
X208092Y344875D01*
X207901Y344788D01*
X207693Y344716D01*
X207467Y344660D01*
X207223Y344620D01*
X206962Y344596D01*
X206683Y344588D01*
X204641Y344588D01*
G37*
G36*
X250490Y344814D02*
X249819Y345085D01*
X249564Y345219D01*
X249337Y345375D01*
X249136Y345551D01*
X248964Y345747D01*
X248825Y345972D01*
X248726Y346232D01*
X248666Y346529D01*
X248647Y346860D01*
X248656Y347104D01*
X248684Y347334D01*
X248731Y347550D01*
X248796Y347753D01*
X248880Y347941D01*
X248983Y348116D01*
X249104Y348277D01*
X249245Y348424D01*
X249402Y348556D01*
X249573Y348670D01*
X249760Y348766D01*
X249962Y348845D01*
X250179Y348906D01*
X250411Y348950D01*
X250657Y348976D01*
X250919Y348985D01*
X251180Y348976D01*
X251427Y348950D01*
X251659Y348907D01*
X251875Y348846D01*
X252077Y348768D01*
X252264Y348672D01*
X252436Y348559D01*
X252593Y348429D01*
X252733Y348283D01*
X252854Y348125D01*
X252957Y347954D01*
X253041Y347770D01*
X253107Y347573D01*
X253153Y347364D01*
X253181Y347141D01*
X253190Y346936D01*
X253191Y346906D01*
X253179Y346631D01*
X253143Y346375D01*
X253082Y346139D01*
X252998Y345922D01*
X252890Y345720D01*
X252758Y345529D01*
X252604Y345348D01*
X252427Y345177D01*
X252223Y345010D01*
X251988Y344841D01*
X251425Y344496D01*
X250490Y344814D01*
G37*
%LPD*%
D10*
X286267Y53817D02*
X464067Y53817D01*
X464067Y663417D01*
X286267Y663417D01*
X286267Y53817D01*
X337067Y41117D02*
X413267Y41117D01*
X413267Y98267D01*
X337067Y98267D01*
X337067Y41117D01*
X390567Y467583D02*
X390567Y503651D01*
X359767Y503651D01*
X359767Y467583D01*
X390567Y467583D01*
X311667Y536417D02*
X311667Y663417D01*
X311667Y536417D02*
X438667Y536417D01*
X438667Y663417D01*
X425967Y663417D01*
X324367Y663417D01*
X324367Y650717D01*
X425967Y650717D01*
X425967Y663417D01*
X408187Y142717D02*
X408187Y117317D01*
X408187Y142717D02*
X408187Y244317D01*
X434857Y244317D01*
X434857Y142717D01*
X434857Y117317D01*
X408187Y117317D01*
X408187Y142717D02*
X434857Y142717D01*
X373967Y186217D02*
X313967Y186217D01*
X373967Y186217D02*
X373967Y226217D01*
X313967Y226217D01*
X313967Y186217D01*
X365167Y485617D02*
X365170Y485862D01*
X365179Y486108D01*
X365194Y486353D01*
X365215Y486597D01*
X365242Y486841D01*
X365275Y487084D01*
X365314Y487327D01*
X365359Y487568D01*
X365410Y487808D01*
X365467Y488047D01*
X365529Y488284D01*
X365598Y488520D01*
X365672Y488754D01*
X365752Y488986D01*
X365837Y489216D01*
X365928Y489444D01*
X366025Y489669D01*
X366127Y489893D01*
X366235Y490113D01*
X366348Y490331D01*
X366466Y490546D01*
X366590Y490758D01*
X366718Y490967D01*
X366852Y491173D01*
X366991Y491375D01*
X367135Y491574D01*
X367284Y491769D01*
X367437Y491961D01*
X367595Y492149D01*
X367757Y492333D01*
X367925Y492512D01*
X368096Y492688D01*
X368272Y492859D01*
X368451Y493027D01*
X368635Y493189D01*
X368823Y493347D01*
X369015Y493500D01*
X369210Y493649D01*
X369409Y493793D01*
X369611Y493932D01*
X369817Y494066D01*
X370026Y494194D01*
X370238Y494318D01*
X370453Y494436D01*
X370671Y494549D01*
X370891Y494657D01*
X371115Y494759D01*
X371340Y494856D01*
X371568Y494947D01*
X371798Y495032D01*
X372030Y495112D01*
X372264Y495186D01*
X372500Y495255D01*
X372737Y495317D01*
X372976Y495374D01*
X373216Y495425D01*
X373457Y495470D01*
X373700Y495509D01*
X373943Y495542D01*
X374187Y495569D01*
X374431Y495590D01*
X374676Y495605D01*
X374922Y495614D01*
X375167Y495617D01*
X375412Y495614D01*
X375658Y495605D01*
X375903Y495590D01*
X376147Y495569D01*
X376391Y495542D01*
X376634Y495509D01*
X376877Y495470D01*
X377118Y495425D01*
X377358Y495374D01*
X377597Y495317D01*
X377834Y495255D01*
X378070Y495186D01*
X378304Y495112D01*
X378536Y495032D01*
X378766Y494947D01*
X378994Y494856D01*
X379219Y494759D01*
X379443Y494657D01*
X379663Y494549D01*
X379881Y494436D01*
X380096Y494318D01*
X380308Y494194D01*
X380517Y494066D01*
X380723Y493932D01*
X380925Y493793D01*
X381124Y493649D01*
X381319Y493500D01*
X381511Y493347D01*
X381699Y493189D01*
X381883Y493027D01*
X382062Y492859D01*
X382238Y492688D01*
X382409Y492512D01*
X382577Y492333D01*
X382739Y492149D01*
X382897Y491961D01*
X383050Y491769D01*
X383199Y491574D01*
X383343Y491375D01*
X383482Y491173D01*
X383616Y490967D01*
X383744Y490758D01*
X383868Y490546D01*
X383986Y490331D01*
X384099Y490113D01*
X384207Y489893D01*
X384309Y489669D01*
X384406Y489444D01*
X384497Y489216D01*
X384582Y488986D01*
X384662Y488754D01*
X384736Y488520D01*
X384805Y488284D01*
X384867Y488047D01*
X384924Y487808D01*
X384975Y487568D01*
X385020Y487327D01*
X385059Y487084D01*
X385092Y486841D01*
X385119Y486597D01*
X385140Y486353D01*
X385155Y486108D01*
X385164Y485862D01*
X385167Y485617D01*
X385164Y485372D01*
X385155Y485126D01*
X385140Y484881D01*
X385119Y484637D01*
X385092Y484393D01*
X385059Y484150D01*
X385020Y483907D01*
X384975Y483666D01*
X384924Y483426D01*
X384867Y483187D01*
X384805Y482950D01*
X384736Y482714D01*
X384662Y482480D01*
X384582Y482248D01*
X384497Y482018D01*
X384406Y481790D01*
X384309Y481565D01*
X384207Y481341D01*
X384099Y481121D01*
X383986Y480903D01*
X383868Y480688D01*
X383744Y480476D01*
X383616Y480267D01*
X383482Y480061D01*
X383343Y479859D01*
X383199Y479660D01*
X383050Y479465D01*
X382897Y479273D01*
X382739Y479085D01*
X382577Y478901D01*
X382409Y478722D01*
X382238Y478546D01*
X382062Y478375D01*
X381883Y478207D01*
X381699Y478045D01*
X381511Y477887D01*
X381319Y477734D01*
X381124Y477585D01*
X380925Y477441D01*
X380723Y477302D01*
X380517Y477168D01*
X380308Y477040D01*
X380096Y476916D01*
X379881Y476798D01*
X379663Y476685D01*
X379443Y476577D01*
X379219Y476475D01*
X378994Y476378D01*
X378766Y476287D01*
X378536Y476202D01*
X378304Y476122D01*
X378070Y476048D01*
X377834Y475979D01*
X377597Y475917D01*
X377358Y475860D01*
X377118Y475809D01*
X376877Y475764D01*
X376634Y475725D01*
X376391Y475692D01*
X376147Y475665D01*
X375903Y475644D01*
X375658Y475629D01*
X375412Y475620D01*
X375167Y475617D01*
X374922Y475620D01*
X374676Y475629D01*
X374431Y475644D01*
X374187Y475665D01*
X373943Y475692D01*
X373700Y475725D01*
X373457Y475764D01*
X373216Y475809D01*
X372976Y475860D01*
X372737Y475917D01*
X372500Y475979D01*
X372264Y476048D01*
X372030Y476122D01*
X371798Y476202D01*
X371568Y476287D01*
X371340Y476378D01*
X371115Y476475D01*
X370891Y476577D01*
X370671Y476685D01*
X370453Y476798D01*
X370238Y476916D01*
X370026Y477040D01*
X369817Y477168D01*
X369611Y477302D01*
X369409Y477441D01*
X369210Y477585D01*
X369015Y477734D01*
X368823Y477887D01*
X368635Y478045D01*
X368451Y478207D01*
X368272Y478375D01*
X368096Y478546D01*
X367925Y478722D01*
X367757Y478901D01*
X367595Y479085D01*
X367437Y479273D01*
X367284Y479465D01*
X367135Y479660D01*
X366991Y479859D01*
X366852Y480061D01*
X366718Y480267D01*
X366590Y480476D01*
X366466Y480688D01*
X366348Y480903D01*
X366235Y481121D01*
X366127Y481341D01*
X366025Y481565D01*
X365928Y481790D01*
X365837Y482018D01*
X365752Y482248D01*
X365672Y482480D01*
X365598Y482714D01*
X365529Y482950D01*
X365467Y483187D01*
X365410Y483426D01*
X365359Y483666D01*
X365314Y483907D01*
X365275Y484150D01*
X365242Y484393D01*
X365215Y484637D01*
X365194Y484881D01*
X365179Y485126D01*
X365170Y485372D01*
X365167Y485617D01*
D11*
X218440Y66040D02*
X187960Y66040D01*
X187960Y10160D01*
X218440Y10160D01*
X218440Y66040D01*
X167640Y66040D02*
X137160Y66040D01*
X137160Y10160D01*
X167640Y10160D01*
X167640Y66040D01*
X238379Y292100D02*
X248539Y292100D01*
X243459Y287020D02*
X243459Y297180D01*
X145669Y266700D02*
X145687Y268196D01*
X145742Y269691D01*
X145834Y271184D01*
X145963Y272675D01*
X146127Y274162D01*
X146329Y275645D01*
X146566Y277122D01*
X146840Y278593D01*
X147150Y280056D01*
X147496Y281512D01*
X147877Y282959D01*
X148294Y284396D01*
X148746Y285822D01*
X149232Y287237D01*
X149754Y288639D01*
X150309Y290028D01*
X150899Y291404D01*
X151522Y292764D01*
X152178Y294108D01*
X152867Y295436D01*
X153588Y296747D01*
X154342Y298040D01*
X155127Y299313D01*
X155943Y300568D01*
X156789Y301801D01*
X157665Y303014D01*
X158571Y304205D01*
X159506Y305373D01*
X160470Y306517D01*
X161461Y307638D01*
X162479Y308734D01*
X163524Y309805D01*
X164595Y310850D01*
X165691Y311868D01*
X166812Y312859D01*
X167956Y313823D01*
X169124Y314758D01*
X170315Y315664D01*
X171528Y316540D01*
X172761Y317386D01*
X174016Y318202D01*
X175289Y318987D01*
X176582Y319741D01*
X177893Y320462D01*
X179221Y321151D01*
X180565Y321807D01*
X181925Y322430D01*
X183301Y323020D01*
X184690Y323575D01*
X186092Y324097D01*
X187507Y324583D01*
X188933Y325035D01*
X190370Y325452D01*
X191817Y325833D01*
X193273Y326179D01*
X194736Y326489D01*
X196207Y326763D01*
X197684Y327000D01*
X199167Y327202D01*
X200654Y327366D01*
X202145Y327495D01*
X203638Y327587D01*
X205133Y327642D01*
X206629Y327660D01*
X208125Y327642D01*
X209620Y327587D01*
X211113Y327495D01*
X212604Y327366D01*
X214091Y327202D01*
X215574Y327000D01*
X217051Y326763D01*
X218522Y326489D01*
X219985Y326179D01*
X221441Y325833D01*
X222888Y325452D01*
X224325Y325035D01*
X225751Y324583D01*
X227166Y324097D01*
X228568Y323575D01*
X229957Y323020D01*
X231333Y322430D01*
X232693Y321807D01*
X234037Y321151D01*
X235365Y320462D01*
X236676Y319741D01*
X237969Y318987D01*
X239242Y318202D01*
X240497Y317386D01*
X241730Y316540D01*
X242943Y315664D01*
X244134Y314758D01*
X245302Y313823D01*
X246446Y312859D01*
X247567Y311868D01*
X248663Y310850D01*
X249734Y309805D01*
X250779Y308734D01*
X251797Y307638D01*
X252788Y306517D01*
X253752Y305373D01*
X254687Y304205D01*
X255593Y303014D01*
X256469Y301801D01*
X257315Y300568D01*
X258131Y299313D01*
X258916Y298040D01*
X259670Y296747D01*
X260391Y295436D01*
X261080Y294108D01*
X261736Y292764D01*
X262359Y291404D01*
X262949Y290028D01*
X263504Y288639D01*
X264026Y287237D01*
X264512Y285822D01*
X264964Y284396D01*
X265381Y282959D01*
X265762Y281512D01*
X266108Y280056D01*
X266418Y278593D01*
X266692Y277122D01*
X266929Y275645D01*
X267131Y274162D01*
X267295Y272675D01*
X267424Y271184D01*
X267516Y269691D01*
X267571Y268196D01*
X267589Y266700D01*
X267571Y265204D01*
X267516Y263709D01*
X267424Y262216D01*
X267295Y260725D01*
X267131Y259238D01*
X266929Y257755D01*
X266692Y256278D01*
X266418Y254807D01*
X266108Y253344D01*
X265762Y251888D01*
X265381Y250441D01*
X264964Y249004D01*
X264512Y247578D01*
X264026Y246163D01*
X263504Y244761D01*
X262949Y243372D01*
X262359Y241996D01*
X261736Y240636D01*
X261080Y239292D01*
X260391Y237964D01*
X259670Y236653D01*
X258916Y235360D01*
X258131Y234087D01*
X257315Y232832D01*
X256469Y231599D01*
X255593Y230386D01*
X254687Y229195D01*
X253752Y228027D01*
X252788Y226883D01*
X251797Y225762D01*
X250779Y224666D01*
X249734Y223595D01*
X248663Y222550D01*
X247567Y221532D01*
X246446Y220541D01*
X245302Y219577D01*
X244134Y218642D01*
X242943Y217736D01*
X241730Y216860D01*
X240497Y216014D01*
X239242Y215198D01*
X237969Y214413D01*
X236676Y213659D01*
X235365Y212938D01*
X234037Y212249D01*
X232693Y211593D01*
X231333Y210970D01*
X229957Y210380D01*
X228568Y209825D01*
X227166Y209303D01*
X225751Y208817D01*
X224325Y208365D01*
X222888Y207948D01*
X221441Y207567D01*
X219985Y207221D01*
X218522Y206911D01*
X217051Y206637D01*
X215574Y206400D01*
X214091Y206198D01*
X212604Y206034D01*
X211113Y205905D01*
X209620Y205813D01*
X208125Y205758D01*
X206629Y205740D01*
X205133Y205758D01*
X203638Y205813D01*
X202145Y205905D01*
X200654Y206034D01*
X199167Y206198D01*
X197684Y206400D01*
X196207Y206637D01*
X194736Y206911D01*
X193273Y207221D01*
X191817Y207567D01*
X190370Y207948D01*
X188933Y208365D01*
X187507Y208817D01*
X186092Y209303D01*
X184690Y209825D01*
X183301Y210380D01*
X181925Y210970D01*
X180565Y211593D01*
X179221Y212249D01*
X177893Y212938D01*
X176582Y213659D01*
X175289Y214413D01*
X174016Y215198D01*
X172761Y216014D01*
X171528Y216860D01*
X170315Y217736D01*
X169124Y218642D01*
X167956Y219577D01*
X166812Y220541D01*
X165691Y221532D01*
X164595Y222550D01*
X163524Y223595D01*
X162479Y224666D01*
X161461Y225762D01*
X160470Y226883D01*
X159506Y228027D01*
X158571Y229195D01*
X157665Y230386D01*
X156789Y231599D01*
X155943Y232832D01*
X155127Y234087D01*
X154342Y235360D01*
X153588Y236653D01*
X152867Y237964D01*
X152178Y239292D01*
X151522Y240636D01*
X150899Y241996D01*
X150309Y243372D01*
X149754Y244761D01*
X149232Y246163D01*
X148746Y247578D01*
X148294Y249004D01*
X147877Y250441D01*
X147496Y251888D01*
X147150Y253344D01*
X146840Y254807D01*
X146566Y256278D01*
X146329Y257755D01*
X146127Y259238D01*
X145963Y260725D01*
X145834Y262216D01*
X145742Y263709D01*
X145687Y265204D01*
X145669Y266700D01*
X195199Y266700D02*
X195202Y266981D01*
X195213Y267261D01*
X195230Y267541D01*
X195254Y267820D01*
X195285Y268099D01*
X195323Y268377D01*
X195367Y268654D01*
X195419Y268930D01*
X195477Y269204D01*
X195542Y269477D01*
X195613Y269749D01*
X195691Y270018D01*
X195776Y270285D01*
X195867Y270551D01*
X195965Y270814D01*
X196069Y271074D01*
X196180Y271332D01*
X196296Y271587D01*
X196419Y271839D01*
X196549Y272088D01*
X196684Y272334D01*
X196825Y272576D01*
X196972Y272815D01*
X197125Y273050D01*
X197284Y273281D01*
X197448Y273509D01*
X197618Y273732D01*
X197793Y273951D01*
X197974Y274166D01*
X198160Y274376D01*
X198351Y274581D01*
X198547Y274782D01*
X198748Y274978D01*
X198953Y275169D01*
X199163Y275355D01*
X199378Y275536D01*
X199597Y275711D01*
X199820Y275881D01*
X200048Y276045D01*
X200279Y276204D01*
X200514Y276357D01*
X200753Y276504D01*
X200995Y276645D01*
X201241Y276780D01*
X201490Y276910D01*
X201742Y277033D01*
X201997Y277149D01*
X202255Y277260D01*
X202515Y277364D01*
X202778Y277462D01*
X203044Y277553D01*
X203311Y277638D01*
X203580Y277716D01*
X203852Y277787D01*
X204125Y277852D01*
X204399Y277910D01*
X204675Y277962D01*
X204952Y278006D01*
X205230Y278044D01*
X205509Y278075D01*
X205788Y278099D01*
X206068Y278116D01*
X206348Y278127D01*
X206629Y278130D01*
X206910Y278127D01*
X207190Y278116D01*
X207470Y278099D01*
X207749Y278075D01*
X208028Y278044D01*
X208306Y278006D01*
X208583Y277962D01*
X208859Y277910D01*
X209133Y277852D01*
X209406Y277787D01*
X209678Y277716D01*
X209947Y277638D01*
X210214Y277553D01*
X210480Y277462D01*
X210743Y277364D01*
X211003Y277260D01*
X211261Y277149D01*
X211516Y277033D01*
X211768Y276910D01*
X212017Y276780D01*
X212263Y276645D01*
X212505Y276504D01*
X212744Y276357D01*
X212979Y276204D01*
X213210Y276045D01*
X213438Y275881D01*
X213661Y275711D01*
X213880Y275536D01*
X214095Y275355D01*
X214305Y275169D01*
X214510Y274978D01*
X214711Y274782D01*
X214907Y274581D01*
X215098Y274376D01*
X215284Y274166D01*
X215465Y273951D01*
X215640Y273732D01*
X215810Y273509D01*
X215974Y273281D01*
X216133Y273050D01*
X216286Y272815D01*
X216433Y272576D01*
X216574Y272334D01*
X216709Y272088D01*
X216839Y271839D01*
X216962Y271587D01*
X217078Y271332D01*
X217189Y271074D01*
X217293Y270814D01*
X217391Y270551D01*
X217482Y270285D01*
X217567Y270018D01*
X217645Y269749D01*
X217716Y269477D01*
X217781Y269204D01*
X217839Y268930D01*
X217891Y268654D01*
X217935Y268377D01*
X217973Y268099D01*
X218004Y267820D01*
X218028Y267541D01*
X218045Y267261D01*
X218056Y266981D01*
X218059Y266700D01*
X218056Y266419D01*
X218045Y266139D01*
X218028Y265859D01*
X218004Y265580D01*
X217973Y265301D01*
X217935Y265023D01*
X217891Y264746D01*
X217839Y264470D01*
X217781Y264196D01*
X217716Y263923D01*
X217645Y263651D01*
X217567Y263382D01*
X217482Y263115D01*
X217391Y262849D01*
X217293Y262586D01*
X217189Y262326D01*
X217078Y262068D01*
X216962Y261813D01*
X216839Y261561D01*
X216709Y261312D01*
X216574Y261066D01*
X216433Y260824D01*
X216286Y260585D01*
X216133Y260350D01*
X215974Y260119D01*
X215810Y259891D01*
X215640Y259668D01*
X215465Y259449D01*
X215284Y259234D01*
X215098Y259024D01*
X214907Y258819D01*
X214711Y258618D01*
X214510Y258422D01*
X214305Y258231D01*
X214095Y258045D01*
X213880Y257864D01*
X213661Y257689D01*
X213438Y257519D01*
X213210Y257355D01*
X212979Y257196D01*
X212744Y257043D01*
X212505Y256896D01*
X212263Y256755D01*
X212017Y256620D01*
X211768Y256490D01*
X211516Y256367D01*
X211261Y256251D01*
X211003Y256140D01*
X210743Y256036D01*
X210480Y255938D01*
X210214Y255847D01*
X209947Y255762D01*
X209678Y255684D01*
X209406Y255613D01*
X209133Y255548D01*
X208859Y255490D01*
X208583Y255438D01*
X208306Y255394D01*
X208028Y255356D01*
X207749Y255325D01*
X207470Y255301D01*
X207190Y255284D01*
X206910Y255273D01*
X206629Y255270D01*
X206348Y255273D01*
X206068Y255284D01*
X205788Y255301D01*
X205509Y255325D01*
X205230Y255356D01*
X204952Y255394D01*
X204675Y255438D01*
X204399Y255490D01*
X204125Y255548D01*
X203852Y255613D01*
X203580Y255684D01*
X203311Y255762D01*
X203044Y255847D01*
X202778Y255938D01*
X202515Y256036D01*
X202255Y256140D01*
X201997Y256251D01*
X201742Y256367D01*
X201490Y256490D01*
X201241Y256620D01*
X200995Y256755D01*
X200753Y256896D01*
X200514Y257043D01*
X200279Y257196D01*
X200048Y257355D01*
X199820Y257519D01*
X199597Y257689D01*
X199378Y257864D01*
X199163Y258045D01*
X198953Y258231D01*
X198748Y258422D01*
X198547Y258618D01*
X198351Y258819D01*
X198160Y259024D01*
X197974Y259234D01*
X197793Y259449D01*
X197618Y259668D01*
X197448Y259891D01*
X197284Y260119D01*
X197125Y260350D01*
X196972Y260585D01*
X196825Y260824D01*
X196684Y261066D01*
X196549Y261312D01*
X196419Y261561D01*
X196296Y261813D01*
X196180Y262068D01*
X196069Y262326D01*
X195965Y262586D01*
X195867Y262849D01*
X195776Y263115D01*
X195691Y263382D01*
X195613Y263651D01*
X195542Y263923D01*
X195477Y264196D01*
X195419Y264470D01*
X195367Y264746D01*
X195323Y265023D01*
X195285Y265301D01*
X195254Y265580D01*
X195230Y265859D01*
X195213Y266139D01*
X195202Y266419D01*
X195199Y266700D01*
X234569Y292100D02*
X234572Y292318D01*
X234580Y292536D01*
X234593Y292754D01*
X234612Y292971D01*
X234636Y293188D01*
X234665Y293404D01*
X234700Y293620D01*
X234740Y293834D01*
X234785Y294048D01*
X234835Y294260D01*
X234891Y294471D01*
X234952Y294681D01*
X235018Y294889D01*
X235089Y295095D01*
X235165Y295299D01*
X235246Y295502D01*
X235332Y295703D01*
X235423Y295901D01*
X235518Y296097D01*
X235619Y296291D01*
X235724Y296482D01*
X235834Y296670D01*
X235948Y296856D01*
X236067Y297039D01*
X236191Y297219D01*
X236318Y297396D01*
X236451Y297569D01*
X236587Y297740D01*
X236727Y297907D01*
X236872Y298070D01*
X237020Y298230D01*
X237173Y298386D01*
X237329Y298539D01*
X237489Y298687D01*
X237652Y298832D01*
X237819Y298972D01*
X237990Y299108D01*
X238163Y299241D01*
X238340Y299368D01*
X238520Y299492D01*
X238703Y299611D01*
X238889Y299725D01*
X239077Y299835D01*
X239268Y299940D01*
X239462Y300041D01*
X239658Y300136D01*
X239856Y300227D01*
X240057Y300313D01*
X240260Y300394D01*
X240464Y300470D01*
X240670Y300541D01*
X240878Y300607D01*
X241088Y300668D01*
X241299Y300724D01*
X241511Y300774D01*
X241725Y300819D01*
X241939Y300859D01*
X242155Y300894D01*
X242371Y300923D01*
X242588Y300947D01*
X242805Y300966D01*
X243023Y300979D01*
X243241Y300987D01*
X243459Y300990D01*
X243677Y300987D01*
X243895Y300979D01*
X244113Y300966D01*
X244330Y300947D01*
X244547Y300923D01*
X244763Y300894D01*
X244979Y300859D01*
X245193Y300819D01*
X245407Y300774D01*
X245619Y300724D01*
X245830Y300668D01*
X246040Y300607D01*
X246248Y300541D01*
X246454Y300470D01*
X246658Y300394D01*
X246861Y300313D01*
X247062Y300227D01*
X247260Y300136D01*
X247456Y300041D01*
X247650Y299940D01*
X247841Y299835D01*
X248029Y299725D01*
X248215Y299611D01*
X248398Y299492D01*
X248578Y299368D01*
X248755Y299241D01*
X248928Y299108D01*
X249099Y298972D01*
X249266Y298832D01*
X249429Y298687D01*
X249589Y298539D01*
X249745Y298386D01*
X249898Y298230D01*
X250046Y298070D01*
X250191Y297907D01*
X250331Y297740D01*
X250467Y297569D01*
X250600Y297396D01*
X250727Y297219D01*
X250851Y297039D01*
X250970Y296856D01*
X251084Y296670D01*
X251194Y296482D01*
X251299Y296291D01*
X251400Y296097D01*
X251495Y295901D01*
X251586Y295703D01*
X251672Y295502D01*
X251753Y295299D01*
X251829Y295095D01*
X251900Y294889D01*
X251966Y294681D01*
X252027Y294471D01*
X252083Y294260D01*
X252133Y294048D01*
X252178Y293834D01*
X252218Y293620D01*
X252253Y293404D01*
X252282Y293188D01*
X252306Y292971D01*
X252325Y292754D01*
X252338Y292536D01*
X252346Y292318D01*
X252349Y292100D01*
X252346Y291882D01*
X252338Y291664D01*
X252325Y291446D01*
X252306Y291229D01*
X252282Y291012D01*
X252253Y290796D01*
X252218Y290580D01*
X252178Y290366D01*
X252133Y290152D01*
X252083Y289940D01*
X252027Y289729D01*
X251966Y289519D01*
X251900Y289311D01*
X251829Y289105D01*
X251753Y288901D01*
X251672Y288698D01*
X251586Y288497D01*
X251495Y288299D01*
X251400Y288103D01*
X251299Y287909D01*
X251194Y287718D01*
X251084Y287530D01*
X250970Y287344D01*
X250851Y287161D01*
X250727Y286981D01*
X250600Y286804D01*
X250467Y286631D01*
X250331Y286460D01*
X250191Y286293D01*
X250046Y286130D01*
X249898Y285970D01*
X249745Y285814D01*
X249589Y285661D01*
X249429Y285513D01*
X249266Y285368D01*
X249099Y285228D01*
X248928Y285092D01*
X248755Y284959D01*
X248578Y284832D01*
X248398Y284708D01*
X248215Y284589D01*
X248029Y284475D01*
X247841Y284365D01*
X247650Y284260D01*
X247456Y284159D01*
X247260Y284064D01*
X247062Y283973D01*
X246861Y283887D01*
X246658Y283806D01*
X246454Y283730D01*
X246248Y283659D01*
X246040Y283593D01*
X245830Y283532D01*
X245619Y283476D01*
X245407Y283426D01*
X245193Y283381D01*
X244979Y283341D01*
X244763Y283306D01*
X244547Y283277D01*
X244330Y283253D01*
X244113Y283234D01*
X243895Y283221D01*
X243677Y283213D01*
X243459Y283210D01*
X243241Y283213D01*
X243023Y283221D01*
X242805Y283234D01*
X242588Y283253D01*
X242371Y283277D01*
X242155Y283306D01*
X241939Y283341D01*
X241725Y283381D01*
X241511Y283426D01*
X241299Y283476D01*
X241088Y283532D01*
X240878Y283593D01*
X240670Y283659D01*
X240464Y283730D01*
X240260Y283806D01*
X240057Y283887D01*
X239856Y283973D01*
X239658Y284064D01*
X239462Y284159D01*
X239268Y284260D01*
X239077Y284365D01*
X238889Y284475D01*
X238703Y284589D01*
X238520Y284708D01*
X238340Y284832D01*
X238163Y284959D01*
X237990Y285092D01*
X237819Y285228D01*
X237652Y285368D01*
X237489Y285513D01*
X237329Y285661D01*
X237173Y285814D01*
X237020Y285970D01*
X236872Y286130D01*
X236727Y286293D01*
X236587Y286460D01*
X236451Y286631D01*
X236318Y286804D01*
X236191Y286981D01*
X236067Y287161D01*
X235948Y287344D01*
X235834Y287530D01*
X235724Y287718D01*
X235619Y287909D01*
X235518Y288103D01*
X235423Y288299D01*
X235332Y288497D01*
X235246Y288698D01*
X235165Y288901D01*
X235089Y289105D01*
X235018Y289311D01*
X234952Y289519D01*
X234891Y289729D01*
X234835Y289940D01*
X234785Y290152D01*
X234740Y290366D01*
X234700Y290580D01*
X234665Y290796D01*
X234636Y291012D01*
X234612Y291229D01*
X234593Y291446D01*
X234580Y291664D01*
X234572Y291882D01*
X234569Y292100D01*
X44450Y469900D02*
X31750Y469900D01*
X44450Y469900D02*
X50800Y463550D01*
X50800Y450850D01*
X44450Y444500D01*
X50800Y463550D02*
X57150Y469900D01*
X69850Y469900D01*
X76200Y463550D01*
X76200Y450850D01*
X69850Y444500D01*
X57150Y444500D01*
X50800Y450850D01*
X25400Y450850D02*
X25400Y463550D01*
X31750Y469900D01*
X25400Y450850D02*
X31750Y444500D01*
X44450Y444500D01*
X76200Y463550D02*
X82550Y469900D01*
X95250Y469900D01*
X101600Y463550D01*
X101600Y450850D01*
X95250Y444500D01*
X82550Y444500D01*
X76200Y450850D01*
X44450Y437896D02*
X31750Y437896D01*
X44450Y437896D02*
X50800Y431546D01*
X50800Y418846D01*
X44450Y412496D01*
X50800Y431546D02*
X57150Y437896D01*
X69850Y437896D01*
X76200Y431546D01*
X76200Y418846D01*
X69850Y412496D01*
X57150Y412496D01*
X50800Y418846D01*
X25400Y418846D02*
X25400Y431546D01*
X31750Y437896D01*
X25400Y418846D02*
X31750Y412496D01*
X44450Y412496D01*
X76200Y431546D02*
X82550Y437896D01*
X95250Y437896D01*
X101600Y431546D01*
X101600Y418846D01*
X95250Y412496D01*
X82550Y412496D01*
X76200Y418846D01*
X44450Y405892D02*
X31750Y405892D01*
X44450Y405892D02*
X50800Y399542D01*
X50800Y386842D01*
X44450Y380492D01*
X50800Y399542D02*
X57150Y405892D01*
X69850Y405892D01*
X76200Y399542D01*
X76200Y386842D01*
X69850Y380492D01*
X57150Y380492D01*
X50800Y386842D01*
X25400Y386842D02*
X25400Y399542D01*
X31750Y405892D01*
X25400Y386842D02*
X31750Y380492D01*
X44450Y380492D01*
X76200Y399542D02*
X82550Y405892D01*
X95250Y405892D01*
X101600Y399542D01*
X101600Y386842D01*
X95250Y380492D01*
X82550Y380492D01*
X76200Y386842D01*
X44450Y373888D02*
X31750Y373888D01*
X44450Y373888D02*
X50800Y367538D01*
X50800Y354838D01*
X44450Y348488D01*
X50800Y367538D02*
X57150Y373888D01*
X69850Y373888D01*
X76200Y367538D01*
X76200Y354838D01*
X69850Y348488D01*
X57150Y348488D01*
X50800Y354838D01*
X25400Y354838D02*
X25400Y367538D01*
X31750Y373888D01*
X25400Y354838D02*
X31750Y348488D01*
X44450Y348488D01*
X76200Y367538D02*
X82550Y373888D01*
X95250Y373888D01*
X101600Y367538D01*
X101600Y354838D01*
X95250Y348488D01*
X82550Y348488D01*
X76200Y354838D01*
X44450Y341884D02*
X31750Y341884D01*
X44450Y341884D02*
X50800Y335534D01*
X50800Y322834D01*
X44450Y316484D01*
X50800Y335534D02*
X57150Y341884D01*
X69850Y341884D01*
X76200Y335534D01*
X76200Y322834D01*
X69850Y316484D01*
X57150Y316484D01*
X50800Y322834D01*
X25400Y322834D02*
X25400Y335534D01*
X31750Y341884D01*
X25400Y322834D02*
X31750Y316484D01*
X44450Y316484D01*
X76200Y335534D02*
X82550Y341884D01*
X95250Y341884D01*
X101600Y335534D01*
X101600Y322834D01*
X95250Y316484D01*
X82550Y316484D01*
X76200Y322834D01*
X44450Y307848D02*
X31750Y307848D01*
X44450Y307848D02*
X50800Y301498D01*
X50800Y288798D01*
X44450Y282448D01*
X50800Y301498D02*
X57150Y307848D01*
X69850Y307848D01*
X76200Y301498D01*
X76200Y288798D01*
X69850Y282448D01*
X57150Y282448D01*
X50800Y288798D01*
X25400Y288798D02*
X25400Y301498D01*
X31750Y307848D01*
X25400Y288798D02*
X31750Y282448D01*
X44450Y282448D01*
X76200Y301498D02*
X82550Y307848D01*
X95250Y307848D01*
X101600Y301498D01*
X101600Y288798D01*
X95250Y282448D01*
X82550Y282448D01*
X76200Y288798D01*
X44450Y273812D02*
X31750Y273812D01*
X44450Y273812D02*
X50800Y267462D01*
X50800Y254762D01*
X44450Y248412D01*
X50800Y267462D02*
X57150Y273812D01*
X69850Y273812D01*
X76200Y267462D01*
X76200Y254762D01*
X69850Y248412D01*
X57150Y248412D01*
X50800Y254762D01*
X25400Y254762D02*
X25400Y267462D01*
X31750Y273812D01*
X25400Y254762D02*
X31750Y248412D01*
X44450Y248412D01*
X76200Y267462D02*
X82550Y273812D01*
X95250Y273812D01*
X101600Y267462D01*
X101600Y254762D01*
X95250Y248412D01*
X82550Y248412D01*
X76200Y254762D01*
X64008Y622300D02*
X70358Y628650D01*
X64008Y622300D02*
X51308Y622300D01*
X44958Y628650D01*
X44958Y641350D01*
X51308Y647700D01*
X64008Y647700D01*
X70358Y641350D01*
X102108Y622300D02*
X114808Y622300D01*
X102108Y622300D02*
X95758Y628650D01*
X95758Y641350D01*
X102108Y647700D01*
X95758Y628650D02*
X89408Y622300D01*
X76708Y622300D01*
X70358Y628650D01*
X70358Y641350D01*
X76708Y647700D01*
X89408Y647700D01*
X95758Y641350D01*
X140208Y622300D02*
X146558Y628650D01*
X140208Y622300D02*
X127508Y622300D01*
X121158Y628650D01*
X121158Y641350D01*
X127508Y647700D01*
X140208Y647700D01*
X146558Y641350D01*
X121158Y628650D02*
X114808Y622300D01*
X121158Y641350D02*
X114808Y647700D01*
X102108Y647700D01*
X178308Y622300D02*
X191008Y622300D01*
X178308Y622300D02*
X171958Y628650D01*
X171958Y641350D01*
X178308Y647700D01*
X171958Y628650D02*
X165608Y622300D01*
X152908Y622300D01*
X146558Y628650D01*
X146558Y641350D01*
X152908Y647700D01*
X165608Y647700D01*
X171958Y641350D01*
X216408Y622300D02*
X222758Y628650D01*
X216408Y622300D02*
X203708Y622300D01*
X197358Y628650D01*
X197358Y641350D01*
X203708Y647700D01*
X216408Y647700D01*
X222758Y641350D01*
X197358Y628650D02*
X191008Y622300D01*
X197358Y641350D02*
X191008Y647700D01*
X178308Y647700D01*
X254508Y622300D02*
X267208Y622300D01*
X254508Y622300D02*
X248158Y628650D01*
X248158Y641350D01*
X254508Y647700D01*
X248158Y628650D02*
X241808Y622300D01*
X229108Y622300D01*
X222758Y628650D01*
X222758Y641350D01*
X229108Y647700D01*
X241808Y647700D01*
X248158Y641350D01*
X273558Y641350D02*
X273558Y628650D01*
X267208Y622300D01*
X273558Y641350D02*
X267208Y647700D01*
X254508Y647700D01*
X38608Y622300D02*
X25908Y622300D01*
X19558Y628650D01*
X19558Y641350D01*
X25908Y647700D01*
X44958Y628650D02*
X38608Y622300D01*
X44958Y641350D02*
X38608Y647700D01*
X25908Y647700D01*
X184150Y355600D02*
X196850Y355600D01*
X184150Y355600D02*
X177800Y361950D01*
X177800Y374650D01*
X184150Y381000D01*
X177800Y361950D02*
X171450Y355600D01*
X158750Y355600D01*
X152400Y361950D01*
X152400Y374650D01*
X158750Y381000D01*
X171450Y381000D01*
X177800Y374650D01*
X222250Y355600D02*
X228600Y361950D01*
X222250Y355600D02*
X209550Y355600D01*
X203200Y361950D01*
X203200Y374650D01*
X209550Y381000D01*
X222250Y381000D01*
X228600Y374650D01*
X203200Y361950D02*
X196850Y355600D01*
X203200Y374650D02*
X196850Y381000D01*
X184150Y381000D01*
X260350Y355600D02*
X273050Y355600D01*
X260350Y355600D02*
X254000Y361950D01*
X254000Y374650D01*
X260350Y381000D01*
X254000Y361950D02*
X247650Y355600D01*
X234950Y355600D01*
X228600Y361950D01*
X228600Y374650D01*
X234950Y381000D01*
X247650Y381000D01*
X254000Y374650D01*
X279400Y374650D02*
X279400Y361950D01*
X273050Y355600D01*
X279400Y374650D02*
X273050Y381000D01*
X260350Y381000D01*
X146050Y355600D02*
X133350Y355600D01*
X127000Y361950D01*
X127000Y374650D01*
X133350Y381000D01*
X152400Y361950D02*
X146050Y355600D01*
X152400Y374650D02*
X146050Y381000D01*
X133350Y381000D01*
X76200Y220726D02*
X69850Y214376D01*
X57150Y214376D01*
X50800Y220726D01*
X50800Y233426D01*
X57150Y239776D01*
X69850Y239776D01*
X76200Y233426D01*
X107950Y214376D02*
X120650Y214376D01*
X107950Y214376D02*
X101600Y220726D01*
X101600Y233426D01*
X107950Y239776D01*
X101600Y220726D02*
X95250Y214376D01*
X82550Y214376D01*
X76200Y220726D01*
X76200Y233426D01*
X82550Y239776D01*
X95250Y239776D01*
X101600Y233426D01*
X127000Y233426D02*
X127000Y220726D01*
X120650Y214376D01*
X127000Y233426D02*
X120650Y239776D01*
X107950Y239776D01*
X44450Y214376D02*
X31750Y214376D01*
X25400Y220726D01*
X25400Y233426D01*
X31750Y239776D01*
X50800Y220726D02*
X44450Y214376D01*
X50800Y233426D02*
X44450Y239776D01*
X31750Y239776D01*
M02*
