M48
;GenerationSoftware,Autodesk,EAGLE,9.7.0*%
;CreationDate,2021-02-21T04:56:34Z*%
FMAT,2
ICI,OFF
METRIC,TZ,000.000
T4C0.600
T3C0.914
T2C1.000
T1C1.016
%
G90
M71
T1
X10846Y63500
X3810Y45720
X6350Y45720
X8890Y45720
X3810Y42520
X6350Y42520
X8890Y42520
X3810Y39319
X6350Y39319
X8890Y39319
X3810Y36119
X6350Y36119
X8890Y36119
X3810Y32918
X6350Y32918
X8890Y32918
X3810Y29515
X6350Y29515
X8890Y29515
X3810Y26111
X6350Y26111
X8890Y26111
X26086Y63500
X23546Y63500
X21006Y63500
X18466Y63500
X15926Y63500
X13386Y63500
X8306Y63500
X5766Y63500
X3226Y63500
X26670Y36830
X24130Y36830
X21590Y36830
X19050Y36830
X16510Y36830
X13970Y36830
X11430Y22708
X8890Y22708
X6350Y22708
X3810Y22708
T2
X45137Y62532
X45137Y65072
X29897Y44752
X29897Y47292
X29897Y49832
X29897Y52372
X29897Y54912
X29897Y57452
X29897Y59992
X29897Y62532
X29897Y65072
X42137Y13002
X42137Y15542
X42137Y18082
X45137Y14272
X42137Y23162
X45137Y44752
X29897Y42212
X36517Y6882
X38517Y6882
X45137Y6652
X37517Y52372
X29897Y9192
X29897Y6652
X29897Y11732
X40057Y52372
X42597Y52372
X34977Y52372
X32437Y52372
X29897Y39672
X45137Y39672
X45137Y9192
X45137Y11732
X45137Y16812
X45137Y19352
X45137Y21892
X45137Y24432
X45137Y26972
X45137Y29512
X45137Y32052
X45137Y34592
X45137Y37132
X32437Y9192
X29897Y37132
X29897Y34592
X29897Y32052
X29897Y29512
X42137Y20622
X29897Y26972
X29897Y24432
X29897Y21892
X29897Y19352
X29897Y16812
X29897Y14272
X45137Y42212
X45137Y47292
X45137Y49832
X45137Y52372
X45137Y54912
X45137Y57452
X45137Y59992
T3
X17412Y26670
X23914Y26670
T4
X34437Y19622
X36437Y19622
X32437Y21622
X34437Y21622
X36437Y21622
X32437Y19622
M30