M48
;GenerationSoftware,Autodesk,EAGLE,9.7.0*%
;CreationDate,2020-12-12T13:45:54Z*%
FMAT,2
ICI,OFF
METRIC,TZ,000.000
T4C0.914
T3C0.981
T2C1.000
T1C1.016
%
G90
M71
T1
X2540Y40640
X5080Y40640
X7620Y40640
X2540Y53340
X5080Y53340
X7620Y53340
X2540Y59690
X5080Y59690
X7620Y59690
X2540Y34290
X7620Y46990
X5080Y34290
X7620Y34290
X13970Y44450
X13970Y46990
X13970Y49530
X13970Y52070
X13970Y54610
X13970Y57150
X13970Y59690
X13970Y62230
X13970Y64770
X13970Y67310
X13970Y27838
X13970Y30378
X13970Y32918
X13970Y35458
X13970Y37998
X13970Y40538
X8890Y5080
X3810Y10160
X3810Y12700
X3810Y15240
X3810Y17780
X3810Y20320
X3810Y22860
X11430Y5080
X13970Y5080
X2540Y66040
X5080Y66040
X7620Y66040
X2540Y46990
X5080Y46990
X16510Y5080
T2
X39380Y97519
X36840Y97519
X34300Y97519
X31760Y97519
X29220Y97519
X26680Y97519
X24140Y97519
X21600Y97519
X19060Y97519
X16520Y97519
X11440Y97519
X8900Y97519
X6360Y97519
X3820Y97519
X39380Y72114
X36840Y72114
X34300Y72114
X31760Y72114
X29220Y72114
X26680Y72114
X24140Y72114
X21600Y72114
X19060Y72114
X16520Y72114
X13980Y72114
X11440Y72114
X8900Y72114
X6360Y72114
X3820Y72114
X13980Y97519
X21090Y18415
X31250Y18415
X31250Y20955
X21090Y20955
X21090Y62865
X31250Y62865
X31250Y65405
X21090Y65405
T3
X22860Y6350
X25400Y6350
T4
X37541Y7620
X31039Y7620
M30